<svg width="308" height="63" viewBox="0 0 308 63" fill="none" xmlns="http://www.w3.org/2000/svg">
<path d="M42.9054 4.95357C38.9589 -1.7045 29.3462 -1.63761 25.4918 5.07475L23.6509 8.28061C23.1007 9.23867 23.4249 10.4564 24.2528 11.1851C25.3749 12.1729 26.4012 13.4225 27.3249 14.8641C30.0536 19.1227 32.2564 22.3673 34.2574 24.6656C36.2844 26.9939 37.7643 27.9434 38.9312 28.2238C39.9404 28.4664 41.3071 28.3442 43.5176 26.9319C45.424 25.7139 47.7047 23.6915 50.538 20.6517C51.1463 19.9992 51.2427 19.0195 50.7873 18.2513L42.9054 4.95357Z" fill="#CECAFD"/>
<path d="M62.7186 38.3806C62.1254 37.3799 60.8216 37.0926 59.8113 37.6628C56.0549 39.7827 52.6405 40.4673 50.0184 40.5657C49.2322 40.5952 48.5041 41.0207 48.1404 41.722C45.9634 45.92 43.2837 50.2933 39.2626 53.5614C36.421 55.8709 32.5603 58.1175 27.9373 58.5166C23.188 58.9266 18.1161 57.3456 13.0704 52.873C9.88698 50.0511 7.47419 46.553 5.88126 42.7246C5.54436 41.9149 4.4006 41.8045 3.96413 42.5646L1.36682 47.0877C-2.48758 53.8001 2.26118 62.2037 9.96926 62.311L59.4044 62.999C67.2991 63.1088 72.2575 54.4738 68.2155 47.6545L62.7186 38.3806Z" fill="#CECAFD"/>
<path d="M46.3001 37.14L54.5065 21.2375C57.5632 17.1752 60.1777 17.4206 62.2006 19.1296C66.6635 22.9003 64.9141 30.2365 60.1519 33.6202C53.5194 38.3328 47.9245 37.5512 46.3001 37.14Z" fill="url(#paint0_linear)"/>
<path d="M24.4897 16.9697C19.7804 9.64989 14.8178 11.9842 10.899 17.8468C4.13043 27.9725 6.05669 42.4184 15.1841 50.4763C24.1033 58.3503 31.9793 55.1973 37.0789 51.0695C41.7707 47.2717 44.472 41.6626 47.138 36.2432L54.5208 21.235C39.7779 37.7889 35.3507 33.8512 24.4897 16.9697Z" fill="#7A46EB"/>
<path d="M24.4897 16.9697C19.7804 9.64989 14.8178 11.9842 10.899 17.8468C4.13043 27.9725 6.05669 42.4184 15.1841 50.4763C24.1033 58.3503 31.9793 55.1973 37.0789 51.0695C41.7707 47.2717 44.472 41.6626 47.138 36.2432L54.5208 21.235C39.7779 37.7889 35.3507 33.8512 24.4897 16.9697Z" fill="url(#paint1_radial)"/>
<path d="M101.161 23.3493C103.068 23.3493 104.763 23.7522 106.247 24.5579C107.76 25.3637 108.941 26.5574 109.788 28.1391C110.666 29.7208 111.105 31.6308 111.105 33.869V48.4175H105.974V34.63C105.974 32.4216 105.414 30.7355 104.294 29.5716C103.174 28.3779 101.646 27.781 99.7084 27.781C97.7711 27.781 96.2274 28.3779 95.0772 29.5716C93.9572 30.7355 93.3972 32.4216 93.3972 34.63V48.4175H88.2211V15.2916H93.3972V26.6171C94.275 25.5726 95.3798 24.7668 96.7117 24.1998C98.0738 23.6328 99.557 23.3493 101.161 23.3493Z" fill="#36196D"/>
<path d="M139.501 35.4805C139.501 36.4057 139.441 37.2413 139.32 37.9874H120.205C120.356 39.957 121.097 41.5387 122.429 42.7324C123.761 43.9261 125.396 44.523 127.333 44.523C130.118 44.523 132.085 43.374 133.236 41.0761H138.82C138.064 43.3442 136.686 45.2094 134.688 46.6717C132.721 48.1042 130.269 48.8204 127.333 48.8204C124.942 48.8204 122.793 48.2982 120.886 47.2536C119.009 46.1793 117.526 44.6871 116.436 42.7772C115.377 40.8374 114.847 38.5991 114.847 36.0625C114.847 33.5258 115.361 31.3025 116.391 29.3925C117.45 27.4527 118.918 25.9606 120.795 24.9161C122.702 23.8715 124.881 23.3493 127.333 23.3493C129.694 23.3493 131.798 23.8566 133.644 24.8713C135.491 25.886 136.928 27.3184 137.958 29.1687C138.987 30.9891 139.501 33.0931 139.501 35.4805ZM134.098 33.869C134.068 31.9889 133.387 30.4818 132.055 29.3478C130.723 28.2137 129.073 27.6467 127.106 27.6467C125.32 27.6467 123.791 28.2137 122.52 29.3478C121.249 30.452 120.492 31.959 120.25 33.869H134.098Z" fill="#36196D"/>
<path d="M152.541 48.8204C150.573 48.8204 148.803 48.4772 147.229 47.7908C145.685 47.0746 144.459 46.1196 143.551 44.9259C142.643 43.7023 142.158 42.3445 142.098 40.8523H147.456C147.546 41.8968 148.046 42.7772 148.954 43.4934C149.892 44.1798 151.058 44.523 152.45 44.523C153.903 44.523 155.023 44.2544 155.81 43.7172C156.627 43.1502 157.036 42.434 157.036 41.5685C157.036 40.6434 156.582 39.957 155.674 39.5094C154.796 39.0617 153.388 38.5693 151.451 38.0321C149.574 37.5248 148.046 37.0324 146.865 36.5549C145.685 36.0774 144.656 35.3462 143.778 34.3614C142.93 33.3766 142.507 32.0784 142.507 30.4669C142.507 29.1538 142.9 27.9601 143.687 26.8857C144.474 25.7815 145.594 24.9161 147.047 24.2894C148.53 23.6626 150.225 23.3493 152.132 23.3493C154.978 23.3493 157.263 24.0655 158.988 25.498C160.744 26.9006 161.682 28.8255 161.803 31.2726H156.627C156.536 30.1684 156.082 29.2881 155.265 28.6315C154.448 27.975 153.343 27.6467 151.951 27.6467C150.588 27.6467 149.544 27.9004 148.818 28.4077C148.091 28.915 147.728 29.5865 147.728 30.4221C147.728 31.0787 147.97 31.6308 148.454 32.0784C148.939 32.5261 149.529 32.8842 150.225 33.1528C150.921 33.3915 151.951 33.7049 153.313 34.0928C155.129 34.5703 156.612 35.0627 157.762 35.5701C158.943 36.0476 159.957 36.7638 160.804 37.7188C161.652 38.6737 162.091 39.9421 162.121 41.5238C162.121 42.9264 161.728 44.1798 160.941 45.284C160.154 46.3882 159.034 47.2537 157.581 47.8804C156.158 48.5071 154.478 48.8204 152.541 48.8204Z" fill="#36196D"/>
<path d="M175.66 48.8204C173.692 48.8204 171.922 48.4772 170.347 47.7908C168.804 47.0746 167.578 46.1196 166.67 44.9259C165.762 43.7023 165.277 42.3445 165.217 40.8523H170.575C170.665 41.8968 171.165 42.7772 172.073 43.4934C173.011 44.1798 174.177 44.523 175.569 44.523C177.022 44.523 178.142 44.2544 178.929 43.7172C179.746 43.1502 180.155 42.434 180.155 41.5685C180.155 40.6434 179.701 39.957 178.793 39.5094C177.915 39.0617 176.507 38.5693 174.57 38.0321C172.693 37.5248 171.165 37.0324 169.984 36.5549C168.804 36.0774 167.775 35.3462 166.897 34.3614C166.049 33.3766 165.625 32.0784 165.625 30.4669C165.625 29.1538 166.019 27.9601 166.806 26.8857C167.593 25.7815 168.713 24.9161 170.166 24.2894C171.649 23.6626 173.344 23.3493 175.251 23.3493C178.096 23.3493 180.382 24.0655 182.107 25.498C183.863 26.9006 184.801 28.8255 184.922 31.2726H179.746C179.655 30.1684 179.201 29.2881 178.384 28.6315C177.567 27.975 176.462 27.6467 175.07 27.6467C173.707 27.6467 172.663 27.9004 171.937 28.4077C171.21 28.915 170.847 29.5865 170.847 30.4221C170.847 31.0787 171.089 31.6308 171.573 32.0784C172.058 32.5261 172.648 32.8842 173.344 33.1528C174.04 33.3915 175.07 33.7049 176.432 34.0928C178.248 34.5703 179.731 35.0627 180.881 35.5701C182.062 36.0476 183.076 36.7638 183.923 37.7188C184.771 38.6737 185.21 39.9421 185.24 41.5238C185.24 42.9264 184.847 44.1798 184.06 45.284C183.273 46.3882 182.153 47.2537 180.7 47.8804C179.277 48.5071 177.597 48.8204 175.66 48.8204Z" fill="#36196D"/>
<path d="M192.331 20.4844C191.393 20.4844 190.606 20.171 189.97 19.5443C189.335 18.9176 189.017 18.1417 189.017 17.2165C189.017 16.2914 189.335 15.5155 189.97 14.8888C190.606 14.2621 191.393 13.9487 192.331 13.9487C193.239 13.9487 194.011 14.2621 194.647 14.8888C195.283 15.5155 195.6 16.2914 195.6 17.2165C195.6 18.1417 195.283 18.9176 194.647 19.5443C194.011 20.171 193.239 20.4844 192.331 20.4844ZM194.874 23.7522V48.4175H189.698V23.7522H194.874Z" fill="#36196D"/>
<path d="M198.809 35.9729C198.809 33.496 199.324 31.3025 200.353 29.3925C201.412 27.4826 202.835 26.0053 204.621 24.9608C206.437 23.8865 208.435 23.3493 210.614 23.3493C212.582 23.3493 214.292 23.7373 215.745 24.5132C217.228 25.2593 218.409 26.1993 219.287 27.3334V23.7522H224.508V48.4175H219.287V44.7468C218.409 45.9107 217.213 46.8806 215.7 47.6565C214.186 48.4325 212.461 48.8204 210.524 48.8204C208.374 48.8204 206.407 48.2832 204.621 47.2089C202.835 46.1047 201.412 44.5827 200.353 42.6429C199.324 40.6732 198.809 38.4499 198.809 35.9729ZM219.287 36.0625C219.287 34.3614 218.923 32.8842 218.197 31.6308C217.501 30.3774 216.577 29.4224 215.427 28.7658C214.277 28.1093 213.036 27.781 211.704 27.781C210.372 27.781 209.131 28.1093 207.981 28.7658C206.831 29.3925 205.892 30.3326 205.166 31.586C204.47 32.8096 204.122 34.2719 204.122 35.9729C204.122 37.674 204.47 39.1662 205.166 40.4494C205.892 41.7327 206.831 42.7175 207.981 43.4039C209.161 44.0604 210.402 44.3887 211.704 44.3887C213.036 44.3887 214.277 44.0604 215.427 43.4039C216.577 42.7473 217.501 41.7924 218.197 40.5389C218.923 39.2557 219.287 37.7635 219.287 36.0625Z" fill="#36196D"/>
<path d="M242.794 23.3493C244.761 23.3493 246.517 23.7522 248.061 24.5579C249.635 25.3637 250.861 26.5574 251.739 28.1391C252.616 29.7208 253.055 31.6308 253.055 33.869V48.4175H247.925V34.63C247.925 32.4216 247.365 30.7355 246.245 29.5716C245.125 28.3779 243.596 27.781 241.659 27.781C239.722 27.781 238.178 28.3779 237.028 29.5716C235.908 30.7355 235.348 32.4216 235.348 34.63V48.4175H230.172V23.7522H235.348V26.5724C236.195 25.5577 237.27 24.7668 238.571 24.1998C239.903 23.6328 241.311 23.3493 242.794 23.3493Z" fill="#36196D"/>
<path d="M262.423 48.0455C261.273 48.0455 260.319 47.6836 259.562 46.9599C258.836 46.2048 258.472 45.2765 258.472 44.1752C258.472 43.074 258.836 42.1615 259.562 41.4378C260.319 40.6826 261.273 40.305 262.423 40.305C263.544 40.305 264.467 40.6826 265.194 41.4378C265.92 42.1615 266.284 43.074 266.284 44.1752C266.284 45.2765 265.92 46.2048 265.194 46.9599C264.467 47.6836 263.544 48.0455 262.423 48.0455Z" fill="#5B28BB"/>
<path d="M289.706 41.4378H277.081L274.992 47.7151H268.316L279.715 14.7236H287.118L298.517 47.7151H291.795L289.706 41.4378ZM287.981 36.1516L283.394 22.3697L278.807 36.1516H287.981Z" fill="#5B28BB"/>
<path d="M308 14.7708V47.7151H301.642V14.7708H308Z" fill="#5B28BB"/>
<defs>
<linearGradient id="paint0_linear" x1="49.7502" y1="25.5981" x2="60.0964" y2="35.7943" gradientUnits="userSpaceOnUse">
<stop stop-color="#3A1D72"/>
<stop offset="1" stop-color="#7A46EB"/>
</linearGradient>
<radialGradient id="paint1_radial" cx="0" cy="0" r="1" gradientUnits="userSpaceOnUse" gradientTransform="translate(35.6122 25.8705) rotate(122.193) scale(22.2002 22.9915)">
<stop stop-color="#D3C3F7" stop-opacity="0.5"/>
<stop offset="1" stop-color="#D3C3F7" stop-opacity="0"/>
</radialGradient>
</defs>
</svg>
