<?xml version="1.0" encoding="UTF-8" standalone="no"?>
<svg
   xmlns:dc="http://purl.org/dc/elements/1.1/"
   xmlns:cc="http://creativecommons.org/ns#"
   xmlns:rdf="http://www.w3.org/1999/02/22-rdf-syntax-ns#"
   xmlns:svg="http://www.w3.org/2000/svg"
   xmlns="http://www.w3.org/2000/svg"
   id="svg5324"
   version="1.1"
   viewBox="0 0 135 135"
   height="135mm"
   width="135mm">
  <defs
     id="defs5318">
    <clipPath
       id="clipPath8039"
       clipPathUnits="userSpaceOnUse">
      <rect
         y="-10.959352"
         x="537.19391"
         height="84.000893"
         width="93.526749"
         id="rect8041"
         style="opacity:1;fill:#000000;fill-opacity:1;stroke:#000000;stroke-width:0.69682258;stroke-miterlimit:4;stroke-dasharray:4.18093529, 4.18093529;stroke-dashoffset:0;stroke-opacity:0.7" />
    </clipPath>
    <clipPath
       id="pb733b42998">
      <rect
         id="rect7171"
         y="5.46"
         x="677.51501"
         width="173.91499"
         height="83.959999" />
    </clipPath>
  </defs>
  <metadata
     id="metadata5321">
    <rdf:RDF>
      <cc:Work
         rdf:about="">
        <dc:format>image/svg+xml</dc:format>
        <dc:type
           rdf:resource="http://purl.org/dc/dcmitype/StillImage" />
        <dc:title></dc:title>
      </cc:Work>
    </rdf:RDF>
  </metadata>
  <g
     transform="translate(-43.53424,-24.489749)"
     id="layer1">
    <path
       transform="rotate(-48)"
       d="m -14.191529,128.82363 a 31.372023,31.372023 0 0 1 -11.570411,38.39769 31.372023,31.372023 0 0 1 -39.866498,-4.34965 31.372023,31.372023 0 0 1 -3.01797,-39.98936 31.372023,31.372023 0 0 1 38.76213,-10.28369 l -13.193996,28.46264 z"
       id="path5326"
       style="fill:#fbe07c;fill-opacity:1;stroke:#000000;stroke-width:1.00199997;stroke-miterlimit:4;stroke-dasharray:none;stroke-opacity:1" />
    <path
       transform="rotate(44)"
       d="M 125.58134,-11.893041 A 31.372023,31.372023 0 0 1 106.0338,17.16527 31.372023,31.372023 0 0 1 71.750862,10.011795 31.372023,31.372023 0 0 1 65.455123,-24.438972 31.372023,31.372023 0 0 1 94.99218,-43.255294 l -0.782868,31.362253 z"
       id="path5326-3"
       style="fill:#fbe07c;fill-opacity:1;stroke:#000000;stroke-width:1.00199997;stroke-miterlimit:4;stroke-dasharray:none;stroke-opacity:1" />
    <path
       transform="rotate(134)"
       d="m -29.518144,-135.26176 a 31.372023,31.372023 0 0 1 -33.397997,21.78987 31.372023,31.372023 0 0 1 -27.800562,-28.58939 31.372023,31.372023 0 0 1 22.715548,-32.77542 l 8.549316,30.18465 z"
       id="path5326-3-5"
       style="fill:#fbe07c;fill-opacity:1;stroke:#000000;stroke-width:1.00199997;stroke-miterlimit:4;stroke-dasharray:none;stroke-opacity:1" />
    <path
       transform="rotate(44)"
       d="M 221.68185,-22.656635 A 31.372023,31.372023 0 0 1 205.0483,18.461153 31.372023,31.372023 0 0 1 163.92156,1.8497418 a 31.372023,31.372023 0 0 1 16.58926,-41.1356778 31.372023,31.372023 0 0 1 41.1446,16.56711"
       id="path5326-6"
       style="fill:#fbe07c;fill-opacity:1;stroke:#000000;stroke-width:1.00199997;stroke-miterlimit:4;stroke-dasharray:none;stroke-opacity:1" />
  </g>
</svg>
