<?xml version="1.0" encoding="UTF-8" standalone="no"?>
<svg
   xmlns:dc="http://purl.org/dc/elements/1.1/"
   xmlns:cc="http://creativecommons.org/ns#"
   xmlns:rdf="http://www.w3.org/1999/02/22-rdf-syntax-ns#"
   xmlns:svg="http://www.w3.org/2000/svg"
   xmlns="http://www.w3.org/2000/svg"
   id="svg8"
   version="1.1"
   viewBox="0 0 24.546593 21.963593"
   height="21.963593mm"
   width="24.546593mm">
  <defs
     id="defs2">
    <pattern
       id="pattern4982"
       patternTransform="matrix(0.26458333,0,0,0.26458333,33.339213,92.447302)"
       height="119.50163"
       width="111.16394"
       patternUnits="userSpaceOnUse">
      <path
         style="fill:#000000;stroke-width:0.32000002"
         d="m 95.585808,119.16283 c -0.436381,-0.17424 -1.042897,-0.54233 -1.347818,-0.81827 -0.467841,-0.42342 -1.742797,-0.5082 -8.166576,-0.54316 -6.815225,-0.0378 -7.676682,0.0151 -8.228247,0.51459 -1.466442,1.32351 -4.331176,0.95213 -5.76073,-0.7468 -1.582843,-1.88111 -1.451198,-4.43989 0.319522,-6.21063 l 1.083568,-1.08356 -1.136553,-1.6975 c -0.625108,-0.93365 -1.88202,-3.2426 -2.793147,-5.13101 -1.528063,-3.16705 -1.727323,-3.43396 -2.56823,-3.43997 -1.41611,-0.01134 -3.009548,-0.923491 -3.776652,-2.164688 -1.90083,-3.075629 0.217701,-6.924964 3.811261,-6.924964 1.449872,0 1.554157,-0.06009 2.103775,-1.210394 0.318048,-0.665763 1.500949,-2.746696 2.62865,-4.624327 l 2.050372,-3.413896 -0.9371,-1.067301 c -2.18338,-2.48674 -1.38717,-6.420737 1.613559,-7.972498 1.315404,-0.680201 3.697225,-0.5952 4.945932,0.176504 1.076568,0.665348 2.071838,2.325052 2.071838,3.45498 0,0.620371 0.187276,0.641423 5.264134,0.591609 l 5.264126,-0.05178 0.531398,-1.383723 c 1.386761,-3.611036 6.397028,-4.453493 8.74368,-1.470199 0.99281,1.262174 1.1101,2.606174 0.41078,4.707137 l -0.61686,1.853178 1.58095,2.62681 c 0.86953,1.444762 2.11214,3.716031 2.76137,5.047294 1.10506,2.26594 1.27851,2.456126 2.71663,2.978911 1.66468,0.60514 2.78186,1.971326 2.78081,3.400592 -0.002,2.455067 -1.60604,4.945814 -3.41905,5.308422 -0.73576,0.147023 -1.14079,0.633713 -2.18077,2.619633 -0.70246,1.34143 -2.02133,3.48257 -2.93083,4.75816 -1.42139,1.99347 -1.58696,2.37452 -1.1789,2.71317 1.03585,0.85969 1.47518,2.26953 1.30208,4.17842 -0.19846,2.18887 -0.9755,3.66463 -2.45417,4.6611 -1.147795,0.77352 -3.071423,0.9295 -4.488799,0.36397 z m 3.733712,-1.07278 c 0.385164,-0.11037 1.14116,-0.70284 1.68,-1.31653 2.45492,-2.79598 -0.0794,-7.38644 -3.702599,-6.70673 -1.317517,0.24718 -2.78846,1.4555 -3.312798,2.72137 -0.821382,1.98297 0.572122,4.81924 2.661638,5.41735 1.003714,0.28724 1.31534,0.27402 2.673759,-0.11565 z m -0.07415,-2.00939 c 0.118035,-0.30765 0.361361,-1.24358 0.540756,-2.07999 0.354144,-1.6512 0.694454,-1.88719 1.243144,-0.86196 0.66195,1.23685 -0.31279,3.50124 -1.507136,3.50124 -0.336265,0 -0.423632,-0.1765 -0.276775,-0.55929 z m -21.899735,1.35598 c 3.338177,-1.72622 0.960457,-7.19286 -2.550214,-5.86318 -1.486424,0.563 -2.256192,1.55354 -2.256192,2.90332 0,1.55044 0.40795,2.3365 1.528044,2.94437 1.127512,0.61186 2.116059,0.61655 3.278362,0.0151 z m -3.391404,-2.22992 c -0.438739,-0.66958 -0.475469,-0.98733 -0.187238,-1.61987 0.641046,-1.40693 1.181019,-0.86559 1.414171,1.41785 0.110022,1.07759 -0.578888,1.19105 -1.226914,0.20183 z m 12.525415,1.43762 6.100422,-0.004 -0.126803,-1.84003 c -0.06973,-1.012 0.0094,-2.19927 0.175672,-2.63841 0.287168,-0.75806 0.172724,-0.86774 -2.262731,-2.16907 l -2.565204,-1.37061 -3.829659,1.94362 c -2.106312,1.06897 -3.908205,1.86505 -4.004209,1.76905 -0.244044,-0.24416 -0.185537,-0.28951 3.275093,-2.55541 l 3.095448,-2.02662 -5.11048,-3.0934 c -2.810763,-1.70139 -6.364918,-3.9211 -7.898121,-4.932733 l -2.787639,-1.839383 -0.920164,0.920164 -0.920168,0.920164 1.029634,1.496318 c 1.245853,1.81054 4.408513,7.97094 4.408513,8.58716 0,0.30841 0.235805,0.38218 0.783005,0.24491 1.039445,-0.26079 2.796151,0.34545 3.657581,1.26236 1.075083,1.14437 1.336698,2.49642 0.817119,4.22283 -0.445607,1.48067 -0.443679,1.49008 0.266721,1.29967 0.39357,-0.10545 3.460766,-0.19389 6.815996,-0.19616 z m 7.860132,-6.71698 c 1.563126,-1.13231 3.157527,-1.49359 4.616096,-1.04594 1.062666,0.32617 1.064236,0.32504 1.908546,-1.40073 0.46478,-0.94995 1.69773,-3.02578 2.73992,-4.61292 1.0422,-1.58717 1.89488,-2.936237 1.89488,-2.997957 0,-0.06161 -0.40347,-0.279307 -0.8966,-0.483591 -0.82176,-0.340535 -1.09558,-0.240378 -3.28,1.197048 -1.31087,0.86264 -4.399391,2.73699 -6.863394,4.16519 -2.463999,1.42825 -4.683606,2.71597 -4.932461,2.86164 -0.340687,0.19956 0.01512,0.62989 1.44,1.74251 1.040855,0.81271 1.92971,1.48883 1.975234,1.50248 0.04554,0.0151 0.674525,-0.40381 1.397779,-0.92773 z m -2.014307,-5.58172 c 2.346433,-1.3454 5.730433,-3.17809 7.520001,-4.07266 1.789558,-0.894581 3.290368,-1.658613 3.335138,-1.697806 0.0447,-0.03931 -0.15375,-0.542627 -0.44111,-1.118703 -0.37724,-0.75617 -0.47302,-1.526816 -0.34451,-2.771943 0.0979,-0.94851 0.0655,-1.724561 -0.072,-1.724561 -0.1375,0 -3.605646,-2.013808 -7.706989,-4.475112 l -7.456989,-4.475149 -1.14988,0.710097 c -0.632436,0.390577 -3.0076,1.892939 -5.278144,3.338608 -2.270544,1.44567 -5.366544,3.247937 -6.879999,4.005015 l -2.751738,1.376541 v 1.280013 c 0,0.703975 -0.111458,1.584378 -0.24771,1.956397 -0.221329,0.604271 0.03742,0.813278 2.428501,1.960516 2.954291,1.417587 8.358497,4.484677 12.045782,6.836407 1.312607,0.83721 2.464607,1.47636 2.560002,1.42035 0.0954,-0.0559 2.093246,-1.20257 4.439683,-2.54801 z m -3.872972,-1.18786 c -0.290457,-0.16252 -0.680017,-0.83154 -0.865724,-1.48668 -0.470634,-1.66031 -1.60741,-8.655876 -1.607482,-9.892235 -3.8e-5,-0.561638 -0.122079,-1.096554 -0.271181,-1.188699 -0.149103,-0.09222 -1.469787,1.159332 -2.934815,2.781127 -1.465024,1.621758 -2.947479,3.151181 -3.294342,3.398665 -0.658877,0.470135 -2.863691,0.569612 -4.078586,0.184063 -0.684488,-0.217323 -0.680077,-0.188599 0.135685,0.880932 0.950744,1.246488 1.027604,1.525039 0.420786,1.525039 -0.598575,0 -3.097603,-2.201348 -3.097603,-2.728629 0,-0.916725 3.84101,-3.14196 4.416337,-2.558552 0.123023,0.124725 -0.352328,0.715276 -1.056337,1.312252 l -1.279997,1.085405 1.608797,0.0038 c 0.884841,0.0026 1.892841,-0.198048 2.239998,-0.446249 0.34715,-0.247937 1.927204,-2.041399 3.511204,-3.98521 2.805498,-3.442771 3.763358,-4.248415 4.351649,-3.660132 0.157985,0.157984 0.576012,2.36829 0.928974,4.911798 0.766617,5.524347 1.291,8.309515 1.561013,8.290925 0.109115,-0.008 0.88255,-1.01231 1.718774,-2.232871 1.963684,-2.86628 2.72117,-3.353499 5.21393,-3.353499 h 1.963971 l -0.646423,-0.876057 c -0.355541,-0.481814 -0.538485,-0.984 -0.40656,-1.115905 0.289852,-0.28989 2.452044,0.916459 2.891554,1.613215 0.441259,0.699553 -0.32126,2.002734 -1.653642,2.826218 -1.353948,0.836787 -1.686826,0.547426 -0.78051,-0.678426 0.383501,-0.518702 0.69727,-1.039256 0.69727,-1.1568 0,-0.407357 -3.167622,0.09298 -3.986809,0.629708 -0.452757,0.296692 -1.628197,1.749014 -2.612099,3.227487 -1.898105,2.85222 -2.24908,3.1578 -3.087821,2.68842 z M 69.531222,97.631955 c 1.209461,-1.209449 1.37517,-2.228448 0.604687,-3.718413 -0.600756,-1.161713 -1.380325,-1.593562 -2.876685,-1.593562 -1.496364,0 -2.27593,0.431849 -2.87669,1.593562 -1.227027,2.372825 0.264756,4.766249 2.988688,4.795087 0.80134,0.0076 1.346706,-0.263433 2.16,-1.076674 z m -4.458663,-1.045342 c -0.464693,-0.464655 -0.192907,-2.36708 0.426663,-2.986658 0.548009,-0.547994 1.599999,-0.889777 1.599999,-0.519799 0,0.236977 -1.59425,3.719811 -1.702628,3.719811 -0.06089,0 -0.206702,-0.096 -0.324019,-0.213165 z m 44.095531,1.140208 c 1.27026,-1.115301 1.46134,-2.240088 0.64782,-3.813279 -0.60807,-1.175849 -1.38459,-1.59549 -2.93565,-1.586457 -3.07009,0.0189 -4.34273,3.590211 -1.9856,5.573594 1.37023,1.152983 2.82988,1.093606 4.27343,-0.173858 z M 76.288761,89.333284 c 2.953753,-1.994684 6.282153,-4.172221 7.396441,-4.838967 l 2.025978,-1.212246 -2.623242,-1.425222 -2.623245,-1.425222 -0.944569,0.904176 c -0.830774,0.795251 -1.183793,0.903572 -2.930369,0.899112 l -1.98581,-0.0038 -0.949753,2.075187 c -0.835072,1.824567 -2.240829,4.130154 -3.837729,6.294236 -0.464613,0.629594 -0.447734,0.740372 0.23074,1.514192 0.402611,0.459213 0.763314,0.837506 0.801559,0.840681 0.03825,0.0032 2.486245,-1.626218 5.439999,-3.620901 z m 27.132309,2.983672 c 0.1098,-0.177638 0.6929,-0.576038 1.2958,-0.885354 l 1.09618,-0.562356 -1.13659,-1.594658 c -1.27545,-1.789455 -3.97724,-7.021833 -3.97724,-7.702451 0,-0.337889 -0.24661,-0.292535 -1.039996,0.191244 -1.889227,1.151887 -4.915616,0.589229 -6.30053,-1.171426 l -0.603121,-0.766753 -2.085317,1.527345 c -1.146924,0.840038 -2.095604,1.622324 -2.108175,1.738431 -0.01247,0.116032 1.052088,0.801033 2.365916,1.522092 2.547118,1.397933 9.296273,5.85823 10.891223,7.197619 1.07075,0.899187 1.31188,0.975382 1.60185,0.506192 z M 89.83704,80.867671 c 2.509743,-1.382097 2.7216,-1.574362 2.543131,-2.307704 -0.179414,-0.737234 -0.306368,-0.787464 -1.617819,-0.639987 -0.782721,0.08806 -3.251978,0.143622 -5.487235,0.123212 l -4.064104,-0.0378 -0.206362,0.939477 c -0.113499,0.516737 -0.156661,0.969865 -0.09589,1.00698 0.251755,0.153827 5.883432,2.409902 6.030452,2.41576 0.08799,0.0035 1.392019,-0.672075 2.897817,-1.501303 z M 79.616869,79.877624 c 1.351929,-1.351937 1.616738,-2.705877 0.855855,-4.375824 -0.342123,-0.750841 -0.524833,-0.829719 -1.591007,-0.686702 -2.3808,0.31937 -4.742495,2.646916 -4.742495,4.673991 0,0.927231 1.220523,1.630866 2.828848,1.630866 1.207087,0 1.582549,-0.176126 2.648799,-1.242331 z m 20.241222,0.577512 c 1.631019,-1.282961 1.682439,-1.819427 0.311399,-3.24892 -1.191878,-1.242709 -3.920202,-2.796737 -4.921274,-2.803124 -0.675242,-0.0038 -1.588992,1.641562 -1.588992,2.862122 0,1.358212 0.77972,2.776328 1.84402,3.35384 1.299311,0.704995 3.348264,0.627855 4.354847,-0.164032 z M 75.032846,74.929542 c 0.365216,-0.324661 1.213546,-0.786406 1.885195,-1.025953 l 1.22118,-0.435515 -1.05589,-0.01512 c -2.186147,-0.03024 -3.909408,1.517329 -3.897083,3.497159 l 0.0072,1.128794 0.58778,-1.280013 c 0.323263,-0.703974 0.886583,-1.545675 1.251787,-1.870412 z m 26.014324,0.482646 c -0.60883,-1.1376 -1.970202,-1.972989 -3.191102,-1.958174 l -1.156846,0.01512 1.255068,0.447156 c 0.690293,0.246047 1.690908,0.883011 2.22359,1.415697 1.0565,1.056491 1.40885,1.089411 0.86929,0.08126 z M 3.0326724,118.92389 C 1.2588192,118.65252 0.75528408,118.29093 1.7789956,118.02319 2.356171,117.87238 2.4630901,117.68908 2.2849458,117.1559 2.1607127,116.78399 2.0029175,110.08089 1.9342812,102.25976 1.8289458,90.257038 1.7354025,87.957725 1.3343531,87.514575 0.59553479,86.698197 0.73005195,84.287879 1.5859184,83.0073 2.4280312,81.747243 2.6249483,81.641 13.077829,76.808081 c 8.755729,-4.048215 10.001926,-4.481046 12.098098,-4.201852 1.228871,0.163653 8.096798,3.291477 18.554305,8.450003 3.215482,1.586154 3.049005,0.495042 3.049005,19.983498 0,15.86256 0.03364,16.87982 0.560002,16.88001 0.803081,3e-4 0.691268,0.53038 -0.159988,0.75851 -1.106177,0.29632 -8.663406,0.22791 -9.154163,-0.0832 -0.599686,-0.37999 -0.133304,-0.59901 1.83007,-0.85946 1.38209,-0.18331 1.639412,-0.31408 1.454559,-0.7392 -0.346318,-0.79635 -0.537472,-24.159194 -0.223295,-27.288 l 0.278325,-2.771566 -7.745016,-3.943105 C 23.354867,77.767778 24.641195,77.775564 14.691755,82.879249 9.416423,85.58524 7.2937118,86.828326 7.4138327,87.141347 7.7994466,88.146248 8.2438435,105.10971 8.0413439,111.09478 l -0.2183811,6.45468 1.4820851,0.22224 c 1.5682471,0.23508 2.1026571,0.60158 1.3170971,0.90304 -0.8280754,0.31786 -6.0250808,0.48847 -7.589431,0.24945 z m 4.2265512,-1.83122 c 0,-0.31484 -0.3898696,-0.45272 -1.2800013,-0.45272 -0.9011451,0 -1.2799974,-0.13644 -1.2799974,-0.4611 0,-0.57781 0.3565228,-0.80258 1.4114116,-0.88989 0.7018205,-0.0582 0.8285858,-0.22299 0.8285858,-1.07788 0,-0.92765 -0.102085,-1.02565 -1.2616365,-1.21107 -2.195486,-0.35112 -1.9796069,-1.61798 0.237241,-1.39235 1.0040881,0.10205 1.0509505,0.0597 0.96,-0.87012 -0.083074,-0.84922 -0.2347087,-0.99095 -1.1548989,-1.07928 -1.3344605,-0.12813 -1.317309,-1.12498 0.021921,-1.27956 0.7858129,-0.0907 0.8772662,-0.22904 0.8772662,-1.32529 0,-1.0478 -0.1184882,-1.25378 -0.8227352,-1.43055 -0.9482041,-0.23811 -0.8909329,-0.84057 0.1234394,-1.29876 0.5549632,-0.25058 0.6992995,-0.58828 0.6992995,-1.63563 0,-1.19656 -0.067313,-1.30688 -0.7208466,-1.18197 -0.3964686,0.076 -1.1524686,-0.0265 -1.68,-0.22828 -0.9218154,-0.35188 -0.9349719,-0.38381 -0.3380031,-0.82216 0.3416315,-0.25097 1.097639,-0.45608 1.68,-0.45608 1.020582,0 1.0588384,-0.04573 1.0588384,-1.269959 0,-0.998249 -0.1028409,-1.230501 -0.4807181,-1.085518 -0.7366186,0.282708 -2.0792844,-0.159496 -2.0792844,-0.684548 0,-0.525166 1.3426658,-0.967219 2.0792844,-0.684548 0.3717543,0.142866 0.4807181,-0.07181 0.4807181,-0.947037 0,-0.985927 -0.082356,-1.105398 -0.6400025,-0.928403 -0.8551975,0.27137 -1.92,-0.09335 -1.92,-0.657789 0,-0.283086 0.4833108,-0.53193 1.2800012,-0.659338 1.1998186,-0.192 1.2800013,-0.272126 1.2800013,-1.283792 0,-1.019906 -0.061417,-1.079093 -1.1200025,-1.079093 -0.7439887,0 -1.1199988,-0.14967 -1.1199988,-0.445758 0,-0.482834 0.6702501,-0.834217 1.5911622,-0.834217 0.4253141,0 0.6141506,-0.30274 0.7120441,-1.141191 C 6.828845,87.04357 6.9538718,87.06107 4.4378516,87.984333 3.678159,88.263262 2.8994743,88.394185 2.7074441,88.275356 2.4682756,88.127577 2.4372835,88.301816 2.6090251,88.829624 2.74694,89.253158 2.9277526,95.935665 3.0108115,103.67965 l 0.15103,14.08003 2.0486211,-0.10734 c 1.502177,-0.0786 2.0486211,-0.22791 2.0486211,-0.55998 z m 38.7200014,-0.13266 c 0,-0.45521 -0.213317,-0.63999 -0.738841,-0.63999 -0.40636,0 -1.01836,-0.20523 -1.359999,-0.45612 -0.600057,-0.44058 -0.591352,-0.46749 0.256063,-0.79101 0.482472,-0.18407 1.117618,-0.24265 1.411438,-0.13002 0.437023,0.16781 0.496543,0.0643 0.327156,-0.56897 -0.113877,-0.42569 -0.209045,-0.95399 -0.211427,-1.17396 -0.0026,-0.24 -0.436195,-0.40002 -1.085189,-0.40002 -1.249202,0 -2.212732,-0.82137 -1.351291,-1.15197 0.285997,-0.1096 0.950196,-0.13644 1.476038,-0.0593 l 0.956073,0.14022 v -1.70729 c 0,-1.61998 -0.0325,-1.68711 -0.632012,-1.31259 -0.773212,0.48291 -1.48489,-0.0544 -1.167496,-0.88169 0.148611,-0.38729 0.426013,-0.48012 1.002489,-0.33562 0.732,0.18368 0.797019,0.11149 0.797019,-0.88513 0,-1.01601 -0.08047,-1.09807 -1.26164,-1.28697 -2.126219,-0.34016 -2.018283,-1.46411 0.141657,-1.47515 0.923716,-0.004 0.96,-0.0593 0.96,-1.44487 v -1.44 h -1.223464 c -0.992579,0 -1.203299,-0.10583 -1.116604,-0.56002 0.06535,-0.34242 0.571642,-0.675133 1.303464,-0.856437 1.082657,-0.268347 1.196602,-0.39772 1.196602,-1.359988 0,-0.958374 -0.09109,-1.063559 -0.920821,-1.063559 -1.126707,0 -1.996876,-0.842834 -1.189882,-1.152529 0.286753,-0.109984 0.878974,-0.131905 1.316039,-0.048 0.766291,0.146646 0.794664,0.09071 0.794664,-1.563704 0,-1.70109 -0.0083,-1.715641 -0.981036,-1.715641 -1.16436,0 -2.313865,-0.54754 -2.049041,-0.976063 0.103332,-0.167055 0.89935,-0.303874 1.768962,-0.303874 1.192105,0 1.581117,-0.117921 1.581117,-0.48 0,-0.31559 -0.315666,-0.48 -0.920822,-0.48 -1.042881,0 -2.019469,-0.845404 -1.27522,-1.103886 0.239811,-0.08315 0.895646,-0.193134 1.457386,-0.24378 0.932058,-0.08428 0.834142,-0.163275 -1.119999,-0.903042 L 41.97926,87.338298 v 15.130622 15.13062 l 2.000001,7e-5 c 1.786693,8e-5 2.000002,-0.068 2.000002,-0.63991 z M 45.834696,84.449945 C 45.446274,82.379482 43.378199,81.1401 31.899219,76.098474 27.106063,73.993277 26.853103,73.92037 24.379221,73.931029 l -2.560002,0.01134 -9.279999,4.513966 c -9.8831359,4.807294 -10.5115693,5.251804 -10.3265501,7.303974 0.064176,0.711648 0.2685354,0.98589 0.7900422,1.060082 1.0039521,0.142866 2.1877758,-0.536806 1.7308611,-0.993713 -0.4191156,-0.41915 -0.4750564,-1.506369 -0.077518,-1.506369 0.1522772,0 0.6361172,0.282709 1.0752302,0.628007 0.6770041,0.532535 0.8855433,0.564283 1.3716322,0.209008 0.39888,-0.29178 0.4611628,-0.488429 0.2047748,-0.646904 -0.3674457,-0.22715 -0.5311219,-1.789947 -0.1874268,-1.789947 0.5180636,0 1.4189631,0.72344 1.4189631,1.139452 0,0.417147 0.1217008,0.414047 0.9704618,-0.02646 0.5337525,-0.275905 0.9032545,-0.610582 0.8211135,-0.74347 -0.08213,-0.13304 -0.0257,-0.441525 0.12514,-0.685796 0.217512,-0.351874 0.371755,-0.36359 0.74307,-0.05518 0.665613,0.552378 2.255638,-0.170456 1.95142,-0.887055 -0.11743,-0.276661 -0.283805,-0.826998 -0.369676,-1.222979 -0.218608,-1.008038 0.661882,-0.944051 1.424995,0.103559 0.541837,0.743811 0.682587,0.785877 1.453641,0.43457 0.686959,-0.312945 0.793761,-0.501014 0.546769,-0.962533 -0.468046,-0.874544 -0.37115,-1.895584 0.179905,-1.895584 0.26778,0 0.650888,0.359811 0.851365,0.799975 0.413987,0.908598 0.554782,0.944391 1.686717,0.428636 0.594856,-0.270992 0.815058,-0.616857 0.815058,-1.280012 0,-0.980939 0.73262,-1.258092 1.185669,-0.448555 0.37644,0.672643 2.942313,0.300851 2.892978,-0.419149 -0.06784,-0.989972 0.426218,-2.325959 0.813154,-2.198892 0.213506,0.0703 0.433822,0.692334 0.489585,1.382703 0.116448,1.441738 0.220044,1.577574 1.418616,1.860056 0.741316,0.174615 0.879998,0.103937 0.879998,-0.448743 0,-0.737877 0.839263,-1.204762 1.313401,-0.73062 0.199786,0.199937 0.200467,0.59947 0.0019,1.121763 -0.262337,0.689991 -0.200919,0.86041 0.410457,1.138999 0.631007,0.287622 0.761753,0.214299 1.068809,-0.59932 0.192416,-0.509783 0.510882,-0.926853 0.707694,-0.926853 0.569582,0 0.773302,0.931842 0.388403,1.776604 -0.318992,0.700158 -0.255156,0.826659 0.65455,1.297096 0.986143,0.509972 1.021285,0.503093 1.618106,-0.316346 0.771481,-1.059099 1.655048,-1.131439 1.435151,-0.117543 -0.08587,0.395981 -0.24669,0.936 -0.357316,1.2 -0.1392,0.33222 0.193134,0.70473 1.078847,1.209562 1.187871,0.677027 1.280005,0.687382 1.280005,0.144 0,-0.682205 0.587274,-1.353562 1.184001,-1.353562 0.478708,0 0.548247,1.215382 0.109266,1.909493 -0.218872,0.346204 -0.07034,0.618973 0.5649,1.037896 1.166487,0.769285 1.263375,0.739842 1.801221,-0.547389 0.627594,-1.50206 1.618235,-1.559887 1.369719,-0.08013 -0.09604,0.571993 -0.267174,1.273436 -0.380262,1.558715 -0.375231,0.946544 0.730228,0.975571 1.182921,0.03024 0.54915,-1.145764 1.683893,-1.412561 1.452782,-0.34167 -0.08924,0.413519 -0.268309,1.004221 -0.397969,1.312744 -0.182967,0.435326 0.0049,0.662589 0.838847,1.015105 l 1.074588,0.454224 0.103256,-1.161033 c 0.05677,-0.638589 0.01739,-1.619263 -0.08776,-2.179276 z M 21.979221,116.33941 c -4.152529,-0.77129 -6.562896,-2.06914 -7.533082,-4.05627 -0.540234,-1.10645 -0.620651,-2.20966 -0.731437,-10.03419 -0.112743,-7.961273 -0.07075,-8.89081 0.444484,-9.847597 1.22866,-2.281474 4.394192,-3.281348 10.388492,-3.281348 4.712399,0 7.209884,0.395263 9.350215,1.479874 1.992703,1.009776 2.822419,2.338961 2.771675,4.440113 -0.02116,0.880026 0.07007,4.917166 0.202961,8.971468 0.26759,8.16533 0.127521,9.16928 -1.466521,10.51056 -0.55316,0.46545 -1.874657,1.00116 -3.258641,1.32098 -2.693193,0.62234 -8.075422,0.88509 -10.168127,0.49641 z m 10.512722,-2.02984 c 2.466667,-0.68092 3.027696,-1.37019 3.190004,-3.91922 l 0.133909,-2.10308 -1.214585,0.82424 c -4.454151,3.02268 -13.730657,2.94936 -17.9985,-0.14211 -0.735908,-0.5331 -1.408505,-0.96926 -1.494663,-0.96926 -0.08617,0 -0.06883,0.68402 0.03848,1.52002 0.377839,2.94323 1.766381,4.21791 5.552621,5.09733 2.255527,0.52384 9.461367,0.336 11.792723,-0.30765 z m -8.477446,-4.94955 c 0.574567,0.73916 1.051147,0.70885 1.257441,-0.0801 0.09207,-0.35187 0.410328,-0.63999 0.707282,-0.63999 0.296957,0 0.615228,0.288 0.707278,0.63999 0.122835,0.46976 0.434086,0.6387 1.170043,0.63511 1.230539,-0.008 1.692307,-0.28346 1.849335,-1.11144 0.172157,-0.90754 1.233343,-1.04943 1.233343,-0.16479 0,0.91295 1.381659,0.77118 1.547792,-0.15874 0.191093,-1.06964 0.685829,-1.34699 1.188378,-0.66618 0.373795,0.50638 0.585501,0.55347 1.209603,0.2691 0.663708,-0.30236 0.780541,-0.63122 0.95232,-2.68017 0.107679,-1.28455 0.147818,-2.38349 0.0892,-2.44215 -0.05866,-0.0586 -0.60384,0.18671 -1.211554,0.54532 -1.796632,1.06004 -5.815933,1.93462 -8.866911,1.92937 -3.250152,-0.004 -5.952178,-0.58768 -8.870672,-1.91101 -1.169666,-0.53034 -2.142747,-0.96453 -2.1624,-0.96487 -0.01965,-3e-4 0.01436,0.89234 0.07589,1.98372 0.0847,1.50516 0.187502,1.84872 0.425831,1.42284 0.453816,-0.81093 1.222534,-0.0797 1.222534,1.16281 0,0.93676 0.02116,0.95112 0.614532,0.41428 0.585298,-0.52971 0.630433,-0.52646 0.948741,0.0684 0.183798,0.34356 0.243288,0.71539 0.132132,0.82655 -0.111156,0.11112 -0.06289,0.2022 0.107263,0.2022 0.170117,0 0.469584,-0.16025 0.66545,-0.35603 0.426936,-0.42693 1.051884,-0.10923 1.051884,0.53503 0,0.25361 0.144,0.46111 0.320013,0.46111 0.176013,0 0.320013,-0.144 0.320013,-0.32013 0,-0.54966 0.791701,-0.35036 1.391561,0.34998 0.554223,0.64732 0.589399,0.65004 1.031116,0.0801 0.434271,-0.56039 0.479267,-0.5619 0.892599,-0.0302 z m 5.004722,-5.52953 c 1.32,-0.17045 3.444,-0.61889 4.720002,-0.99673 l 2.319999,-0.68701 v -2.644232 -2.644233 l -2.335714,1.208693 c -4.991751,2.583122 -13.259429,2.546452 -17.95101,-0.07975 l -1.313276,-0.735118 0.106356,2.176706 c 0.122381,2.504274 0.03515,2.421734 3.620148,3.422624 4.405762,1.23001 7.041997,1.4682 10.833479,0.97886 z m 2.966898,-5.481408 c 2.072659,-0.44126 3.753102,-2.015395 3.753102,-3.515679 0,-2.946368 -3.472362,-4.433385 -10.352561,-4.433385 -5.561911,0 -9.013788,0.994771 -10.087075,2.906985 -0.559612,0.997002 -0.295748,2.270136 0.653813,3.15481 0.834017,0.776995 4.24512,1.947817 6.656874,2.284876 2.060708,0.288 7.174137,0.07106 9.375847,-0.397607 z M 14.619219,48.446997 C 10.30722,48.307533 6.1773527,48.106462 5.4417395,48.000333 2.6155486,47.592937 1.873926,46.058298 1.7172532,40.293347 1.642532,37.544081 1.5264627,36.935577 0.93280093,36.180881 -0.4614819,34.40832 -0.27905545,31.901586 1.3884343,29.919866 l 0.7942186,-0.943861 -0.3537638,-4.248 C 1.281708,18.157107 0.92250172,7.2029594 1.1896576,5.2342753 1.5354466,2.6860346 2.1915046,1.6287685 3.9704753,0.75277228 L 5.4992035,0 22.779203,0.01965354 c 18.698287,0.02116536 19.7671,0.10329449 22.303106,1.71157796 2.206802,1.3995137 2.656346,2.6213329 2.659654,7.228766 0.0016,2.3437685 0.148913,4.0962595 0.377877,4.4976455 0.36446,0.638929 0.57936,10.068737 0.57936,25.422349 0,9.949229 0.04777,9.921487 -16.959999,9.856366 C 26.635202,48.71746 18.931202,48.586689 14.6192,48.446846 Z M 7.6813023,46.220062 c -0.2688755,-0.538999 -0.4267804,-1.402999 -0.3508913,-1.92 0.075893,-0.51704 0.1026898,-0.940044 0.059565,-0.940044 -0.043124,0 -0.3019087,-0.0858 -0.5750816,-0.190489 -0.3686929,-0.141354 -0.7052599,0.281197 -1.3061745,1.639824 -0.4452208,1.006715 -0.8094917,1.87491 -0.8094917,1.929336 0,0.119811 1.4407749,0.347716 2.6154709,0.41348 0.8497965,0.04762 0.8522306,0.04158 0.3666142,-0.931994 z m 3.4179177,0.80005 c 0,-0.09902 -0.232592,-0.89091 -0.516835,-1.759975 -0.459462,-1.404737 -0.6184294,-1.580145 -1.4320786,-1.580145 -0.8502311,0 -0.8930796,0.05821 -0.6031672,0.820838 0.1716283,0.451465 0.3120756,1.243465 0.3120756,1.760013 0,0.859994 0.094413,0.939175 1.1200025,0.939175 0.6159987,0 1.1199987,-0.08088 1.1200027,-0.179906 z m 4.388961,-1.42012 -0.67598,-1.599987 h -1.691316 -1.691312 l 0.451465,1.040013 c 0.248315,0.571993 0.529455,1.291993 0.624778,1.599987 0.137273,0.443565 0.535654,0.560013 1.915832,0.560013 h 1.742513 z m 5.045688,1.040013 C 20.405252,46.331974 20.204521,45.647992 20.087802,45.119992 19.885333,44.204251 19.790504,44.15557 18.030654,44.063539 l -1.844901,-0.09638 0.496732,0.960605 c 0.273222,0.528302 0.496736,1.25571 0.496736,1.616466 0,0.583181 0.198841,0.655899 1.794236,0.655899 1.584537,0 1.766907,-0.06539 1.560412,-0.560013 z m 3.202352,-0.96 c -0.362381,-1.434217 -0.449907,-1.525606 -1.550532,-1.619339 -1.333765,-0.113385 -1.327782,-0.123212 -0.688441,1.102753 0.262904,0.504114 0.478915,1.168592 0.48,1.476586 0.0016,0.421342 0.267024,0.560013 1.072502,0.560013 h 1.070532 z m 4.197706,0.106205 c -0.326513,-1.407345 -0.33479,-1.414073 -1.865087,-1.520013 -1.270866,-0.08806 -1.500306,-0.02268 -1.324607,0.373417 0.116901,0.264189 0.278324,0.948019 0.358752,1.520013 0.141355,1.005317 0.19646,1.040013 1.65258,1.040013 h 1.506327 z m 4.008155,-0.02646 c -0.492571,-1.369814 -0.578264,-1.44 -1.757662,-1.44 -1.129602,0 -1.222688,0.06387 -1.046895,0.72 0.106129,0.395981 0.194911,1.043981 0.197329,1.44 0.0038,0.647622 0.161197,0.72 1.56471,0.72 h 1.560344 z m 3.55279,0 c -0.478227,-1.290331 -0.638819,-1.44 -1.545018,-1.44 h -1.011318 l 0.517818,1.44 c 0.467501,1.300044 0.617646,1.44 1.545021,1.44 h 1.0272 z m 3.952932,0 c -0.332258,-1.432139 -0.341631,-1.44 -1.712598,-1.44 -1.263727,0 -1.350924,0.0514 -1.047243,0.618936 0.182173,0.340535 0.331238,0.988422 0.331238,1.44 0,0.754582 0.111798,0.821064 1.381342,0.821064 h 1.381338 z m 2.715897,-0.155716 c -0.367937,-1.163868 -0.666864,-1.596889 -1.10448,-1.600026 -0.501823,-0.0036 -0.567277,0.159496 -0.400002,0.995717 0.109984,0.549997 0.200012,1.269997 0.200012,1.600025 0,0.445115 0.233424,0.6 0.904483,0.6 h 0.904482 z m 4.156124,0.450859 c 0.23811,-0.286866 0.254589,-0.455168 0.04456,-0.455168 -0.183231,0 -0.792102,-0.486539 -1.352999,-1.08121 -0.681116,-0.722078 -1.221139,-1.028522 -1.625998,-0.922658 -0.731286,0.191244 -0.735186,0.01512 0.03364,1.523868 0.351987,0.690444 0.640002,1.433386 0.640002,1.651011 0,0.500825 1.696812,-0.03779 2.260604,-0.715843 z M 5.190571,42.707444 C 5.5482277,42.312219 5.6252356,41.962386 5.4309868,41.615312 5.1822183,41.170764 5.0469074,41.20924 4.3864312,41.912383 3.9691071,42.356591 3.4367644,42.72003 3.2034428,42.72003 c -0.5212913,0 -0.547423,1.151093 -0.058016,2.555036 l 0.3662362,1.050558 0.5763402,-1.51835 c 0.3169889,-0.835048 0.8131426,-1.779968 1.10256,-2.099754 z M 47.25923,43.35998 c 0,-1.203213 -0.05647,-1.280013 -0.941114,-1.280013 -1.377959,0 -1.464034,0.499276 -0.272844,1.58264 0.579678,0.527244 1.089963,0.962796 1.133964,0.967974 0.04399,0.0038 0.08001,-0.566626 0.08001,-1.270601 z m -4.718706,-0.973077 c 2.116119,-0.587301 2.14357,-0.716788 2.481433,-11.705197 0.167093,-5.434961 0.30686,-10.133745 0.310564,-10.441739 0.0053,-0.432982 -0.265436,-0.562582 -1.19328,-0.571351 -0.66,-0.0076 -1.56,-0.217323 -1.999997,-0.468661 -0.440001,-0.251339 -0.890699,-0.462426 -1.001552,-0.468662 -0.110854,-0.0076 -0.822547,0.816681 -1.581536,1.828687 -0.758986,1.011968 -2.236781,2.737549 -3.283982,3.834595 l -1.904006,1.99457 0.525536,1.376126 c 0.289059,0.756851 0.52554,1.817991 0.52554,2.358085 0,1.467364 -1.23642,3.078388 -2.773735,3.614098 -3.450153,1.202268 -6.844441,-2.534438 -5.473187,-6.025323 l 0.47266,-1.203288 -1.429092,-0.758098 C 25.429888,25.33375 24.119099,24.395633 23.30302,23.665996 l -1.483779,-1.326615 -0.96,0.588624 c -1.170357,0.717581 -3.669452,0.779339 -4.940413,0.122079 l -0.908629,-0.469871 -2.355481,2.94119 c -1.295512,1.617638 -2.7967064,3.236674 -3.3359845,3.597884 l -0.9805115,0.656731 0.7363918,1.591974 c 0.8533531,1.844826 0.9402222,3.325531 0.27103,4.619604 -0.5820737,1.125618 -1.9675578,2.252371 -2.7695471,2.252371 -0.4918073,0 -0.5968479,0.247181 -0.5968479,1.404548 0,2.361714 0.6312302,2.820775 4.1872852,3.045279 4.943702,0.312189 31.037908,0.06803 32.374009,-0.30274 z m -7.834058,-7.207975 c 1.266123,-1.155553 2.770092,-2.883553 3.342165,-3.84 1.103323,-1.844636 1.530599,-2.148548 1.530599,-1.088693 0,1.964258 -1.953925,4.74909 -4.260106,6.071735 -2.91253,1.6704 -3.169652,1.190703 -0.612658,-1.143042 z m -9.074184,0.488957 c -2.061234,-1.026935 -3.686536,-4.102828 -3.058715,-5.788686 0.259464,-0.696718 0.361361,-0.588019 1.237542,1.320756 0.525135,1.144025 1.564006,2.675981 2.308596,3.404334 1.549958,1.516233 1.340133,1.974085 -0.487423,1.063596 z M 5.3287354,38.978563 c 0.00907,-0.334111 -2.8453266,-1.409235 -3.1432025,-1.1839 -0.062551,0.04724 -0.012472,0.956826 0.1108913,2.021103 l 0.2245796,1.935118 1.3986141,-1.195465 c 0.7692359,-0.657486 1.4033348,-1.367093 1.4091062,-1.576856 z m 42.0488016,1.101392 c 0.318916,-1.19006 0.231874,-1.519975 -0.400986,-1.519975 -0.556115,0 -0.98146,0.788183 -0.992953,1.839987 -0.0079,0.712668 1.190936,0.437518 1.393939,-0.320126 z m 0.139502,-4.137336 c 0.08723,-1.04553 0.02684,-1.153474 -0.560001,-1.000025 -0.889792,0.232819 -0.984828,2.446261 -0.09781,2.278186 0.388618,-0.0737 0.589931,-0.464806 0.657807,-1.278161 z M 7.6850554,36.305454 C 8.6452557,35.550153 9.2310107,33.778877 8.9632765,32.440244 8.8615316,31.931482 8.2874781,31.084301 7.6876179,30.557624 5.1326384,28.314323 1.4992312,30.065945 1.4992312,33.540956 c 0,1.201588 0.966633,2.670047 2.044199,3.105411 1.2692788,0.512844 3.265081,0.348473 4.1416252,-0.340913 z M 47.285403,33.440005 c 0.161613,0 0.293821,-0.499351 0.293821,-1.109707 0,-1.002066 -0.0669,-1.084913 -0.690014,-0.854438 -0.497707,0.184063 -0.698369,0.538999 -0.72,1.273285 -0.02116,0.72412 0.09302,0.970772 0.396186,0.8544 0.234406,-0.08995 0.558395,-0.163653 0.72,-0.163653 z M 33.673775,31.694544 c 1.200438,-1.200416 1.175414,-3.792189 -0.04724,-4.892259 -2.331829,-2.098053 -5.242934,-0.665121 -5.246106,2.582325 -0.0026,2.681688 3.425594,4.177701 5.29335,2.309934 z m 13.611628,-1.774526 c 0.161613,0 0.293821,-0.519421 0.293821,-1.154268 0,-0.921033 -0.102274,-1.114999 -0.506174,-0.96 -0.2784,0.106961 -0.638392,0.194268 -0.800001,0.194268 -0.161612,0 -0.29382,0.519382 -0.29382,1.15423 0,0.921033 0.102274,1.114998 0.506169,0.96 0.2784,-0.106961 0.638396,-0.194268 0.800001,-0.194268 z M 10.273291,26.241479 c 1.344159,-1.671194 2.793517,-3.267553 3.220792,-3.54754 l 0.776871,-0.509027 -0.625863,-1.167723 c -0.811359,-1.513814 -0.789687,-2.482091 0.09415,-4.205707 1.235852,-2.410129 4.29366,-3.316838 6.548761,-1.941808 1.953675,1.191194 3.0783,4.456895 2.211768,6.422552 -0.158551,0.359811 0.151521,0.672642 1.151236,1.162015 0.752527,0.368504 2.05505,1.277594 2.894491,2.02046 1.432596,1.267805 1.570345,1.321814 2.244696,0.879988 1.318204,-0.863736 2.534328,-0.937323 3.907256,-0.236599 0.750187,0.38298 1.323266,0.517342 1.387287,0.325417 0.251906,-0.755678 2.957155,-4.129511 4.599526,-5.736226 l 1.771178,-1.732725 -0.638113,-1.081512 c -1.587186,-2.690078 0.591825,-6.750296 3.709323,-6.911701 l 1.184802,-0.061342 -0.207004,-1.44 C 44.215614,6.4708876 43.886383,5.9757128 42.695352,5.759142 42.12549,5.6555074 34.171244,5.5413279 25.019243,5.5053846 7.1341364,5.4351231 7.1630006,5.4327043 6.0759783,7.0915956 5.4642844,8.025086 5.4646775,8.0116195 5.6094296,23.119098 l 0.049814,5.19908 1.0399974,0.454791 c 0.5720013,0.250205 1.0602823,0.466582 1.0850684,0.480945 0.024945,0.01512 1.144834,-1.341241 2.4889926,-3.012435 z m -0.230022,-8.044082 c -0.3342237,-0.33411 0.08462,-2.322708 0.781175,-3.70851 1.353891,-2.693518 4.683383,-5.2185374 6.576703,-4.9876045 0.72135,0.087987 0.594044,0.2375811 -1.171109,1.3760355 -2.281995,1.471827 -3.691506,3.072079 -5.018026,5.697188 -0.515418,1.019981 -1.04135,1.750261 -1.168743,1.622891 z M 4.5524167,28.319992 c 0.6484271,0 0.8082973,-0.122456 0.6610356,-0.506154 -0.1068473,-0.278551 -0.19423,-0.7104 -0.19423,-0.96 0,-0.249449 -0.2974488,-0.453846 -0.6610355,-0.453846 -0.3635906,0 -0.9395717,-0.148913 -1.2800013,-0.331086 -0.5741216,-0.307276 -0.6189619,-0.213921 -0.6189619,1.291238 0,1.50497 0.044825,1.598513 0.6189619,1.291275 0.340422,-0.182173 1.003835,-0.331086 1.4742387,-0.331086 z M 46.993336,26.320018 c 0.273033,-0.219969 0.590204,-0.668032 0.704792,-0.995641 0.159193,-0.455131 0.0881,-0.549506 -0.301456,-0.399988 -0.280403,0.107717 -0.714024,0.19578 -0.963628,0.19578 -0.270765,0 -0.453827,0.322771 -0.453827,0.799975 0,0.88936 0.273109,0.997077 1.014119,0.400025 z m -42.092428,-1.92 C 4.7947789,24.003999 4.7059978,23.283999 4.7035789,22.799992 c -0.0035,-0.703634 -0.1518614,-0.879987 -0.7403717,-0.879987 -0.4047987,0 -0.9087987,-0.172724 -1.1199987,-0.384 -0.2986583,-0.298583 -0.384,-0.02268 -0.384,1.233713 0,1.543333 0.047811,1.633021 1.0400012,1.951333 1.5244536,0.489033 1.6133254,0.468661 1.4016908,-0.320882 z m 42.998309,-2.158942 c 0,-0.906444 -0.0057,-0.90909 -0.96,-0.433096 -0.730095,0.364346 -0.96,0.697323 -0.96,1.390942 0,0.906444 0.0057,0.909089 0.96,0.433133 0.730092,-0.364346 0.96,-0.69736 0.96,-1.390979 z M 20.385621,21.756692 c 1.21073,-0.626079 1.593596,-1.383459 1.593596,-3.152429 0,-1.630186 -0.803342,-2.514217 -2.780904,-3.060245 -2.332184,-0.643956 -4.579098,0.995527 -4.579098,3.34114 0,2.555716 3.248674,4.173505 5.766406,2.871534 z M 4.4647392,19.600018 C 4.2598888,17.995041 4.4115612,18.216181 3.3392148,17.958909 2.5147675,17.76124 2.4596545,17.813775 2.4661401,18.79392 c 0.00567,0.855496 0.1951371,1.140208 1.0400013,1.562797 0.5681915,0.28422 1.0553726,0.536164 1.082623,0.559975 0.027213,0.02268 -0.028724,-0.568706 -0.1240063,-1.316674 z M 47.899217,18.945517 v -0.914192 l -0.942296,0.74434 c -0.518261,0.409398 -0.950261,0.983811 -0.96,1.276535 -0.01512,0.459326 0.113763,0.48257 0.942296,0.169701 0.758079,-0.28611 0.96,-0.554646 0.96,-1.276535 z m -1.054768,-1.647005 c 1.548019,-1.79966 1.220009,-4.428661 -0.700656,-5.615698 -1.588698,-0.981853 -2.909665,-0.841727 -4.196576,0.445191 -0.8891,0.889096 -1.088001,1.331679 -1.088001,2.421052 0,1.664277 0.401099,2.429669 1.700421,3.244876 1.373095,0.861467 3.310329,0.637493 4.284812,-0.495421 z M 4.379216,15.063451 c 0,-1.609777 -0.07011,-1.77154 -0.96,-2.215484 l -0.96,-0.478904 v 2.033197 c 0,2.143937 -0.077745,2.035011 1.68,2.354154 0.1320189,0.02268 0.24,-0.737877 0.24,-1.692963 z M 3.9816475,7.56 C 3.8043121,7.4940094 3.3892142,7.1700019 3.059216,6.84 c -0.5866658,-0.5866658 -0.6,-0.5531376 -0.6,1.508708 0,1.79994 0.1054111,2.194462 0.72,2.69438 l 0.72,0.585679 0.2024315,-1.9743872 C 4.2268633,8.4331427 4.1810932,7.6342261 3.9816475,7.56 Z m 43.2775675,2.680003 c 0,-1.0666701 -0.05333,-1.120003 -1.119999,-1.120003 -1.416272,0 -1.445303,0.574458 -0.07582,1.500113 0.569692,0.385062 1.071806,0.709051 1.115807,0.720012 0.04399,0.01134 0.08001,-0.484124 0.08001,-1.100122 z M 47.124626,7.2800957 C 46.976657,6.8139515 46.708345,6.7047269 45.975408,6.8122998 44.686713,7.0014274 44.745976,7.7723906 46.0592,7.9024592 47.348725,8.0301694 47.360506,8.0232907 47.124626,7.2800957 Z M 5.4063518,3.7600025 C 5.5593849,1.4704668 5.3066479,1.2901946 3.7637578,2.5884472 2.5540255,3.6063723 2.5370101,4.0506633 3.6541515,5.450725 4.7888488,6.8727987 5.2265143,6.4504894 5.4063518,3.7600025 Z M 46.419676,4.5635603 45.91879,3.5949581 45.109548,4.4042041 c -1.00972,1.0097197 -0.782203,1.4306986 0.680908,1.2598866 l 1.130102,-0.1319433 z m -3.000473,-0.034016 c 0,-0.2367118 0.288,-0.6910413 0.640003,-1.009595 0.351987,-0.3185386 0.639999,-0.6867893 0.639999,-0.8182942 0,-0.397576 -2.059128,-1.0043338 -2.179797,-0.6423118 -0.05858,0.1757481 -0.445928,0.8196926 -0.860769,1.4309972 l -0.754258,1.111457 0.857413,0.1311118 c 1.570359,0.2401512 1.657409,0.2294929 1.657409,-0.2033764 z M 8.0126195,4.319932 c 0.2095748,0 0.5314167,-0.648 0.7151698,-1.44 l 0.3341102,-1.44 H 8.000559 c -0.9434305,0 -1.0618242,0.097776 -1.0657096,0.8800025 -0.0024,0.4839987 -0.09755,1.228286 -0.2114267,1.6539742 C 6.5511896,4.6176567 6.610188,4.7118803 7.0739738,4.5339061 7.3806447,4.4162117 7.8030636,4.3199471 8.0126535,4.3199471 Z M 40.318453,3.0399345 41.148562,1.439932 h -1.541205 c -1.520262,0 -1.548317,0.01852 -2.064676,1.3706986 -0.700388,1.8339363 -0.702187,1.8293026 0.711091,1.8293026 1.157469,0 1.286412,-0.099931 2.064681,-1.5999987 z M 31.612447,2.9067061 32.120646,1.4934652 30.409488,1.3866935 c -1.245381,-0.077707 -1.711038,0.00643 -1.71072,0.3091276 2.41e-4,0.228737 -0.214602,0.8316888 -0.477381,1.3398879 -0.475986,0.9204586 -0.473843,0.9244913 0.560001,1.052897 2.328994,0.2892472 2.297261,0.3025134 2.831059,-1.1819188 z m 4.489621,-0.026835 0.517822,-1.44 h -1.530263 c -1.52762,0 -1.531109,0.0025 -2.020921,1.44 l -0.490654,1.44 h 1.503099 c 1.491402,0 1.507128,-0.011339 2.020917,-1.44 z M 13.516095,2.5721046 c 0.238867,-0.6972624 0.404765,-1.2843855 0.368693,-1.3047156 -0.0359,-0.02041 -0.857582,0.046148 -1.825583,0.1477417 -1.247071,0.130885 -1.769341,0.3245858 -1.792044,0.6647131 -0.01776,0.264 -0.13784,0.8119483 -0.2671752,1.2176655 C 9.772685,4.0105701 9.8201559,4.0319169 11.423337,3.937508 13.040729,3.8422639 13.092573,3.8084372 13.516092,2.5720932 Z m 4.345973,-0.012094 0.517822,-1.44 h -1.522409 c -1.520776,0 -1.522923,0.00153 -1.996478,1.44 l -0.474067,1.44 h 1.478657 c 1.462432,0 1.484338,-0.015874 1.996475,-1.44 z m 4.545884,0.5042192 c 0.09154,-0.4533203 0.263924,-1.0762205 0.383081,-1.3842217 0.188637,-0.4876347 0.0094,-0.5599975 -1.386289,-0.5599975 -1.458089,0 -1.631716,0.079521 -1.921504,0.8799987 -0.175219,0.4839988 -0.419082,1.1277581 -0.541924,1.4305739 -0.196384,0.4840894 -0.01058,0.5449776 1.538423,0.504223 1.620756,-0.042633 1.775097,-0.1123276 1.928213,-0.8705764 z m 4.307217,0.055786 c 0.175219,-0.4839987 0.420711,-1.1319987 0.545541,-1.44 0.198085,-0.4887685 0.02419,-0.5599975 -1.36727,-0.5599975 -1.482781,0 -1.606651,0.061531 -1.771828,0.8799988 -0.09766,0.4839987 -0.275074,1.1319987 -0.394235,1.44 -0.186708,0.4825701 -0.01701,0.5600012 1.226287,0.5600012 1.283543,0 1.478124,-0.097209 1.761505,-0.8800025 z M 92.092685,47.350405 C 85.446703,45.498437 81.194228,39.702077 81.183101,32.480005 l -0.0037,-2.4 h -4.095632 c -4.093092,0 -4.097151,-6.42e-4 -6.543322,-1.209184 -2.883553,-1.424504 -4.82736,-3.439408 -6.470189,-6.70681 C 61.844941,17.738109 61.717242,13.1097 63.704986,8.9240806 67.418168,1.1051792 77.634038,-1.904708 85.229365,2.5823887 86.909037,3.5746885 90.01856,6.4673461 89.723148,6.7627616 89.658594,6.8272781 88.972598,6.295525 88.198672,5.5810469 85.017874,2.6445468 80.10329,1.1410809 75.718128,1.7630098 66.162288,3.118269 61.073203,12.545378 65.193818,21.258399 c 1.08311,2.290242 3.753898,5.248214 5.583216,6.183609 7.975676,4.078148 18.549532,-0.56742 20.835814,-9.154053 0.822168,-3.087837 0.370166,-6.821103 -1.198046,-9.8950152 -0.520793,-1.0208277 -0.561827,-1.2432793 -0.169285,-0.9174803 0.852865,0.7078148 2.068229,3.6162365 2.466255,5.9018305 0.351382,2.017852 0.108245,5.101682 -0.534293,6.77605 -0.146419,0.381582 0.126274,0.342426 1.332514,-0.191244 2.155884,-0.95365 4.744059,-1.120327 7.038547,-0.453316 5.86196,1.704151 9.41521,5.468636 10.40863,11.027452 1.13155,6.331767 -2.48755,13.398576 -8.25034,16.109971 -1.94611,0.915667 -2.51099,1.028334 -5.527627,1.102526 -2.245133,0.05518 -3.932866,-0.0771 -5.086518,-0.398475 z m 9.337585,-1.744139 c 2.69498,-1.019905 5.3536,-3.599092 6.86811,-6.662891 1.1783,-2.383672 1.20082,-2.498608 1.20082,-6.126312 0,-3.44262 -0.0648,-3.82919 -0.94098,-5.617058 -1.96617,-4.011855 -6.29181,-6.876586 -10.775199,-7.136126 -3.65963,-0.211653 -5.428634,0.465902 -6.798146,2.604624 -1.860499,2.905474 -5.397535,5.670349 -8.60567,6.726954 -1.335753,0.439975 -0.340876,7.066583 1.545694,10.295584 1.778026,3.043238 5.630419,5.812687 9.094303,6.537865 2.261401,0.473423 6.306029,0.173858 8.411068,-0.62264 z M 89.172244,39.213007 c 0.441211,-0.824429 2.148355,-2.110753 3.613909,-2.723112 2.755071,-1.151131 6.776035,-0.266079 8.346387,1.837342 0.83699,1.121045 0.47948,1.453795 -0.62691,0.583521 -1.298415,-1.021342 -4.081455,-1.734161 -5.777518,-1.479836 -0.786081,0.117921 -2.376635,0.70817 -3.534561,1.311722 -1.157927,0.603553 -2.16192,1.097348 -2.231097,1.097348 -0.06917,0 0.02532,-0.28233 0.209801,-0.626985 z m 1.032741,-7.388221 c -0.993392,-0.398702 -1.757919,-2.2608 -1.358997,-3.310035 0.602883,-1.5857 2.327837,-1.9121 3.646488,-0.690028 1.187418,1.100447 1.134935,2.435868 -0.137839,3.506835 -1.08372,0.911886 -1.09818,0.915212 -2.149667,0.493228 z m 2.174218,-1.726639 c 0,-0.866948 -1.104192,-1.825512 -1.796734,-1.559773 -1.014841,0.389442 -0.174501,2.341644 1.007992,2.341644 0.623112,0 0.788742,-0.16441 0.788742,-0.781871 z m 7.520002,1.675351 c -1.025439,-0.588095 -1.418941,-1.291351 -1.429826,-2.555339 -0.01776,-2.07394 2.174431,-2.902639 3.684371,-1.392718 1.02042,1.020435 1.02071,2.387263 6.4e-4,3.487824 -0.85951,0.92742 -1.28813,1.014879 -2.255284,0.460233 z m 2.399995,-1.681512 c 0,-0.624794 -1.54574,-1.772712 -2.10042,-1.559849 -0.660622,0.253607 -0.565767,1.281676 0.18777,2.0352 0.51415,0.514167 0.7775,0.577663 1.28,0.308788 0.34798,-0.186331 0.63267,-0.539074 0.63267,-0.784101 z M 82.205052,46.058109 c -1.129221,-0.790942 -0.542019,-1.086387 1.784972,-0.898129 2.940253,0.23811 3.274035,0.364346 2.488018,0.942879 -0.82868,0.609864 -3.376483,0.583181 -4.27299,-0.0446 z M 77.463404,44.64638 c -0.692757,-0.280063 -2.044199,-1.793537 -2.044199,-2.289525 0,-0.152315 0.150916,-0.277039 0.335357,-0.277039 0.534781,0 3.824625,2.198627 3.824625,2.556019 0,0.386646 -1.170334,0.392353 -2.115798,0.01134 z m -5.496129,-4.423862 c -0.402565,-0.309921 -1.013616,-0.990614 -1.357893,-1.512907 -0.62826,-0.953083 -0.853089,-2.389606 -0.373985,-2.389606 0.140901,0 1.085428,1.008 2.098954,2.240013 1.658241,2.015659 1.768777,2.239256 1.103826,2.232869 -0.406428,-0.0038 -1.068329,-0.260787 -1.470887,-0.570369 z m -3.019884,-5.7425 c -0.975904,-1.113033 -1.528188,-2.639622 -1.528188,-4.224114 0,-0.888756 0.132133,-1.615899 0.293632,-1.615899 0.251074,0 2.266386,5.478312 2.266386,6.160781 0,0.420359 -0.52512,0.257008 -1.031811,-0.320882 z m 4.836854,-11.759547 c -1.498745,-0.481209 -4.458315,-2.79908 -4.075275,-3.19166 0.115389,-0.118299 0.763374,0.133418 1.44,0.558955 1.774567,1.116434 3.407032,1.576252 5.596229,1.576252 2.470817,0 5.570067,-1.444233 7.049272,-3.284901 1.170339,-1.456328 1.668703,-1.62686 1.207219,-0.413065 -0.57007,1.499414 -2.132779,3.163427 -3.847086,4.096441 -2.041195,1.110955 -5.106958,1.38463 -7.370359,0.657978 z M 106.8854,21.735186 c -0.10654,-0.277795 0.0185,-0.716863 0.27753,-0.976063 0.415,-0.414992 0.52039,-0.412044 0.88294,0.02646 0.32905,0.396472 0.33173,0.592403 0.0132,0.976063 -0.5133,0.618482 -0.93033,0.609675 -1.1738,-0.02646 z m -2.29945,-5.738154 c -1.23176,-2.424832 -1.20709,-3.058432 0.0797,-2.046274 0.95597,0.751975 1.79357,2.37668 1.79357,3.478979 0,1.259679 -0.82679,0.627326 -1.87325,-1.432705 z M 70.692471,14.025819 c -0.534202,-0.215055 -1.353268,-1.818784 -1.353268,-2.64994 0,-1.8072793 2.609794,-2.5551609 4.014547,-1.150409 0.959266,0.959241 0.995406,1.860885 0.123666,3.085149 -0.640093,0.898923 -1.670601,1.163566 -2.784945,0.7152 z m 2.486732,-1.538456 c 0,-0.85304 -1.324013,-1.975684 -1.905925,-1.616043 -0.453959,0.280554 -0.422604,1.552169 0.04993,2.024685 0.2112,0.211276 0.7152,0.384 1.120002,0.384 0.569908,0 0.735999,-0.178772 0.735995,-0.792642 z m 6.876057,1.222979 c -1.72563,-1.725619 -1.03358,-4.2703256 1.161347,-4.2703256 1.126802,0 2.522596,1.2483136 2.522596,2.2560266 0,0.376819 -0.297789,1.103395 -0.661787,1.614576 -0.762652,1.071043 -2.165322,1.256542 -3.022156,0.399723 z m 2.723943,-1.180762 c 0,-0.914684 -1.073193,-1.957395 -1.74808,-1.698418 -1.069523,0.410393 -0.270955,2.448843 0.959338,2.448843 0.61409,0 0.788742,-0.166299 0.788742,-0.750425 z M 99.899205,9.9630123 C 99.019202,9.3645392 97.950102,8.4980372 97.523424,8.0374488 L 96.747642,7.2000151 h 0.711674 c 1.523085,0 4.370964,2.2881638 4.149444,3.3339249 -0.0898,0.423825 -0.39842,0.320769 -1.709555,-0.5709277 z M 95.162943,6.3570898 C 95.051333,6.2454803 93.892825,5.7774803 92.58848,5.3170885 91.284138,4.8567005 90.163452,4.3360176 90.098073,4.1600164 89.888688,3.5963943 92.59845,3.612155 93.721212,4.1811817 c 1.38023,0.6993978 2.17799,1.4131087 2.17799,1.9485279 0,0.4517707 -0.39112,0.5726135 -0.736259,0.2274898 z"
         id="path4980" />
    </pattern>
    <clipPath
       id="clipPath5742"
       clipPathUnits="userSpaceOnUse">
      <rect
         y="105.50358"
         x="39.590977"
         height="14.912251"
         width="17.117584"
         id="rect5744"
         style="fill:none;fill-opacity:1;stroke:#4d868b;stroke-width:0.1;stroke-miterlimit:4;stroke-dasharray:none;stroke-opacity:1" />
    </clipPath>
    <filter
       id="filter5757"
       style="color-interpolation-filters:sRGB">
      <feColorMatrix
         id="feColorMatrix5749"
         result="result2"
         type="luminanceToAlpha" />
      <feComposite
         k4="0"
         k2="0"
         k1="0"
         id="feComposite5751"
         result="result4"
         k3="2"
         in="result2"
         operator="arithmetic"
         in2="SourceGraphic" />
      <feBlend
         id="feBlend5753"
         in2="result2"
         result="result3"
         mode="multiply"
         in="result4" />
      <feComposite
         id="feComposite5755"
         in="result3"
         operator="in"
         in2="SourceGraphic" />
    </filter>
    <clipPath
       id="pb733b42998">
      <rect
         id="rect7171"
         y="5.46"
         x="677.51501"
         width="173.91499"
         height="83.959999" />
    </clipPath>
    <clipPath
       id="clipPath7735">
      <rect
         id="rect7733"
         y="5.46"
         x="677.51501"
         width="173.91499"
         height="83.959999" />
    </clipPath>
    <clipPath
       id="clipPath7739">
      <rect
         id="rect7737"
         y="5.46"
         x="677.51501"
         width="173.91499"
         height="83.959999" />
    </clipPath>
    <clipPath
       id="clipPath7743">
      <rect
         id="rect7741"
         y="5.46"
         x="677.51501"
         width="173.91499"
         height="83.959999" />
    </clipPath>
    <clipPath
       id="clipPath7747">
      <rect
         id="rect7745"
         y="5.46"
         x="677.51501"
         width="173.91499"
         height="83.959999" />
    </clipPath>
    <clipPath
       id="clipPath7751">
      <rect
         id="rect7749"
         y="5.46"
         x="677.51501"
         width="173.91499"
         height="83.959999" />
    </clipPath>
    <clipPath
       id="clipPath7755">
      <rect
         id="rect7753"
         y="5.46"
         x="677.51501"
         width="173.91499"
         height="83.959999" />
    </clipPath>
    <clipPath
       id="clipPath8039"
       clipPathUnits="userSpaceOnUse">
      <rect
         y="-10.959352"
         x="537.19391"
         height="84.000893"
         width="93.526749"
         id="rect8041"
         style="opacity:1;fill:#000000;fill-opacity:1;stroke:#000000;stroke-width:0.69682258;stroke-miterlimit:4;stroke-dasharray:4.18093529, 4.18093529;stroke-dashoffset:0;stroke-opacity:0.7" />
    </clipPath>
  </defs>
  <metadata
     id="metadata5">
    <rdf:RDF>
      <cc:Work
         rdf:about="">
        <dc:format>image/svg+xml</dc:format>
        <dc:type
           rdf:resource="http://purl.org/dc/dcmitype/StillImage" />
        <dc:title></dc:title>
      </cc:Work>
    </rdf:RDF>
  </metadata>
  <g
     transform="translate(-65.858936,-102.99849)"
     id="layer1">
    <circle
       r="1.5481341"
       cy="113.97727"
       cx="68.081062"
       id="path5761-69"
       style="fill:#00a0c9;fill-opacity:1;fill-rule:evenodd;stroke:#00a0c8;stroke-width:0.98400003;stroke-miterlimit:4;stroke-dasharray:none;stroke-opacity:1" />
    <path
       id="path5889"
       d="m 74.692528,122.92803 h 7.114825"
       style="fill:none;stroke:#00a0c8;stroke-width:1.00199997;stroke-linecap:butt;stroke-linejoin:miter;stroke-miterlimit:4;stroke-dasharray:none;stroke-opacity:1" />
    <path
       id="path5889-1"
       d="m 74.969356,104.88166 h 6.621917"
       style="fill:none;stroke:#00a0c8;stroke-width:1.00199997;stroke-linecap:butt;stroke-linejoin:miter;stroke-miterlimit:4;stroke-dasharray:none;stroke-opacity:1" />
    <path
       id="path5906"
       d="m 83.672401,122.7797 4.523552,-7.03807"
       style="fill:none;stroke:#00a0c8;stroke-width:1.00199997;stroke-linecap:butt;stroke-linejoin:miter;stroke-miterlimit:4;stroke-dasharray:none;stroke-opacity:1" />
    <path
       id="path5906-4"
       d="m 68.238803,112.33286 4.549881,-7.32048"
       style="fill:none;stroke:#00a0c8;stroke-width:1.02042615;stroke-linecap:butt;stroke-linejoin:miter;stroke-miterlimit:4;stroke-dasharray:none;stroke-opacity:1" />
    <path
       id="path5906-9"
       d="m 83.39626,104.90422 4.275928,7.50153"
       style="fill:none;stroke:#00a0c8;stroke-width:1.00199997;stroke-linecap:butt;stroke-linejoin:miter;stroke-miterlimit:4;stroke-dasharray:none;stroke-opacity:1" />
    <path
       id="path5906-4-2"
       d="m 68.259463,115.69604 4.536361,7.05652"
       style="fill:none;stroke:#00a0c8;stroke-width:1.01835632;stroke-linecap:butt;stroke-linejoin:miter;stroke-miterlimit:4;stroke-dasharray:none;stroke-opacity:1" />
    <path
       id="path5953"
       d="m 68.943941,114.30724 13.439268,8.08756"
       style="fill:none;stroke:#00a0c8;stroke-width:1.00199997;stroke-linecap:butt;stroke-linejoin:miter;stroke-miterlimit:4;stroke-dasharray:none;stroke-opacity:1" />
    <path
       id="path5953-6"
       d="m 73.886834,122.3462 13.653784,-7.72783"
       style="fill:none;stroke:#00a0c8;stroke-width:1.00199997;stroke-linecap:butt;stroke-linejoin:miter;stroke-miterlimit:4;stroke-dasharray:none;stroke-opacity:1" />
    <path
       id="path5953-8"
       d="m 73.840515,105.7409 13.893074,7.70014"
       style="fill:none;stroke:#00a0c8;stroke-width:1.00199997;stroke-linecap:butt;stroke-linejoin:miter;stroke-miterlimit:4;stroke-dasharray:none;stroke-opacity:1" />
    <path
       id="path5953-9"
       d="m 82.539227,105.52098 -13.591914,8.0286"
       style="fill:none;stroke:#00a0c8;stroke-width:1.00199997;stroke-linecap:butt;stroke-linejoin:miter;stroke-miterlimit:4;stroke-dasharray:none;stroke-opacity:1" />
    <g
       style="stroke-width:1.41732287;stroke-linecap:butt;stroke-linejoin:round;stroke-miterlimit:4;stroke-dasharray:none"
       transform="matrix(0.53326191,-0.04209889,0.04337997,0.69971306,-308.29299,45.452569)"
       id="axes_8">
      <g
         clip-path="url(#clipPath8039)"
         transform="matrix(0.45950559,0,0,0.35486148,444.59532,129.15157)"
         style="stroke:#910019;stroke-width:3.50989366;stroke-linecap:butt;stroke-linejoin:round;stroke-miterlimit:4;stroke-dasharray:none;stroke-opacity:0.7"
         id="line2d_38">
        <path
           transform="translate(-181.88416,-10.418896)"
           id="path7145"
           style="fill:none;stroke:#910019;stroke-width:3.50989366;stroke-linecap:round;stroke-linejoin:round;stroke-miterlimit:4;stroke-dasharray:none;stroke-opacity:0.7"
           d="m 685.42023,27.792371 13.33412,6.273298 10.4768,4.689758 7.6195,3.189303 6.66706,2.548032 4.76218,1.614492 4.76219,1.367393 3.80975,0.847465 2.85731,0.442945 2.85731,0.229977 2.85731,-0.03879 1.90487,-0.208235 1.90488,-0.379438 1.90487,-0.570335 1.90488,-0.770888 2.85731,-1.474083 1.90487,-1.012714 0.95244,-0.39466 0.95244,-0.209149 0.95243,0.114256 0.95244,0.639887 0.95244,1.448149 0.95243,2.616349 0.95244,4.15332 0.95244,5.836811 0.95243,6.916277 0.95244,5.82394 0.95244,0.459959 0.95244,-12.692686 0.95243,-18.129895 0.95244,-14.735382 0.95244,-9.806952 0.95243,-5.305354 0.95244,-1.999061 0.95244,0.138117 0.95243,1.401912 0.95244,2.088752 6.66706,16.701694 1.90487,3.912597 1.90488,3.497591 1.90487,3.144969 2.85731,4.181399 2.85731,3.677487 2.85732,3.292988 2.85731,2.995906 3.80975,3.640966 3.80974,3.333994 4.76219,3.847876 5.71462,4.275524 6.66706,4.653861 7.61949,5.011491 8.57194,5.367086 1.90487,1.163062 v 0"
           clip-path="url(#pb733b42998)" />
      </g>
    </g>
    <circle
       r="1.5481341"
       cx="73.01973"
       cy="105.03862"
       id="path5761-69-3"
       style="fill:#00a0c9;fill-opacity:1;fill-rule:evenodd;stroke:#00a0c8;stroke-width:0.98400003;stroke-miterlimit:4;stroke-dasharray:none;stroke-opacity:1" />
    <circle
       r="1.5481341"
       cy="105.03862"
       cx="83.423729"
       id="path5761-69-3-6"
       style="fill:#00a0c9;fill-opacity:1;fill-rule:evenodd;stroke:#00a0c8;stroke-width:0.98400003;stroke-miterlimit:4;stroke-dasharray:none;stroke-opacity:1" />
    <circle
       r="1.5481341"
       cy="113.98028"
       cx="88.365395"
       id="path5761-69-3-6-7"
       style="fill:#00a0c9;fill-opacity:1;fill-rule:evenodd;stroke:#00a0c8;stroke-width:0.98400003;stroke-miterlimit:4;stroke-dasharray:none;stroke-opacity:1" />
    <circle
       r="1.5481341"
       cy="122.92194"
       cx="83.423729"
       id="path5761-69-3-6-7-5"
       style="fill:#00a0c9;fill-opacity:1;fill-rule:evenodd;stroke:#00a0c8;stroke-width:0.98400003;stroke-miterlimit:4;stroke-dasharray:none;stroke-opacity:1" />
    <circle
       r="1.5481341"
       cy="122.92194"
       cx="73.01973"
       id="path5761-69-35"
       style="fill:#00a0c9;fill-opacity:1;fill-rule:evenodd;stroke:#00a0c8;stroke-width:0.98400003;stroke-miterlimit:4;stroke-dasharray:none;stroke-opacity:1" />
  </g>
</svg>
