<svg id="Layer_5" enable-background="new 0 0 64 64" height="512" viewBox="0 0 64 64" width="512" xmlns="http://www.w3.org/2000/svg" xmlns:xlink="http://www.w3.org/1999/xlink"><linearGradient id="SVGID_1_" gradientUnits="userSpaceOnUse" x1="32" x2="32" y1="63" y2="1"><stop offset="0" stop-color="#9f2fff"/><stop offset="1" stop-color="#0bb1d3"/></linearGradient><path d="m32 49c9.374 0 17-7.626 17-17s-7.626-17-17-17-17 7.626-17 17 7.626 17 17 17zm-9.309-5.26c.547-.536 1.18-.965 1.873-1.248l2.63-1.076c.504 1.86 1.954 2.551 2.9 2.984.719.329.906.452.906.6h2c0-.148.187-.271.906-.6.946-.432 2.395-1.123 2.9-2.983l2.63 1.076c.694.284 1.326.712 1.873 1.248-2.561 2.034-5.792 3.259-9.309 3.259s-6.748-1.225-9.309-3.26zm.399-13.297c-.511-1.392-1.09-2.969-1.09-4.443 0-3.454 1.507-5 3-5 .643 0 1.148.332 1.505.677-.939 1.192-1.505 2.691-1.505 4.323v4h.001c0 .003-.001.005-.001.008 0 1.943.619 3.774 1.696 5.3-.722.95-2.314 1.806-4.552 2.407-.016.004-.057.015-.102-.019l-.008-.168c.735-.529 1.966-1.693 1.966-3.528 0-1.077-.442-2.281-.91-3.557zm18.91-4.443c0 1.474-.579 3.051-1.09 4.443-.468 1.276-.91 2.48-.91 3.557 0 1.835 1.231 2.999 1.965 3.528l-.008.168c-.045.034-.087.022-.102.019-2.237-.601-3.83-1.457-4.552-2.407 1.077-1.526 1.696-3.357 1.696-5.3v-.008-2.12-1.88c0-1.632-.566-3.131-1.505-4.323.358-.345.863-.677 1.506-.677 1.493 0 3 1.546 3 5zm-5 0v1.842c-2.093-.15-4.125-.764-5.931-1.804l-1.953-1.125-.421.134c-.632.202-1.195.518-1.691.906.026-2.734 2.255-4.953 4.996-4.953 2.757 0 5 2.243 5 5zm-10 3.996c0-1.244.754-2.361 1.913-2.892l1.158.667c2.108 1.214 4.485 1.925 6.929 2.078v.151.008c0 3.092-1.996 5.84-5 6.935-3.004-1.094-5-3.843-5-6.947zm4.012 8.709c.223.09.45.174.683.248l.305.097.305-.097c.233-.074.46-.158.683-.248.244.816.841 1.494 1.66 1.829l.296.121c-.2 1.154-.949 1.506-1.869 1.926-.339.155-.726.335-1.074.58-.348-.245-.735-.424-1.074-.58-.92-.42-1.67-.772-1.869-1.927l.296-.121c.817-.335 1.415-1.012 1.658-1.828zm15.988-6.705c0 4.033-1.608 7.692-4.206 10.39-.749-.755-1.631-1.353-2.6-1.75l-4.788-1.958c-.327-.134-.539-.449-.539-.803v-.179c.39-.265.756-.557 1.099-.871 1.302 1.45 3.518 2.319 5.371 2.818.185.049.372.074.557.074.459 0 .906-.15 1.281-.437.524-.402.825-1.013.825-1.675 0-.675-.323-1.312-.863-1.702-.519-.374-1.137-1.009-1.137-1.907 0-.721.383-1.764.788-2.868.568-1.548 1.212-3.303 1.212-5.132 0-1.534-.254-2.798-.679-3.81 2.285 2.633 3.679 6.058 3.679 9.81zm-7.496-12.968c-.168-.02-.336-.032-.504-.032-1.335 0-2.313.652-2.956 1.297-1.143-.814-2.537-1.297-4.044-1.297s-2.901.483-4.044 1.297c-.644-.646-1.621-1.297-2.956-1.297-.168 0-.336.012-.504.032 2.21-1.284 4.769-2.032 7.504-2.032s5.294.748 7.504 2.032zm-18.825 3.158c-.425 1.012-.679 2.276-.679 3.81 0 1.829.644 3.584 1.212 5.132.405 1.104.788 2.147.788 2.868 0 .898-.618 1.533-1.136 1.907-.541.39-.864 1.027-.864 1.702 0 .662.301 1.273.826 1.675.375.287.822.437 1.281.437.185 0 .372-.024.557-.074 1.853-.498 4.069-1.368 5.371-2.818.343.314.709.606 1.099.871v.179c0 .354-.212.668-.539.802l-4.788 1.958c-.969.397-1.852.994-2.6 1.75-2.599-2.697-4.207-6.356-4.207-10.389 0-3.752 1.394-7.177 3.679-9.81zm10.321-15.374v2.184h2v-2.184c1.161-.414 2-1.514 2-2.816 0-1.654-1.346-3-3-3s-3 1.346-3 3c0 1.302.839 2.402 2 2.816zm1-3.816c.552 0 1 .449 1 1s-.448 1-1 1-1-.449-1-1 .448-1 1-1zm-1 8h2v2h-2zm-27 24c1.302 0 2.402-.839 2.816-2h2.184v-2h-2.184c-.414-1.161-1.514-2-2.816-2-1.654 0-3 1.346-3 3s1.346 3 3 3zm0-4c.552 0 1 .449 1 1s-.448 1-1 1-1-.449-1-1 .448-1 1-1zm9 0v2h-2v-2zm20 22h-2v-2h2zm-2 4.184c-1.161.414-2 1.514-2 2.816 0 1.654 1.346 3 3 3s3-1.346 3-3c0-1.302-.839-2.402-2-2.816v-2.184h-2zm1 3.816c-.552 0-1-.449-1-1s.448-1 1-1 1 .449 1 1-.448 1-1 1zm28-32c-1.302 0-2.402.839-2.816 2h-2.184v2h2.184c.414 1.161 1.514 2 2.816 2 1.654 0 3-1.346 3-3s-1.346-3-3-3zm0 4c-.552 0-1-.449-1-1s.448-1 1-1 1 .449 1 1-.448 1-1 1zm-7 0h-2v-2h2zm-42.213-20.799-1.414-1.415 1.414-1.414 1.414 1.415zm1.414 1.414 1.544 1.544c-.529 1.114-.344 2.485.577 3.405.566.566 1.32.878 2.121.878.802 0 1.555-.312 2.121-.878 1.17-1.169 1.17-3.073 0-4.243-.886-.886-2.284-1.069-3.396-.568l-1.553-1.553zm4.949 2.121c.39.39.39 1.024 0 1.415-.376.377-1.036.377-1.414 0-.39-.39-.39-1.024 0-1.414.378-.379 1.038-.377 1.414-.001zm-6.363 38.891-1.414-1.414 1.414-1.415 1.414 1.414zm4.371-4.371c.398.19.832.3 1.285.3.802 0 1.555-.312 2.121-.878 1.17-1.17 1.17-3.073 0-4.243-1.132-1.132-3.108-1.134-4.242 0-.921.92-1.105 2.291-.577 3.406l-1.544 1.544 1.414 1.414zm.578-3.406c.188-.189.44-.293.707-.293.268 0 .519.104.707.292.39.39.39 1.024 0 1.415-.376.377-1.036.378-1.414 0-.389-.39-.389-1.025 0-1.414zm29.7-1.415c-1.17 1.169-1.17 3.073 0 4.243.566.566 1.319.878 2.121.878.454 0 .887-.11 1.285-.3l1.543 1.543 1.414-1.414-1.544-1.544c.529-1.114.344-2.485-.577-3.405-1.133-1.134-3.11-1.133-4.242-.001zm1.414 2.829c-.39-.39-.39-1.024 0-1.415.188-.189.439-.292.707-.292.267 0 .519.104.707.292.39.39.39 1.024 0 1.414-.377.38-1.037.378-1.414.001zm6.363 6.363-1.414-1.415 1.414-1.414 1.414 1.415zm-5.656-35.184c.801 0 1.555-.312 2.121-.878.921-.92 1.105-2.291.577-3.406l1.544-1.544-1.414-1.414-1.553 1.553c-1.111-.501-2.51-.318-3.396.568-1.17 1.17-1.17 3.073 0 4.243.566.566 1.319.878 2.121.878zm-.707-3.707c.188-.189.439-.292.707-.292.267 0 .519.104.707.292.39.39.39 1.024 0 1.414-.377.379-1.037.378-1.414 0-.39-.389-.39-1.024 0-1.414zm6.363-3.535-1.414-1.414 1.414-1.415 1.414 1.414z" fill="url(#SVGID_1_)"/></svg>