<svg id="Layer_5" enable-background="new 0 0 64 64" height="512" viewBox="0 0 64 64" width="512" xmlns="http://www.w3.org/2000/svg" xmlns:xlink="http://www.w3.org/1999/xlink"><linearGradient id="SVGID_1_" gradientUnits="userSpaceOnUse" x1="32" x2="32" y1="63" y2="1"><stop offset="0" stop-color="#9f2fff"/><stop offset="1" stop-color="#0bb1d3"/></linearGradient><path d="m20 55h-2v-2h2zm0 2h-2v2h2zm35-18c0 3.309-2.691 6-6 6s-6-2.691-6-6 2.691-6 6-6 6 2.691 6 6zm-2 0c0-2.206-1.794-4-4-4s-4 1.794-4 4 1.794 4 4 4 4-1.794 4-4zm-44-38h54v40h-4.202c-.581 2.85-2.382 5.256-4.827 6.664l1.188 11.876-6.159-2.463-6.159 2.463 1.188-11.876c-2.445-1.409-4.246-3.814-4.827-6.664h-14.558c-.293.237-.604.45-.925.649 7.64 2.081 13.281 9.061 13.281 17.351v4h-36v-4c0-8.29 5.641-15.27 13.281-17.351-2.564-1.588-4.281-4.418-4.281-7.649 0-.953.151-1.879.44-2.769-.466-.166-.764-.283-.812-.302l-.628-.252v-3.677c-1.103 0-2-.897-2-2h-1c-.551 0-1 .449-1 1v5.335c1.368.957 2 3.709 2 4.665 0 1.654-1.346 3-3 3s-3-1.346-3-3c0-.956.632-3.708 2-4.665v-5.335c0-1.654 1.346-3 3-3h1c0-1.103.897-2 2-2zm-4 35c0-.826-.571-2.436-1-2.916-.429.48-1 2.09-1 2.916 0 .551.449 1 1 1s1-.449 1-1zm4-11h20v-2h-20-.001zm2 2v2.306c1.434.514 5.047 1.694 8 1.694s6.566-1.18 8-1.694v-2.306zm4.829 25.895-2.829-5.658v13.763h12v-13.763l-2.829 5.658-3.171-4.228zm13.171-6.365c-.629-.505-1.299-.958-2-1.365v15.835h2zm-8.638.619 1.467 1.956 2.573-5.147c-.074-.027-.148-.056-.223-.082zm-11.362 13.851h2v-15.835c-.701.407-1.371.86-2 1.365zm8.638-13.851-3.817-3.272c-.075.026-.148.055-.223.082l2.573 5.147zm-14.638 13.851h4v-12.547c-2.481 2.819-4 6.505-4 10.547zm28-12.547v12.547h4v-2c0-4.042-1.519-7.728-4-10.547zm-12-5.453c-.964 0-1.904.1-2.821.265l2.821 2.418 2.821-2.418c-.917-.165-1.857-.265-2.821-.265zm7-9c0-.74-.118-1.459-.341-2.149-1.86.553-4.388 1.149-6.659 1.149s-4.799-.596-6.659-1.15c-.223.691-.341 1.41-.341 2.15 0 3.86 3.14 7 7 7s7-3.14 7-7zm26.047 14.522c-.961.308-1.984.478-3.047.478s-2.086-.17-3.047-.478l-.794 7.938 3.841-1.537 3.841 1.537zm4.953-9.522c0-4.411-3.589-8-8-8s-8 3.589-8 8 3.589 8 8 8 8-3.589 8-8zm-46-36v18h18c1.103 0 2 .897 2 2v2c0 1.103-.897 2-2 2v3.677l-.628.251c-.047.019-.346.136-.812.302.288.89.44 1.817.44 2.77 0 1.849-.562 3.569-1.522 5h12.522c0-5.514 4.486-10 10-10s10 4.486 10 10h2v-36zm48 12h-46v-10h46zm-2-8h-42v6h42zm-42 10h-2v2h2zm2 2h42v-2h-42zm16 2v2h22v-2zm24 2h2v-2h-2zm-24 4h26v-2h-26zm0 4h2v-2h-2zm4 0h2v-2h-2z" fill="url(#SVGID_1_)"/></svg>