<svg id="Layer_5" enable-background="new 0 0 64 64" height="512" viewBox="0 0 64 64" width="512" xmlns="http://www.w3.org/2000/svg" xmlns:xlink="http://www.w3.org/1999/xlink"><linearGradient id="SVGID_1_" gradientUnits="userSpaceOnUse" x1="32" x2="32" y1="63" y2="1"><stop offset="0" stop-color="#9f2fff"/><stop offset="1" stop-color="#0bb1d3"/></linearGradient><path d="m14.8 5h4.2v2h-4.2c-.886 2.983-2.156 5.848-3.77 8.517l-1.711-1.034c1.525-2.525 2.727-5.235 3.571-8.054.257-.855 1.024-1.429 1.91-1.429zm47.907 13.293.293.293v2.414h-6v42h-37.112-.236-12.652v-42h-6v-2.414l.293-.293c3.803-3.803 6.56-8.555 7.975-13.743l.968-3.55h43.527l.969 3.55c1.415 5.188 4.172 9.94 7.975 13.743zm-43.005 42.707.333-.002c1.956-.047 3.76-1.037 4.846-2.669l5.366-8.437-1.153-2.471 1.812-.846 6.178 13.237c.336.721 1.066 1.186 1.861 1.186 1.133 0 2.055-.921 2.055-2.054v-.307c0-.286-.058-.563-.172-.823l-5.372-12.279-5.735-1.55-5.932 7.626-1.578-1.229 5.416-6.963-1.842-.498.521-1.932 14.613 3.949c.141.038.286.058.434.058.908.002 1.647-.738 1.647-1.646v-.336c0-.738-.497-1.392-1.208-1.589l-15.929-4.426h-.844c-.006 0-.012.001-.019.001s-.013-.001-.019-.001h-1.084c-3.44 0-6.417 2.566-6.924 5.969l-1.89 12.678c-.235 1.26.044 2.495.78 3.517.83 1.15 2.265 1.837 3.839 1.837zm10.298-31c0-2.757-2.243-5-5-5s-5 2.243-5 5 2.243 5 5 5 5-2.243 5-5zm7-1v9.017l5.327 1.48c1.57.436 2.665 1.875 2.672 3.503h3.001c.552 0 1-.448 1-1v-13.184c-.314.112-.648.184-1 .184zm11-2c.552 0 1-.449 1-1s-.448-1-1-1h-9v2zm-22.829 34h10.291c-.066-.112-.135-.222-.19-.341l-4.021-8.617-4.693 7.378c-.397.595-.867 1.121-1.387 1.58zm35.435-42c-3.694-3.923-6.384-8.717-7.804-13.923l-.566-2.077h-40.472l-.566 2.077c-1.42 5.206-4.109 10-7.804 13.923h5.606v42h5.809c-.204-.21-.396-.43-.568-.668-1.06-1.47-1.461-3.252-1.13-5.019l1.883-12.641c.492-3.297 2.787-5.981 5.781-7.105-1.682-1.279-2.775-3.295-2.775-5.567 0-3.86 3.141-7 7-7s7 3.14 7 7c0 2.398-1.213 4.516-3.057 5.779l6.057 1.682v-10.461h2v-4h11c1.654 0 3 1.346 3 3v16c0 1.654-1.346 3-3 3h-3.413c-.605 1.179-1.819 1.997-3.232 1.999-.326 0-.647-.043-.957-.127l-2.467-.666 4.729 10.808c.226.514.34 1.062.34 1.625v.307c0 .753-.22 1.45-.579 2.055h12.579v-42.001zm-29.606-8h16v-2h-16zm0 4h16v-2h-16zm20-7v8c0 1.654-1.346 3-3 3h-4.818l-9.182 3.443v-3.443h-4c-1.654 0-3-1.346-3-3v-8c0-1.654 1.346-3 3-3h18c1.654 0 3 1.346 3 3zm-2 0c0-.551-.448-1-1-1h-18c-.552 0-1 .449-1 1v8c0 .551.448 1 1 1h6v2.557l6.818-2.557h5.182c.552 0 1-.449 1-1zm-28-1h2v-2h-2zm-10 26h2v-2h-2zm0-4h2v-2h-2zm0-4h2v-2h-2zm36 6h-8v2h8zm0 4h-8v2h8z" fill="url(#SVGID_1_)"/></svg>