<svg id="Layer_5" enable-background="new 0 0 64 64" height="512" viewBox="0 0 64 64" width="512" xmlns="http://www.w3.org/2000/svg" xmlns:xlink="http://www.w3.org/1999/xlink"><linearGradient id="SVGID_1_" gradientUnits="userSpaceOnUse" x1="32" x2="32" y1="63" y2="1"><stop offset="0" stop-color="#9f2fff"/><stop offset="1" stop-color="#0bb1d3"/></linearGradient><path d="m48 31c0-7.276-4.887-13.423-11.549-15.357 2.139-1.438 3.549-3.878 3.549-6.643 0-4.411-3.589-8-8-8s-8 3.589-8 8c0 2.765 1.41 5.205 3.549 6.643-6.662 1.934-11.549 8.081-11.549 15.357v1c0 1.13.391 2.162 1.026 3h-16.026v28h62v-28h-15zm-16-14c.675 0 1.334.064 1.984.157-.082 1.029-.935 1.843-1.984 1.843s-1.902-.814-1.984-1.843c.65-.093 1.309-.157 1.984-.157zm-6-8c0-3.309 2.691-6 6-6s6 2.691 6 6-2.691 6-6 6-6-2.691-6-6zm-8 23v-1c0-6.35 4.253-11.718 10.058-13.425.282 1.932 1.933 3.425 3.942 3.425s3.66-1.493 3.942-3.425c5.805 1.707 10.058 7.075 10.058 13.425v4h-4v-9h-2v9h-4v-7c0-2.757-2.243-5-5-5s-5 2.243-5 5v2h-4v2h6.5c.827 0 1.5.673 1.5 1.5s-.673 1.5-1.5 1.5h-5.5-2c-1.654 0-3-1.346-3-3zm3 5h2 3v4.351l5 6.25 5-6.25v-4.351h7v20h-22zm7.5-7h-.5v-2c0-1.654 1.346-3 3-3s3 1.346 3 3v12h-6v-3h.5c1.93 0 3.5-1.57 3.5-3.5s-1.57-3.5-3.5-3.5zm4.42 12-1.92 2.399-1.92-2.399zm28.08 19h-58v-24h16v22h26v-22h16zm-38-8h18v2h-18zm0-4h18v2h-18zm16-4h2v2h-2zm-2 2h-2v-2h2zm8-41v14h14v-9.586l2.707-2.707-1.414-1.414-1.293 1.293v-1.586zm12 12h-10v-10h10v1.586l-5 5-2.293-2.293-1.414 1.414 3.707 3.707 5-5zm-52 2h14v-14h-14zm2-12h10v10h-10zm8.707 2.707-2.293 2.293 2.293 2.293-1.414 1.414-2.293-2.293-2.293 2.293-1.414-1.414 2.293-2.293-2.293-2.293 1.414-1.414 2.293 2.293 2.293-2.293zm43.293 30.293h-2v-2h2zm0 4h-2v-2h2zm-2 4v-2h2v2zm-52 8h2v2h-2zm0-4h2v2h-2zm0-4h2v2h-2z" fill="url(#SVGID_1_)"/></svg>