<svg id="Layer_5" enable-background="new 0 0 64 64" height="512" viewBox="0 0 64 64" width="512" xmlns="http://www.w3.org/2000/svg" xmlns:xlink="http://www.w3.org/1999/xlink"><linearGradient id="SVGID_1_" gradientUnits="userSpaceOnUse" x1="32" x2="32" y1="63" y2="1"><stop offset="0" stop-color="#9f2fff"/><stop offset="1" stop-color="#0bb1d3"/></linearGradient><path d="m58 1h-24c-2.757 0-5 2.243-5 5v24h-.387c-1.005-3.912-3.888-6.98-7.569-8.297 1.785-1.27 2.956-3.35 2.956-5.703 0-.321-.028-.64-.072-.955.174-.041.289-.069.314-.075l.758-.189v-3.781c1.103 0 2-.897 2-2v-2c0-1.103-.897-2-2-2h-16c-1.103 0-2 .897-2 2h-1c-1.654 0-3 1.346-3 3v5.285c-1.228.669-2 2.442-2 3.715 0 1.654 1.346 3 3 3s3-1.346 3-3c0-1.273-.772-3.046-2-3.715v-5.285c0-.552.449-1 1-1h1c0 1.103.897 2 2 2v3.781l.757.188c.025.006.139.034.312.075-.043.316-.069.635-.069.956 0 2.358 1.175 4.443 2.968 5.712-4.636 1.662-7.968 6.087-7.968 11.288v4.5c0 1.93 1.57 3.5 3.5 3.5h1.5v18c0 2.206 1.794 4 4 4 1.2 0 2.266-.542 3-1.382.734.84 1.8 1.382 3 1.382 2.206 0 4-1.794 4-4v-21h5v20c0 2.757 2.243 5 5 5h24c2.757 0 5-2.243 5-5v-52c0-2.757-2.243-5-5-5zm-54 19c-.551 0-1-.448-1-1 0-.82.68-1.956.997-2 .323.044 1.003 1.18 1.003 2 0 .552-.449 1-1 1zm30-17h24c1.654 0 3 1.346 3 3v3h-30v-3c0-1.654 1.346-3 3-3zm-25.001 4h.001 16v2h-16zm14.001 4v2.204c-1.276.279-3.918.796-6 .796s-4.724-.517-6-.796v-2.204zm-11 5c0-.183.02-.364.039-.545 1.44.267 3.324.545 4.961.545 1.636 0 3.52-.277 4.959-.545.02.181.041.362.041.545 0 2.757-2.243 5-5 5s-5-2.243-5-5zm-5 21.5v-4.5c0-5.514 4.486-10 10-10 4.416 0 8.245 2.882 9.534 7h-10.534c-2.414 0-4.434 1.721-4.899 4h-2.101v2h7.5c.827 0 1.5.673 1.5 1.5s-.673 1.5-1.5 1.5h-8c-.827 0-1.5-.673-1.5-1.5zm12.649-1.5c-.564-1.178-1.758-2-3.149-2h-3.316c.414-1.161 1.514-2 2.816-2h4v4zm2.351-4h2v4h-2zm0 27c0 1.103-.897 2-2 2s-2-.897-2-2v-16h-2v16c0 1.103-.897 2-2 2s-2-.897-2-2v-18h4.5c1.758 0 3.204-1.308 3.449-3h2.051zm4-23v-4h3 2 2 2 7v4zm9 2h2.969c1.516 3.05 4.584 5 8.031 5 4.962 0 9-4.037 9-9s-4.038-9-9-9c-3.447 0-6.515 1.95-8.031 5h-2.969v-15h22v34h-22zm11.764-4-2.764 1.382v-2.764zm-3.528 4 8-4-8-4h-2.956c1.29-1.852 3.393-3 5.72-3 3.86 0 7 3.141 7 7s-3.14 7-7 7c-2.327 0-4.43-1.148-5.72-3zm-10.236 0v11c0 1.103.897 2 2 2h22c1.103 0 2-.897 2-2v-34c0-1.103-.897-2-2-2h-22c-1.103 0-2 .897-2 2v15h-2v-19h30v42h-30v-15zm25 23h-24c-1.654 0-3-1.346-3-3v-3h30v3c0 1.654-1.346 3-3 3zm-7-54h-2v-2h2zm-8 0h-2v-2h2zm4 0h-2v-2h2zm-6 50h10v2h-10zm12-12h2v2h-2zm-4 0h2v2h-2zm-4 0h2v2h-2zm-8-28h18v2h-18zm16 4h2v2h-2zm-16 0h14v2h-14z" fill="url(#SVGID_1_)"/></svg>