<?xml version="1.0" encoding="UTF-8" standalone="no"?>
<svg
   version="1.1"
   id="Layer_1"
   x="0px"
   y="0px"
   width="553.96545"
   viewBox="0 0 553.96545 497.28909"
   enable-background="new 0 0 1024 1024"
   xml:space="preserve"
   height="497.28909"
   xmlns="http://www.w3.org/2000/svg"
   xmlns:svg="http://www.w3.org/2000/svg"><defs
   id="defs155" />










<g
   id="g2"
   transform="matrix(1.0458176,0,0,1.0340262,-11.41742,-11.607078)"><path
     fill="#000000"
     opacity="1"
     stroke="none"
     d="m 314.93146,330.3276 c 2.09162,0.78529 3.61962,1.88153 4.85191,3.36853 1.62565,1.96158 1.70501,4.16783 0.73461,6.39847 -0.90482,2.07991 -2.81212,2.29506 -4.78985,2.27779 -1.51328,-0.0132 -3.06832,-0.19293 -4.53282,0.083 -4.38899,0.82722 -5.81703,5.18913 -2.88853,8.52846 5.87238,6.69613 4.95317,12.23123 -3.01398,16.3588 -5.1902,2.68888 -7.89144,6.72358 -8.58844,12.46799 -1.0276,8.46868 -6.87874,10.94005 -13.58541,5.79663 -3.16411,-2.42666 -6.48902,-4.20637 -10.49492,-4.91355 -3.97043,-0.70087 -6.54904,-3.59384 -6.41176,-6.44701 0.14586,-3.03111 3.21414,-5.424 7.48434,-5.61129 3.15231,-0.13823 6.31686,0.0277 9.47282,-0.0581 4.09657,-0.11143 7.62119,-1.8654 10.63119,-4.45349 4.72071,-4.05908 4.70604,-10.47898 0.0285,-14.57573 -3.15188,-2.76052 -6.1729,-5.6079 -8.4961,-9.11757 -3.39489,-5.12879 -8.23142,-8.14393 -14.14272,-9.40589 -10.19397,-2.17616 -16.71836,-8.87432 -21.79547,-17.39639 -1.29089,-2.16678 -2.34341,-4.47475 -3.61211,-6.65574 -4.69916,-8.07817 -13.55825,-9.351 -20.37852,-2.93096 -2.38467,2.24471 -4.2226,5.00735 -6.91354,6.98856 -4.41523,3.2507 -7.9106,3.47357 -12.53151,0.42455 -2.31484,-1.5273 -4.43136,-3.40512 -6.86663,-4.69035 -6.56159,-3.46278 -11.62267,-0.9566 -13.30687,6.26995 -0.49649,2.13041 -0.47605,4.25813 -0.51514,6.40001 -0.11358,6.22687 -2.40755,9.53763 -8.30634,11.64531 -4.72291,1.68753 -9.84456,2.40015 -13.78652,5.9218 -6.19479,5.53433 -10.56727,11.80003 -9.42428,20.74901 0.50508,3.95463 -2.36444,8.28064 -6.5488,9.6761 -6.66207,2.22189 -12.30572,5.55038 -16.51792,11.37019 -2.50647,3.46312 -6.28527,4.16788 -10.19433,2.35244 -6.58464,-3.05794 -12.78148,-2.53797 -19.21277,0.79206 -6.26368,3.24319 -10.8391,0.56801 -12.098828,-6.38862 -0.470875,-2.60036 -0.806902,-5.22681 -2.051803,-7.64593 -2.233068,-4.33929 -5.640364,-6.68299 -10.592458,-6.60345 -1.263173,0.0203 -2.52612,0.0681 -3.7893,0.0728 -4.134404,0.0155 -6.806594,-2.27081 -6.914412,-6.32882 -0.150954,-5.68153 -0.04823,-11.37043 -0.01926,-17.05594 0.01304,-2.56486 1.127825,-4.72853 3.062081,-6.27884 10.109997,-8.10311 12.039992,-19.83339 13.44493,-31.48491 1.029657,-8.53919 5.406515,-12.50696 13.73516,-9.93822 11.93773,3.68186 23.71255,7.88885 35.59724,11.74759 3.20183,1.03958 6.43336,2.40807 9.95748,1.6138 6.62258,-1.49255 9.76214,-5.47213 10.44638,-14.33818 0.44589,-5.77765 0.44496,-11.62948 0.1094,-17.41708 -0.36434,-6.28334 -4.10809,-10.73911 -9.2848,-13.94538 -2.99903,-1.8575 -6.209,-3.37574 -9.33281,-5.03003 -1.23682,-0.65492 -2.39989,-1.38292 -3.30516,-2.48531 -1.74949,-2.13054 -2.42252,-4.52482 -1.19499,-7.04761 1.26686,-2.60364 4.02481,-3.92297 6.35962,-2.92836 8.28934,3.53123 15.69949,1.75832 22.9822,-2.59467 1.22717,-0.73346 2.67688,-0.35823 4.07631,-0.12074 7.70614,1.30805 14.34768,0.18549 18.18194,-7.77963 1.42945,-2.96952 4.04069,-4.98949 7.24168,-5.69009 7.51353,-1.64444 12.62011,-6.4213 14.95978,-13.22816 3.85765,-11.22309 11.08991,-15.98984 22.73412,-14.60601 2.44887,0.29104 4.73926,-0.69646 6.78465,-2.03329 3.996,-2.61174 5.18493,-7.46783 2.30064,-11.11461 -2.36855,-2.99466 -3.19008,-6.0902 -2.93497,-9.79975 0.25082,-3.64782 -0.0332,-7.3296 0.12615,-10.98735 0.17015,-3.90227 2.72678,-6.33308 6.48997,-6.48406 4.26808,-0.17125 6.86212,1.77022 7.62904,5.71231 0.85227,4.38075 0.44251,8.81841 0.59445,13.23074 0.18163,5.27527 2.73538,7.9439 8.0628,7.78883 4.01282,-0.11683 7.54314,0.62821 10.34539,3.61856 4.89983,5.22864 10.51822,5.40337 16.54713,2.36298 1.79365,-0.90454 3.62693,-1.90181 5.10348,-3.23234 4.90069,-4.41607 10.46023,-4.60396 16.31309,-2.76908 4.46673,1.40039 8.80963,1.89214 13.31784,0.1211 7.30376,-2.86927 8.5864,-8.32298 3.05948,-13.81097 -1.84441,-1.83143 -2.90723,-3.82184 -2.04114,-6.44254 0.92575,-2.80112 3.14356,-3.9014 5.84984,-3.97355 4.54552,-0.12118 9.09607,-0.063 13.64448,-0.0623 19.71086,0.003 39.42601,-0.22152 59.13029,0.14184 7.20634,0.13286 12.51238,-2.27961 17.30565,-7.47296 9.93665,-10.76589 20.38253,-21.0625 30.29123,-31.85308 4.53944,-4.94344 9.93275,-4.09559 15.41885,-3.64868 1.72876,0.14085 2.70217,1.80105 3.65305,3.11758 4.26357,5.90318 7.23966,12.44539 9.06929,19.46539 1.20614,4.62796 -0.79366,6.99532 -5.56459,6.99053 -7.20193,-0.007 -14.40385,-0.0591 -21.60578,-0.0837 -1.13678,-0.004 -2.28132,-0.0413 -3.40911,0.0696 -3.87185,0.38116 -6.84395,3.46849 -6.72506,6.91424 0.11917,3.45401 2.83758,6.16705 6.81067,6.24305 8.71505,0.1668 17.43444,0.11193 26.15204,0.1412 1.89443,0.006 3.78813,-0.0643 5.64067,0.48535 3.19206,0.94686 5.72271,4.17029 5.39346,6.9198 -0.35667,2.97845 -3.20313,5.48907 -6.63362,5.695 -2.14127,0.12852 -4.30291,-0.0549 -6.44016,0.10522 -4.23192,0.31737 -6.28325,2.49841 -6.3198,6.49913 -0.0376,4.11035 2.16043,6.85643 6.15527,7.23329 2.7571,0.26011 5.55769,0.0181 8.33266,0.14039 4.34938,0.19159 6.70696,2.61183 6.85566,6.90147 0.34361,9.9115 0.0996,13.47896 -12.89173,13.40076 -47.25399,-0.28439 -94.51068,-0.16803 -141.76621,-0.10662 -4.1272,0.005 -7.4332,-0.61659 -10.24156,-4.19839 -3.04061,-3.878 -7.96587,-4.27782 -12.00597,-1.9027 -3.86609,2.27282 -5.89446,7.0879 -4.81465,11.42948 1.26083,5.0696 4.66179,8.09233 9.62112,8.05943 3.13264,-0.0208 6.26163,-0.86786 9.39237,-0.86876 50.41436,-0.0145 100.82872,0.0486 151.24308,0.0872 2.15452,0.001 4.30547,0.006 6.35645,0.77979 2.9995,1.13163 5.15008,3.25927 4.77458,6.49822 -0.38522,3.32276 -2.7515,5.3874 -6.23547,5.539 -2.76922,0.12046 -5.55993,0.0334 -8.32733,-0.15892 -3.92682,-0.27303 -7.82481,-0.0914 -11.72742,0.3015 -3.05961,0.30807 -5.33153,1.65305 -6.02177,4.81655 -0.68296,3.13047 0.0764,5.75771 3.08627,7.42302 0.88053,0.48716 1.76435,1.01413 2.52441,1.66549 3.34867,2.86952 3.40869,7.0483 -0.0483,9.77102 -2.77468,2.18537 -5.82125,4.0507 -9.10106,5.39887 -6.28472,2.58345 -11.43997,-0.52604 -12.06755,-7.30918 -0.42595,-4.60413 -2.80721,-7.35892 -7.15549,-8.69797 -11.83033,-3.64323 -22.51496,4.03895 -22.7551,16.413 -0.13444,6.92734 -1.91882,8.58885 -8.9687,8.45372 -2.01725,-0.0386 -4.05527,-0.0936 -6.05203,0.13546 -3.65571,0.41946 -5.61942,2.58804 -5.6446,5.91842 -0.0274,3.63712 2.25211,6.37904 5.84962,6.68304 2.63514,0.22264 5.32241,-0.10501 7.94517,0.18543 4.66567,0.5167 6.47565,3.9239 4.55633,8.16517 -2.56125,5.65975 -1.33183,10.03744 4.19657,13.43034 7.41528,4.55093 15.18617,5.03467 23.1237,1.2795 3.84342,-1.81835 6.95413,-4.59405 9.732,-7.72872 4.55601,-5.14125 9.96659,-7.93083 17.05248,-7.19084 3.24934,0.33931 6.56496,0.005 9.84907,0.0615 3.32294,0.0571 6.18028,-0.9759 8.62495,-3.24371 0.82629,-0.76655 1.73913,-1.4807 2.71623,-2.03603 2.75529,-1.56596 5.62744,-1.68022 8.19484,0.2418 2.50336,1.87406 2.88585,4.57608 2.13064,7.51617 -3.3222,12.93331 -8.74814,24.9968 -15.07465,36.69751 -3.49596,6.46567 -7.40345,12.63108 -12.31958,18.13768 -2.23443,2.5028 -4.28691,4.03353 -8.11756,2.74243 -5.16164,-1.73973 -9.89175,0.1746 -12.64246,5.02564 -5.44685,9.6058 -12.89047,8.77326 -19.86149,4.52449 -11.26963,-6.86875 -18.47565,-16.6083 -19.55453,-30.19099 -0.21717,-2.73456 0.3818,-5.33431 1.86945,-7.59989 1.80719,-2.75228 0.62878,-4.10684 -1.94775,-5.09768 -7.51371,-2.88987 -14.8973,-1.862 -22.18898,0.79148 -3.94144,1.43434 -7.63395,3.36144 -10.58009,6.464 -6.29116,6.62514 -4.36438,16.27593 3.97795,20.01027 1.14982,0.51466 2.32519,1.03182 3.35602,1.74083 2.36208,1.6245 3.61769,3.8997 3.19804,6.81119 -0.38393,2.6631 -2.19005,4.46539 -4.6346,4.96903 -4.55003,0.9375 -6.45742,3.39208 -5.95044,7.99621 0.3262,2.96258 -1.0016,5.14884 -3.82801,6.27223 -2.81606,1.11923 -5.24916,0.1965 -7.29118,-1.73718 -3.06484,-2.90213 -4.45888,-6.69997 -5.12059,-10.75386 -0.8003,-4.90236 -2.66922,-9.36687 -6.36386,-12.62261 -5.7584,-5.07427 -8.01625,-11.43605 -8.08646,-18.82505 -0.0708,-7.46606 -3.50466,-12.65589 -9.71557,-16.85814 -6.50102,-4.39849 -13.03388,-7.63364 -21.07591,-6.77916 -2.57393,0.27346 -4.25576,-1.34201 -5.83087,-3.01037 -5.72355,-6.06218 -11.4,-12.16881 -17.11935,-18.235 -2.67615,-2.83846 -5.9423,-3.67109 -9.68449,-2.61726 -3.9066,1.10021 -6.23721,3.75915 -7.11662,7.62359 -0.87448,3.84301 0.4754,7.30163 3.52432,9.39658 7.98173,5.48443 13.67984,13.06943 19.48933,20.51188 5.24601,6.72047 12.84742,7.99325 20.2728,9.93146 2.55842,0.66774 5.09862,1.40527 7.91662,2.2274 m -23.33471,-61.92431 c 8.20525,-0.003 16.4106,0.007 24.6158,-0.0169 2.90639,-0.008 5.24472,-1.19991 6.30897,-3.96899 0.93111,-2.42274 0.34684,-4.73468 -1.55508,-6.60177 -1.64773,-1.61751 -3.71268,-1.99786 -5.92851,-1.99688 -9.59401,0.004 -19.18797,-0.0271 -28.78197,-0.0299 -21.20796,-0.006 -42.41597,-0.0205 -63.62388,0.01 -4.99392,0.006 -8.57999,2.38673 -10.22601,6.9264 -1.47666,4.07259 -1.07632,7.94962 2.06583,11.249 4.11727,4.32314 10.90211,3.8342 15.61023,-1.61584 2.59281,-3.00144 5.45835,-3.9917 9.25192,-3.96935 17.16759,0.10109 34.33624,0.0258 52.2627,0.0151 m 142.23311,-75.87286 c 6.26601,0.44632 10.38034,-1.84424 12.1209,-6.74808 1.50427,-4.23817 0.1064,-8.97687 -3.40049,-11.52724 -4.76523,-3.46547 -9.26104,-3.30151 -14.10461,0.761 -1.42666,1.19662 -2.90871,1.29996 -4.56286,1.29778 -9.34036,-0.0124 -18.6814,-0.0707 -28.02069,0.0298 -3.58107,0.0385 -6.76065,-0.3384 -9.94516,-2.50428 -4.49048,-3.05411 -10.52474,-1.73581 -13.2464,2.17378 -3.13971,4.51007 -2.59891,10.72855 1.23091,14.15333 3.93931,3.52269 10.06201,3.39799 14.02108,-0.59336 1.77068,-1.78509 3.59274,-2.43465 6.02491,-2.40653 8.32947,0.0962 16.66225,0.12529 24.99069,-0.0115 3.99897,-0.0656 7.75576,-0.10554 10.58719,3.4925 0.75917,0.96468 2.4349,1.20809 4.30453,1.88282 m -63.25985,101.40831 c -6.71913,0.94618 -11.67937,-1.82803 -15.38522,-7.26581 -0.14026,-0.20585 -0.35624,-0.35843 -0.51335,-0.55474 -3.62217,-4.52662 -8.45617,-6.03094 -14.07675,-5.87072 -7.56205,0.21561 -15.12856,0.27276 -22.69338,0.38666 -3.27893,0.0493 -6.56581,-0.057 -9.83537,0.13758 -3.86791,0.23014 -6.05237,2.47707 -6.0557,5.87747 -0.004,3.4875 2.42023,6.23733 5.97124,6.65152 1.24653,0.14536 2.51959,0.0828 3.78052,0.0833 8.8301,0.004 17.66172,0.0933 26.48955,-0.0488 3.54285,-0.0571 6.39939,1.04375 8.78007,3.58639 1.29286,1.3808 2.82965,2.59138 3.87313,4.13743 4.49408,6.65859 11.16101,6.58331 17.9354,5.79472 3.15065,-0.36674 5.79264,-2.04335 6.35751,-5.56088 0.54063,-3.367 -0.5991,-5.96531 -4.62764,-7.3542 m 2.5724,-53.84888 c -7.27928,-6.46968 -16.41892,-6.38093 -22.63737,0.21983 -5.7324,6.08479 -5.61892,16.1058 0.24832,21.94126 6.06485,6.03194 16.19448,6.09627 22.65062,0.14382 6.39453,-5.89566 6.44594,-14.8147 -0.26157,-22.30491 m -34.7594,-55.70901 c 1.90268,6.7292 7.26271,9.85996 13.1213,7.66408 5.74318,-2.15262 8.49745,-8.50828 6.02783,-13.90974 -1.96509,-4.29794 -6.84227,-6.60406 -11.69922,-5.53183 -4.85141,1.07099 -7.50099,5.00303 -7.44991,11.77749 m -93.56501,52.74399 c 3.22257,5.51877 8.51382,7.2642 13.74848,4.53533 4.82668,-2.51627 6.66465,-7.61641 4.52356,-12.5526 -2.04939,-4.72478 -7.71413,-7.159 -12.69559,-5.45551 -5.15357,1.76244 -7.55343,7.10902 -5.57645,13.47278 m -34.80926,-12.37738 c -3.5945,2.69693 -5.66169,6.15606 -4.56386,10.73012 1.37519,5.7298 7.78417,8.86887 13.47412,6.83061 4.80186,-1.72015 7.27354,-7.49613 5.32586,-12.44592 -2.37731,-6.04167 -7.84233,-8.19874 -14.23612,-5.11481 m 65.85425,9.78758 c 0.24731,0.97563 0.38722,1.99452 0.7605,2.91934 1.63477,4.05033 6.76837,6.16139 11.09355,4.62048 4.66809,-1.66309 7.14581,-6.39616 5.66465,-10.82064 -1.4094,-4.21004 -5.25056,-6.72122 -9.63705,-6.30022 -4.55148,0.43677 -7.04491,3.26152 -7.88165,9.58104 m 51.78212,10.21463 c 4.73492,-2.47332 6.46284,-6.35298 4.66852,-10.48193 -1.60252,-3.68761 -6.07324,-5.72569 -9.76472,-4.45161 -4.04289,1.39542 -6.27486,5.56028 -5.19012,9.68471 1.09868,4.17704 5.04217,6.3577 10.28632,5.24883 z"
     id="path132"
     style="stroke-width:0.758217" /><path
     fill="#000000"
     opacity="1"
     stroke="none"
     d="m 398.12703,102.72178 c -3.66355,0.002 -6.94826,-0.0127 -10.23274,0.008 -4.74889,0.0312 -7.74062,2.52541 -7.6823,6.37201 0.0561,3.70666 2.83928,6.021 7.67208,6.06325 9.60053,0.084 19.20211,0.0327 28.80329,0.0546 1.26038,0.003 2.55126,-0.0461 3.77368,0.1993 1.89188,0.37989 3.64795,1.14543 4.44958,3.12416 0.86724,2.14071 -0.75211,3.27104 -1.96843,4.49848 -6.75662,6.81861 -13.57737,13.57415 -20.28883,20.43673 -2.07953,2.1264 -4.34141,3.16869 -7.37862,3.06336 -6.43161,-0.22304 -12.87293,0.0916 -19.30801,-0.44658 -2.14498,-0.17938 -3.89904,-0.73887 -5.40215,-2.27012 -7.25416,-7.3903 -14.50483,-14.78443 -21.81997,-22.11413 -1.94899,-1.95286 -1.79779,-3.49787 0.0725,-5.44641 8.57126,-8.92975 17.04057,-17.957363 25.56047,-26.936536 1.65498,-1.744255 3.32057,-3.462554 4.37302,-5.673827 1.31646,-2.766094 0.80741,-5.225855 -1.43813,-7.177027 -2.27002,-1.972341 -4.83062,-2.224895 -7.20621,-0.167339 -5.54246,4.800451 -10.55695,10.143281 -15.56759,15.482628 -2.76519,2.946564 -5.82805,5.704159 -8.11297,8.994061 -6.72205,9.67873 -17.44902,10.75257 -27.50242,13.10882 -4.42616,1.03742 -7.12277,-0.87592 -8.99929,-5.13077 -2.14285,-4.85866 -3.77729,-9.914486 -5.05539,-15.061572 -0.85541,-3.444877 0.0136,-6.48964 2.91453,-8.811841 3.26352,-2.612387 6.36079,-5.416893 8.73407,-8.891898 3.38416,-4.955157 3.46464,-10.171407 0.75503,-15.405572 -1.93341,-3.734649 -6.60141,-5.726938 -10.65938,-4.799617 -3.39915,0.776748 -6.4142,4.048383 -5.98164,8.202334 0.80977,7.775191 -2.66384,13.129542 -8.3967,17.468853 -8.43026,6.381038 -10.3823,15.013384 -9.24683,24.927623 0.47634,4.15931 2.29941,7.00616 6.25232,8.6505 8.1462,3.38862 9.34346,9.6117 2.68579,15.33396 -4.8291,4.15061 -7.06866,9.00037 -6.59062,15.29052 0.18118,2.38445 0.0649,4.80177 -0.056,7.19703 -0.4041,8.00909 -9.46783,16.65835 -17.44498,16.70933 -4.10407,0.0261 -6.81797,-2.16034 -6.3312,-6.19306 1.22345,-10.13592 -4.01722,-18.33601 -7.66436,-26.94004 -2.41908,-5.70705 -8.51575,-6.51819 -13.20866,-2.4195 -3.12774,2.73164 -5.92894,5.82359 -9.79224,7.66066 -7.67238,3.64841 -14.93299,-1.16829 -14.30626,-9.27009 0.59258,-7.66063 0.25676,-15.40519 0.0984,-23.10807 -0.13495,-6.56333 2.74038,-11.109699 8.51657,-13.943709 3.85408,-1.890977 7.62952,-4.034139 11.65264,-5.468583 7.26479,-2.59022 11.44141,-7.882551 14.38489,-14.639632 4.891,-11.227844 10.17858,-22.289245 14.8238,-33.615703 3.43666,-8.379649 8.99597,-14.104396 17.47378,-17.209968 4.97264,-1.82154 9.82039,-3.982646 14.73412,-5.9668 1.54564,-0.624126 2.95878,-1.40267 4.0322,-2.722619 2.76917,-3.405181 6.36815,-4.690495 10.718,-4.492144 3.9077,0.178172 7.83312,-0.06952 11.74592,0.04094 5.62678,0.158862 8.21677,3.599746 6.92566,8.994859 -1.47463,6.162072 0.83027,9.144205 7.17465,9.233356 3.03142,0.04262 6.07359,0.182473 9.09373,-0.0022 6.92535,-0.424025 13.29179,0.650437 18.67257,5.542881 1.80234,1.638771 4.27108,2.038291 6.75786,2.017462 5.17918,-0.04337 10.35907,0.01448 15.53863,5.99e-4 1.78489,-0.0046 3.52336,0.175695 5.21097,0.796143 4.62608,1.700732 6.31333,5.328366 4.60183,9.938149 -2.36272,6.364014 1.17116,11.684282 8.07531,11.973982 3.65737,0.153456 7.32606,0.05331 10.9896,0.03965 2.20264,-0.0082 4.28051,0.431009 6.10886,1.694189 3.39309,2.344209 3.99961,6.388294 1.22413,9.389753 -2.28006,2.465713 -3.32551,5.021289 -1.7927,8.229296 1.48784,3.113783 4.05278,4.33859 7.39163,4.217185 0.75707,-0.02752 1.53556,0.102762 2.27077,-0.02783 9.11975,-1.619308 13.74633,3.906404 17.29649,10.968179 2.62849,5.228487 0.66946,8.371875 -5.13069,8.387445 -15.53829,0.0417 -31.07679,0.0314 -46.99406,0.0422 m -58.2706,-55.269782 c -3.19867,1.837022 -3.43251,4.824554 -2.79074,7.919783 0.5943,2.866499 2.95568,4.254512 5.57505,4.297966 10.20389,0.169378 20.41886,0.287455 30.61623,-0.02085 4.9385,-0.149315 7.73197,-4.548253 6.13696,-8.726708 -1.18954,-3.116027 -3.83218,-4.255414 -6.93155,-4.278691 -9.70327,-0.07287 -19.40727,-0.06384 -29.11086,-0.03011 -0.97739,0.0031 -1.95344,0.390095 -3.49509,0.838648 m 70.82938,29.36596 c -0.3493,-0.942516 -0.55487,-1.973796 -1.07272,-2.81221 -2.23966,-3.625821 -5.55676,-5.50334 -9.81077,-5.21408 -3.74716,0.254806 -6.76503,1.839865 -8.18623,5.66117 -1.59321,4.283431 -0.47647,8.032052 2.5339,11.116483 2.97326,3.046372 6.81048,3.093254 10.56487,1.721602 4.15593,-1.518365 6.01783,-4.802006 5.97095,-10.472965 m -24.198,61.851554 c 6.45067,0.28741 9.47692,-6.41458 6.58826,-10.52791 -1.79443,-2.55512 -4.27247,-3.91737 -7.4711,-3.00191 -3.34667,0.9579 -5.42067,3.15544 -5.48147,6.76206 -0.0653,3.87214 2.15872,5.94267 6.36431,6.76776 z"
     id="path134"
     style="stroke-width:0.758217" /><path
     fill="#000000"
     opacity="1"
     stroke="none"
     d="m 177.75131,197.02867 c 7.90202,6.90069 8.01082,8.42083 0.70849,15.78734 -10.98775,11.08432 -6.81754,9.56177 -22.54232,9.33875 -6.7604,-0.0959 -12.70086,0.94338 -17.95018,5.33672 -1.75256,1.46683 -3.97079,2.25249 -6.25789,2.51997 -3.94664,0.46158 -7.83384,-2.64894 -8.07457,-6.33233 -0.22906,-3.50462 2.3038,-5.88697 6.55807,-6.16826 6.93025,-0.45827 8.62509,-3.72174 4.93929,-9.51084 -1.96232,-3.08211 -1.06071,-6.30123 2.52372,-8.67105 2.72819,-1.80374 5.80961,-3.10117 7.99582,-5.66838 6.07577,-7.13471 6.34726,-17.89489 -0.6711,-24.35028 -5.47102,-5.03214 -7.32321,-10.44758 -6.49831,-17.39194 0.20707,-1.74324 0.005,-3.53295 0.0256,-5.30088 0.0638,-5.60727 3.12155,-8.90544 8.69375,-9.39945 0.12567,-0.0111 0.25294,-0.005 0.3784,-0.0181 14.7297,-1.48262 19.11824,6.29568 15.114,18.00875 -1.37961,4.03557 -0.87831,7.74903 0.84695,11.6816 3.03926,6.92761 5.57858,14.07485 8.31428,21.13515 1.29271,3.33618 3.00336,6.39453 5.89596,9.00326 z"
     id="path136"
     style="stroke-width:0.758217" /><path
     fill="#000000"
     opacity="1"
     stroke="none"
     d="m 87.719657,59.111416 c 0.01941,-2.504715 -0.0031,-4.653584 0.06172,-6.799837 0.205128,-6.80384 6.446383,-11.140702 12.041803,-7.451055 6.33014,4.174149 12.88725,4.402691 19.86252,4.345885 5.66316,-0.04617 8.9093,3.423006 8.8723,8.981833 -0.0201,3.031896 0.0634,6.069182 -0.0903,9.09439 -0.22873,4.502563 -3.49488,7.969234 -7.98856,8.061236 -8.33459,0.170645 -16.6781,0.167476 -25.01243,-0.01388 -4.68422,-0.101947 -7.491486,-2.847134 -7.915093,-7.551928 -0.246936,-2.742658 0.09121,-5.537974 0.168036,-8.666664 z"
     id="path138"
     style="stroke-width:0.758217" /><path
     fill="#000000"
     opacity="1"
     stroke="none"
     d="m 112.66463,204.63277 c -3.1329,1.72908 -5.96913,3.30083 -9.51689,2.05481 -4.75174,-1.6689 -6.78609,-5.83056 -4.84108,-10.52943 0.72226,-1.74483 1.73456,-3.36725 2.52603,-5.08628 1.48968,-3.23558 2.48154,-6.40504 1.60802,-10.1973 -1.24689,-5.41329 1.79035,-8.95465 7.34201,-8.78736 4.9128,0.14807 9.20205,-1.0139 13.0028,-4.14772 2.16218,-1.78278 4.751,-2.33673 7.49257,-1.87844 2.99158,0.50008 5.02122,2.26437 6.04548,5.11363 0.98161,2.73049 0.0913,5.01293 -2.02394,6.77571 -3.1296,2.60812 -4.60084,5.78125 -4.48198,9.92539 0.15894,5.54159 -3.45071,8.7066 -7.87089,11.09063 -3.11637,1.68079 -6.20505,3.38632 -9.28213,5.66636 z"
     id="path140"
     style="stroke-width:0.758217" /><path
     fill="#000000"
     opacity="1"
     stroke="none"
     d="m 227.27615,348.95379 c 0.006,-4.38667 2.22267,-8.26113 4.33229,-12.01329 1.10976,-1.97384 -2.7377,-4.08168 -3.40751,-5.94547 -1.28651,-3.58007 -0.84593,-6.76602 2.18252,-9.22165 2.33835,-1.89611 7.11582,-1.5591 9.57479,0.44495 2.60695,2.12467 3.89352,8.84461 0.25714,10.75498 -6.67217,3.50523 -0.0371,3.814 1.75517,6.36478 0.7536,1.07249 1.01163,2.28914 1.00721,3.58302 -0.0173,5.04776 0.0879,10.09912 -0.0706,15.1423 -0.14742,4.69512 -3.41883,7.7154 -8.05084,7.76325 -4.19144,0.0433 -7.3666,-3.17392 -7.53959,-7.79125 -0.10859,-2.8988 -0.033,-5.80445 -0.0406,-9.08162 z"
     id="path142"
     style="stroke-width:0.758217" /><path
     fill="#000000"
     opacity="1"
     stroke="none"
     d="m 336.70714,145.83635 c -4.15473,-0.01 -7.93328,-0.0915 -11.7071,0.007 -3.69672,0.0971 -6.7742,-0.68463 -8.10399,-4.64408 -1.24872,-3.71803 0.0635,-8.20887 3.10505,-10.5465 4.9614,-3.81317 16.54402,-3.40569 21.11947,0.80598 2.86996,2.64171 5.65686,5.37395 8.46486,8.08239 1.08841,1.04986 2.37615,2.11523 1.69178,3.86427 -0.68436,1.74907 -2.33869,2.29495 -3.99812,2.35999 -3.3937,0.133 -6.79536,0.0631 -10.57195,0.0703 z"
     id="path144"
     style="stroke-width:0.758217" /><path
     fill="#000000"
     opacity="1"
     stroke="none"
     d="m 389.13848,372.45452 c 4.52258,0.11168 8.69023,-0.21505 12.84095,0.41109 3.31622,0.50028 5.2846,2.33065 5.71022,5.61133 0.3903,3.00834 -1.9141,6.47436 -5.11162,7.04901 -5.3238,0.95674 -10.71162,1.73009 -16.10479,2.07384 -4.36993,0.27845 -8.22464,-3.68011 -8.25536,-7.73377 -0.032,-4.20962 3.08807,-7.13512 7.90633,-7.38998 0.88154,-0.0466 1.76727,-0.0163 3.01427,-0.0215 z"
     id="path146"
     style="stroke-width:0.758217" /><path
     fill="#000000"
     opacity="1"
     stroke="none"
     d="m 184.27415,347.26735 c 3.64565,1.43969 5.7624,3.82823 5.3026,7.56753 -0.41913,3.40864 -3.54879,1.67587 -6.9737,2.44681 -3.46735,0.78048 -5.18413,3.45264 -7.10992,0.57647 -1.73965,-2.59817 -2.7956,-7.7237 0.18128,-7.79328 4.87656,-0.11397 4.96616,-3.57876 8.59974,-2.79753 z"
     id="path148"
     style="stroke-width:0.758217" /><ellipse
     style="fill:#000000;stroke:#000000;stroke-width:0.243584;stroke-linecap:round;stroke-linejoin:round;stroke-opacity:1"
     id="path580"
     cx="362.10831"
     cy="251.05103"
     rx="5.8518229"
     ry="6.0798163" /></g><path
   style="font-size:12px;font-family:'FiraCode Nerd Font Mono';-inkscape-font-specification:'FiraCode Nerd Font Mono, Normal';white-space:pre;stroke-width:7.76764"
   d="m 102.51069,444.0656 q 0,10.01231 -2.718673,17.6773 -2.718669,7.66491 -8.108317,12.02435 -5.341952,4.31157 -13.354875,4.31157 -8.012924,0 -13.402565,-4.21574 -5.341951,-4.26361 -8.06062,-11.88064 -2.718677,-7.61704 -2.718677,-17.82101 0,-10.01239 2.718677,-17.72525 2.718669,-7.71279 8.06062,-12.07223 5.389641,-4.40739 13.402565,-4.40739 8.012923,0 13.354875,4.26361 5.389648,4.26369 8.108317,11.97655 2.718673,7.66491 2.718673,17.86888 z m -8.680672,0 q 0,-13.17415 -3.624892,-20.16841 -3.577195,-6.99425 -11.876301,-6.99425 -8.299099,0 -11.923991,7.04213 -3.577203,7.04221 -3.577203,20.21636 0,13.17415 3.720287,20.07258 3.720286,6.85055 11.780907,6.85055 8.299106,0 11.876301,-6.89842 3.624892,-6.94639 3.624892,-20.12054 z m 45.406612,27.06684 q 3.76799,0 7.01132,-1.1976 3.29102,-1.24556 6.05738,-3.20972 l 3.91107,5.26963 q -3.29102,2.82648 -7.91753,4.45527 -4.62651,1.6288 -9.06224,1.6288 -7.48827,0 -12.78252,-3.20972 -5.24656,-3.25759 -8.01292,-9.10212 -2.76637,-5.89241 -2.76637,-13.79693 0,-7.56908 2.76637,-13.55732 2.76636,-5.98824 8.06062,-9.43749 5.29425,-3.49713 12.83022,-3.49713 9.58689,0 16.78898,5.84453 l -3.91107,5.36546 q -6.53435,-4.50314 -12.97331,-4.50314 -6.48665,0 -10.68389,4.93426 -4.19725,4.88639 -4.19725,14.85083 0,10.10822 4.19725,14.65924 4.19724,4.50315 10.68389,4.50315 z m 57.23522,0 q 3.76799,0 7.01131,-1.1976 3.29103,-1.24556 6.05739,-3.20972 l 3.91107,5.26963 q -3.29102,2.82648 -7.91753,4.45527 -4.62652,1.6288 -9.06224,1.6288 -7.48827,0 -12.78252,-3.20972 -5.24656,-3.25759 -8.01293,-9.10212 -2.76636,-5.89241 -2.76636,-13.79693 0,-7.56908 2.76636,-13.55732 2.76637,-5.98824 8.06063,-9.43749 5.29425,-3.49713 12.83021,-3.49713 9.5869,0 16.78898,5.84453 l -3.91106,5.36546 q -6.53435,-4.50314 -12.97331,-4.50314 -6.48665,0 -10.6839,4.93426 -4.19724,4.88639 -4.19724,14.85083 0,10.10822 4.19724,14.65924 4.19725,4.50315 10.6839,4.50315 z m 53.56262,-68.21802 q 2.67098,0 4.24495,1.6288 1.62166,1.6288 1.62166,3.9762 0,2.44315 -1.62166,4.1199 -1.57397,1.6288 -4.24495,1.6288 -2.52788,0 -4.14954,-1.6288 -1.62167,-1.67675 -1.62167,-4.1199 0,-2.3474 1.62167,-3.9762 1.62166,-1.6288 4.14954,-1.6288 z m 6.39127,23.61759 v 44.07348 h 14.1657 v 6.37148 h -37.67982 v -6.37148 h 15.5012 v -37.702 h -15.02424 v -6.37148 z m 72.64102,-5.36546 2.48019,7.56915 q -3.24333,1.00602 -6.86822,1.24556 -3.57721,0.23977 -7.82215,0.23977 8.72837,4.02407 8.72837,12.69508 0,7.47333 -5.00808,12.31184 -4.96038,4.83844 -13.87953,4.83844 -2.52789,0 -4.24494,-0.23977 -1.66936,-0.23977 -3.24333,-0.71853 -1.1447,0.81436 -1.90784,2.15574 -0.71545,1.29343 -0.71545,2.73065 0,1.82045 1.43088,3.01805 1.43088,1.19768 5.29425,1.19768 h 9.06224 q 5.05577,0 9.06223,1.82038 4.00646,1.82045 6.34357,4.93434 2.3371,3.06601 2.3371,6.94638 0,7.42538 -6.29586,11.40157 -6.24818,3.9762 -17.69521,3.9762 -8.01293,0 -12.63944,-1.67667 -4.62651,-1.62879 -6.62974,-5.03017 -1.95554,-3.35334 -1.95554,-8.47935 h 7.24979 q 0,2.92231 1.14471,4.83852 1.1447,1.91628 4.14955,2.82647 3.00484,0.95814 8.63297,0.95814 8.2991,0 12.11478,-2.10786 3.81567,-2.06 3.81567,-6.1799 0,-3.59296 -3.24332,-5.41334 -3.24333,-1.82045 -8.10832,-1.82045 h -8.96684 q -6.53435,0 -9.58689,-2.87435 -3.05254,-2.87435 -3.05254,-6.61102 0,-5.17388 5.53273,-8.81471 -8.44219,-4.50315 -8.44219,-13.94064 0,-5.12592 2.52789,-9.05425 2.52788,-3.97612 7.059,-6.22777 4.53112,-2.25157 10.44542,-2.25157 6.34357,0 10.30233,-0.52703 3.95877,-0.52702 6.77283,-1.48509 2.86176,-0.95806 5.81891,-2.25157 z m -22.89407,10.15609 q -6.05739,0 -8.96685,3.30547 -2.86175,3.30555 -2.86175,8.33564 0,5.12593 2.90945,8.43147 2.95715,3.30547 9.10993,3.30547 5.29425,0 8.10832,-3.11388 2.81406,-3.11389 2.81406,-8.67093 0,-11.59324 -11.11316,-11.59324 z m 58.85688,-25.10275 v 58.30153 q 0,3.73667 2.28941,5.31759 2.3371,1.53296 6.00968,1.53296 2.24172,0 4.29264,-0.47876 2.09863,-0.47876 4.14956,-1.29343 l 2.14631,5.89241 q -2.05092,1.00602 -5.10347,1.77258 -3.00484,0.81436 -6.82052,0.81436 -6.67744,0 -10.82699,-3.68879 -4.14955,-3.73666 -4.14955,-10.29972 v -51.49894 h -15.4058 v -6.37148 z m 56.80595,19.25822 q 10.6362,0 16.07354,7.13796 5.43735,7.13797 5.43735,19.11452 0,7.71278 -2.48019,13.65315 -2.48019,5.94036 -7.29749,9.34166 -4.81729,3.35342 -11.82861,3.35342 -10.63619,0 -16.12124,-7.18592 -5.48503,-7.18584 -5.48503,-19.06656 0,-7.76074 2.48019,-13.7011 2.48019,-5.98824 7.29748,-9.29371 4.865,-3.35342 11.924,-3.35342 z m 0,6.56306 q -6.48665,0 -9.82537,4.83852 -3.29103,4.83851 -3.29103,14.94665 0,10.01239 3.24333,14.8509 3.29102,4.79056 9.77767,4.79056 6.48666,0 9.72999,-4.83851 3.29102,-4.83851 3.29102,-14.8987 0,-10.06027 -3.24333,-14.8509 -3.24333,-4.83852 -9.68228,-4.83852 z m 77.98297,42.39681 q -2.57559,1.72463 -6.24818,2.68269 -3.67259,0.95815 -7.20209,0.95815 -8.10832,0 -12.49635,-4.26361 -4.38802,-4.26361 -4.38802,-10.97046 v -30.08497 h -11.54243 v -6.22777 h 11.54243 v -11.44953 l 8.01292,-0.95807 v 12.4076 h 17.36134 l -0.95392,6.22777 h -16.40742 v 29.98914 q 0,4.21574 2.19402,6.41943 2.2417,2.20362 7.39287,2.20362 2.81406,0 5.19886,-0.67104 2.3848,-0.67104 4.43573,-1.72463 z"
   id="text2"
   aria-label="Occiglot" /></svg>
