<?xml version="1.0" standalone="no"?>
<!DOCTYPE svg PUBLIC "-//W3C//DTD SVG 20010904//EN"
 "http://www.w3.org/TR/2001/REC-SVG-20010904/DTD/svg10.dtd">
<svg version="1.0" xmlns="http://www.w3.org/2000/svg"
 width="1280.000000pt" height="974.000000pt" viewBox="0 0 1280.000000 974.000000"
 preserveAspectRatio="xMidYMid meet">
<g transform="translate(0.000000,974.000000) scale(0.100000,-0.100000)"
fill="#000000" stroke="none">
<path d="M3092 9606 c-464 -209 -752 -444 -895 -731 -76 -153 -116 -405 -89
-560 6 -33 12 -41 32 -43 14 -2 34 -13 46 -23 44 -41 141 -33 284 23 366 145
640 588 745 1203 14 83 28 160 30 173 3 12 2 22 -2 22 -5 0 -72 -29 -151 -64z"/>
<path d="M9560 9658 c1 -48 56 -335 86 -441 154 -556 424 -887 800 -982 80
-20 137 -15 168 14 12 12 34 21 49 21 37 0 40 21 34 203 -6 179 -25 265 -92
404 -143 295 -438 530 -947 754 -100 44 -98 43 -98 27z"/>
<path d="M1547 9202 c-205 -400 -275 -650 -264 -941 5 -162 28 -260 91 -396
71 -154 187 -305 235 -305 81 0 258 258 331 481 102 310 37 665 -211 1161 -43
86 -82 159 -87 162 -5 3 -48 -70 -95 -162z"/>
<path d="M11087 9225 c-124 -249 -184 -403 -233 -596 -35 -142 -44 -356 -19
-479 49 -245 234 -557 346 -585 35 -9 85 35 150 132 225 333 254 663 99 1118
-36 107 -216 490 -253 540 -14 18 -20 9 -90 -130z"/>
<path d="M2825 8326 c-227 -76 -327 -118 -449 -190 -321 -190 -508 -404 -575
-661 -27 -103 -43 -219 -39 -289 3 -56 5 -60 31 -67 15 -4 43 -21 63 -38 42
-37 78 -39 234 -12 58 10 106 17 108 16 1 -1 -62 -54 -140 -117 -388 -312
-551 -517 -630 -793 -44 -157 -23 -566 31 -582 9 -2 30 -11 48 -20 45 -22 98
-12 201 37 194 93 309 208 440 440 80 143 149 375 177 595 8 66 19 212 25 325
l9 205 43 34 c253 203 466 565 583 991 44 157 50 190 39 190 -5 -1 -94 -29
-199 -64z"/>
<path d="M9770 8386 c0 -16 85 -308 111 -381 62 -177 177 -403 277 -545 49
-69 167 -193 241 -251 l43 -34 9 -160 c28 -483 78 -726 200 -954 130 -243 239
-354 444 -453 99 -47 162 -58 196 -34 13 9 31 16 41 16 24 0 33 21 54 120 22
102 24 316 5 405 -64 293 -236 525 -618 833 -84 67 -154 126 -157 130 -2 4 41
0 97 -10 157 -27 187 -25 237 17 23 19 52 35 65 35 34 0 38 25 26 149 -19 184
-67 335 -146 457 -21 32 -86 106 -144 165 -189 188 -422 322 -746 427 -188 62
-235 75 -235 68z"/>
<path d="M872 7868 c-91 -314 -116 -464 -116 -698 -1 -130 4 -196 17 -258 48
-225 150 -423 296 -575 76 -80 105 -97 160 -97 38 0 41 2 85 73 93 150 149
308 167 474 27 255 -61 530 -271 845 -87 130 -270 370 -288 376 -5 1 -27 -62
-50 -140z"/>
<path d="M11776 7880 c-186 -233 -301 -420 -375 -606 -98 -248 -106 -498 -24
-727 32 -90 92 -209 132 -264 27 -37 36 -43 67 -43 50 0 80 19 155 97 129 134
239 330 285 510 32 122 44 375 25 530 -22 173 -97 489 -143 604 l-14 34 -108
-135z"/>
<path d="M385 6418 c14 -260 54 -501 116 -692 89 -270 261 -525 435 -643 75
-51 167 -98 223 -113 37 -10 47 -9 82 9 22 12 48 21 57 21 41 0 82 294 64 457
-46 399 -331 715 -975 1080 -5 3 -5 -51 -2 -119z"/>
<path d="M12278 6456 c-253 -154 -387 -256 -529 -402 -218 -226 -309 -433
-309 -702 0 -143 33 -341 59 -349 9 -2 35 -13 58 -24 36 -17 48 -18 85 -9 54
15 147 62 220 112 196 132 374 408 463 715 54 186 102 538 93 685 l-3 57 -137
-83z"/>
<path d="M2176 5883 c-314 -315 -509 -650 -557 -957 -27 -172 11 -410 93 -575
l43 -86 54 -3 c51 -3 59 0 122 43 128 87 253 239 338 411 141 283 155 653 46
1157 -13 60 -25 111 -28 113 -2 2 -52 -44 -111 -103z"/>
<path d="M10482 5833 c-46 -230 -62 -374 -62 -546 0 -164 9 -246 40 -371 58
-233 222 -480 404 -607 61 -43 75 -49 121 -49 62 0 72 9 115 103 44 97 77 221
90 335 33 299 -95 633 -378 987 -59 74 -281 305 -292 305 -4 0 -21 -71 -38
-157z"/>
<path d="M235 5068 c12 -29 48 -109 79 -178 97 -215 241 -436 389 -595 189
-203 387 -312 612 -337 135 -15 190 -6 232 38 18 19 49 41 70 48 44 15 44 18
14 171 -56 277 -231 509 -502 667 -101 58 -214 100 -389 144 -119 30 -468 94
-512 94 -15 0 -14 -7 7 -52z"/>
<path d="M12490 5108 c-30 -5 -109 -18 -175 -29 -357 -60 -606 -153 -781 -294
-207 -165 -324 -360 -369 -615 -20 -115 -20 -117 16 -125 16 -4 47 -24 68 -45
48 -48 98 -57 236 -42 276 31 521 194 743 494 114 153 202 303 284 486 43 95
78 175 78 178 0 6 -36 3 -100 -8z"/>
<path d="M2433 4653 c-130 -170 -206 -289 -284 -448 -142 -285 -186 -518 -144
-756 25 -147 101 -333 167 -414 38 -46 87 -48 144 -7 57 42 156 151 212 235
139 205 192 385 192 646 0 154 -17 280 -60 459 -35 146 -118 402 -129 402 -5
0 -49 -53 -98 -117z"/>
<path d="M10212 4603 c-104 -339 -127 -466 -126 -708 1 -160 4 -191 27 -276
14 -53 38 -128 54 -165 44 -103 138 -248 212 -327 90 -96 135 -127 182 -127
49 0 83 40 149 175 131 267 138 550 23 860 -40 109 -145 309 -222 425 -79 118
-220 302 -237 307 -6 2 -33 -69 -62 -164z"/>
<path d="M3025 3955 c-50 -88 -145 -299 -190 -420 -166 -443 -146 -811 62
-1142 60 -97 103 -147 146 -169 23 -13 31 -13 55 0 89 47 242 294 298 483 35
118 44 316 20 456 -31 180 -96 367 -206 588 -61 122 -140 269 -145 269 -2 0
-20 -29 -40 -65z"/>
<path d="M9616 3788 c-182 -366 -239 -562 -239 -818 0 -123 4 -159 26 -241 52
-197 206 -456 300 -505 23 -13 31 -13 55 0 70 37 188 210 251 369 110 277 91
610 -56 987 -51 130 -200 440 -213 440 -4 0 -60 -105 -124 -232z"/>
<path d="M433 3986 c36 -54 111 -185 142 -247 77 -151 341 -449 495 -558 140
-99 275 -158 437 -190 l86 -18 -74 -12 c-122 -19 -423 -72 -437 -77 -9 -2 13
-35 61 -91 41 -49 87 -112 103 -142 21 -39 60 -82 137 -150 323 -286 593 -411
887 -411 183 0 335 47 366 113 10 22 36 46 70 67 30 18 54 37 54 42 0 14 -60
129 -93 178 -108 160 -241 280 -392 355 -101 49 -194 75 -394 110 -87 14 -129
25 -116 30 59 20 88 38 103 65 11 18 35 37 65 49 26 11 47 26 47 35 0 8 -12
52 -26 98 -93 293 -283 506 -578 643 -114 53 -209 80 -356 100 -98 13 -441 34
-564 35 -38 0 -38 0 -23 -24z"/>
<path d="M12073 3999 c-326 -16 -507 -54 -686 -144 -225 -114 -365 -252 -471
-463 -33 -65 -96 -238 -96 -263 0 -4 21 -18 48 -29 29 -13 54 -32 64 -50 15
-27 42 -44 103 -66 13 -4 -29 -15 -120 -30 -77 -13 -179 -35 -228 -49 -257
-73 -471 -254 -606 -514 -23 -45 -41 -84 -39 -85 1 -2 25 -17 52 -33 27 -17
57 -47 70 -68 44 -79 196 -121 405 -112 201 8 370 65 562 188 173 112 375 285
416 358 30 53 79 115 142 184 26 28 41 51 35 56 -5 5 -119 28 -254 51 -231 39
-281 50 -233 50 11 0 64 11 117 24 116 30 257 95 363 168 141 97 358 329 469
503 44 68 194 325 194 332 0 4 -100 2 -307 -8z"/>
<path d="M3647 3288 c-3 -13 -16 -88 -28 -168 -31 -196 -34 -586 -6 -724 39
-194 103 -349 207 -504 68 -102 191 -223 269 -265 45 -25 58 -28 103 -22 l50
7 33 72 c154 335 143 650 -35 966 -58 102 -119 186 -220 305 -84 98 -345 355
-360 355 -4 0 -10 -10 -13 -22z"/>
<path d="M8984 3163 c-227 -223 -357 -388 -449 -571 -86 -172 -121 -324 -112
-491 7 -149 39 -272 108 -422 31 -67 31 -67 80 -74 41 -6 56 -3 101 22 69 37
213 180 275 273 221 330 275 691 191 1263 -12 87 -26 147 -32 147 -6 0 -79
-66 -162 -147z"/>
<path d="M4480 2426 c0 -2 25 -70 56 -152 157 -424 393 -770 634 -934 210
-142 525 -205 584 -115 9 14 33 29 56 35 l41 11 -6 62 c-29 290 -140 525 -321
683 -203 176 -446 282 -872 379 -151 35 -172 38 -172 31z"/>
<path d="M8130 2390 c-307 -71 -557 -166 -723 -277 -91 -60 -207 -170 -263
-249 -101 -141 -173 -351 -177 -513 l-2 -84 29 -8 c16 -5 41 -21 56 -38 47
-51 157 -51 335 1 290 84 551 351 771 789 49 98 164 386 164 411 0 12 -8 10
-190 -32z"/>
<path d="M2745 2110 c-154 -9 -266 -31 -412 -80 -189 -64 -365 -134 -363 -145
2 -5 39 -39 83 -75 58 -47 83 -75 91 -100 9 -28 28 -47 96 -92 113 -77 363
-201 477 -238 252 -80 488 -80 693 1 102 41 165 83 184 124 9 18 44 58 77 89
l61 55 -55 68 c-123 154 -272 270 -428 332 -146 59 -279 75 -504 61z"/>
<path d="M9795 2109 c-256 -25 -500 -172 -678 -408 l-41 -53 56 -52 c31 -29
63 -68 71 -88 39 -93 297 -188 514 -188 194 0 367 46 598 160 191 94 322 180
340 223 15 36 72 92 148 147 26 18 44 37 40 40 -9 8 -365 141 -438 163 -96 30
-211 49 -360 57 -82 5 -154 9 -160 8 -5 0 -46 -4 -90 -9z"/>
<path d="M4090 1508 c-236 -25 -479 -119 -720 -280 -162 -108 -323 -228 -316
-235 3 -3 43 -22 88 -42 72 -32 84 -40 88 -66 7 -40 61 -65 238 -109 444 -111
775 -81 1032 94 86 59 148 118 177 168 15 26 51 81 80 124 29 42 53 80 53 85
0 14 -118 97 -202 142 -87 48 -185 83 -290 105 -102 21 -142 23 -228 14z"/>
<path d="M8565 1508 c-149 -15 -328 -84 -473 -183 -119 -81 -113 -63 -50 -157
31 -46 67 -104 82 -130 28 -50 90 -109 176 -168 257 -175 589 -205 1031 -94
177 44 221 64 240 107 14 32 42 50 129 83 25 10 49 20 53 24 9 8 -225 181
-359 266 -285 179 -600 275 -829 252z"/>
<path d="M6322 1281 c-108 -38 -177 -142 -170 -255 5 -79 34 -138 106 -214
101 -107 182 -107 287 1 77 78 107 142 108 222 1 182 -165 305 -331 246z"/>
<path d="M5220 1070 c-112 -24 -165 -42 -288 -101 -105 -49 -259 -145 -367
-228 -81 -61 -295 -250 -295 -259 0 -4 35 -18 78 -32 67 -22 79 -29 91 -57 18
-41 52 -57 176 -81 259 -52 556 -56 735 -9 263 68 430 197 574 441 42 71 75
135 72 141 -6 18 -150 99 -236 135 -172 71 -361 89 -540 50z"/>
<path d="M7215 1075 c-70 -15 -169 -51 -245 -90 -59 -29 -170 -96 -170 -101 0
-2 21 -38 46 -81 25 -43 58 -100 71 -128 55 -107 220 -249 370 -317 218 -98
550 -116 898 -46 121 24 163 42 171 75 7 26 33 42 114 68 30 10 59 21 63 25 4
3 -49 56 -118 116 -329 285 -582 427 -852 479 -95 18 -266 18 -348 0z"/>
</g>
</svg>
