<svg id="Layer_5" enable-background="new 0 0 64 64" height="512" viewBox="0 0 64 64" width="512" xmlns="http://www.w3.org/2000/svg" xmlns:xlink="http://www.w3.org/1999/xlink"><linearGradient id="SVGID_1_" gradientUnits="userSpaceOnUse" x1="31.999" x2="31.999" y1="63" y2="1"><stop offset="0" stop-color="#9f2fff"/><stop offset="1" stop-color="#0bb1d3"/></linearGradient><path d="m61.173 49.018c.21-.215.41-.441.587-.685 1.06-1.471 1.46-3.252 1.116-5.078l-1.1-4.35c-.874-3.458-3.405-6.138-6.616-7.288 1.719-1.278 2.84-3.317 2.84-5.617 0-3.859-3.141-7-7-7s-7 3.141-7 7c0 1.958.811 3.729 2.111 5l-7.611.001c-1.93 0-3.5 1.569-3.5 3.499 0 .539.133 1.044.352 1.5h-2.352v-12.181l2.766-.553c4.191-.838 7.234-4.549 7.234-8.825v-9.941c0-1.93-1.57-3.5-3.5-3.5s-3.5 1.57-3.5 3.5v8.5c0 1.654-1.346 3-3 3h-3.111c1.301-1.272 2.111-3.042 2.111-5 0-3.859-3.141-7-7-7s-7 3.141-7 7c0 2.122.953 4.023 2.449 5.308-2.012.48-3.853 1.525-5.317 3.027-.673-.216-1.388-.335-2.132-.335-3.859 0-7 3.141-7 7 0 2.3 1.121 4.339 2.839 5.616-3.211 1.151-5.741 3.83-6.616 7.288l-1.112 4.409c-.331 1.767.07 3.549 1.129 5.019.177.245.376.471.587.685-1.021.09-1.827.94-1.827 1.983v2c0 1.103.897 2 2 2h4v6h-2v2h10v-2h-2v-6h.817l1.271 4.838c.393 1.832 2.038 3.162 3.911 3.162.277 0 .557-.029.836-.088 1.047-.225 1.943-.842 2.524-1.74.58-.896.776-1.967.54-3.057l-2.311-8.791c-.498-2.321-2.015-4.23-4.008-5.324h11.42v19h8v-19h11.416c-1.991 1.09-3.503 2.988-3.994 5.28l-2.332 8.878c-.226 1.047-.029 2.117.551 3.014.581.898 1.478 1.516 2.529 1.741.274.058.554.087.831.087 1.873 0 3.518-1.33 3.899-3.118l1.283-4.882h1.817v6h-2v2h10v-2h-2v-6h3c1.103 0 2-.897 2-2v-2c0-1.043-.806-1.893-1.827-1.982zm-15.173-23.018c0-2.757 2.243-5 5-5s5 2.243 5 5-2.243 5-5 5-5-2.243-5-5zm-7.492 12h1.506 8.252l1.257 4h-35.046l1.257-4h8.268 1.49zm-12.538-11.384-.97.97-.97-.97.615-8.616h.711zm-5.97-15.616c0-2.757 2.243-5 5-5s5 2.243 5 5-2.243 5-5 5-5-2.243-5-5zm2.639 7.02-.669 9.364 3.03 3.03 3.03-3.03-.67-9.384h5.64c2.757 0 5-2.243 5-5v-8.5c0-.827.673-1.5 1.5-1.5s1.5.673 1.5 1.5v9.941c0 3.325-2.366 6.212-5.627 6.864l-4.373.876v13.819h-2.352c.219-.456.352-.961.352-1.5 0-1.93-1.57-3.499-3.5-3.499l-7.611-.001c1.3-1.271 2.111-3.042 2.111-5 0-2.361-1.179-4.449-2.975-5.717 1.549-1.378 3.526-2.179 5.614-2.263zm-14.639 7.98c0-2.757 2.243-5 5-5s5 2.243 5 5-2.243 5-5 5-5-2.243-5-5zm3 35h-2v-6h2zm-8-8v-2h4.699l5.079.046.514 1.954zm15.645-3.212 2.311 8.792c.112.522.015 1.058-.275 1.506-.29.449-.739.759-1.26.87-1.077.226-2.147-.478-2.387-1.582l-2.311-8.794c-.199-.915-1.021-1.58-1.956-1.58h-3.763-1.305c-1.572 0-3.007-.687-3.836-1.838-.736-1.021-1.016-2.257-.8-3.419l1.1-4.349c.951-3.764 4.328-6.394 8.212-6.394l13.125.001c.827 0 1.5.673 1.5 1.499 0 .827-.677 1.5-1.508 1.5h-1.49-9.736l-2.826 8.996 1.355.007c2.796.014 5.252 2.008 5.85 4.785zm15.355 11.212h-4v-17h4zm12.956-1.582c-.227 1.054-1.332 1.757-2.371 1.539-.525-.112-.975-.422-1.265-.871-.29-.448-.388-.983-.286-1.463l2.332-8.879c.587-2.733 3.043-4.728 5.839-4.741l1.355-.007-2.826-8.996h-9.721-1.506c-.83 0-1.507-.673-1.507-1.5 0-.826.673-1.499 1.5-1.499l11.5-.001h1.625c3.884 0 7.261 2.63 8.212 6.395l1.087 4.289c.229 1.222-.051 2.457-.787 3.479-.829 1.15-2.264 1.837-3.836 1.837h-2.301-2.767c-.936 0-1.758.665-1.945 1.538zm9.044 1.582h-2v-6h2zm5-8h-10.292l.525-2h2.767 2.301 4.699zm-12-44h2v2h-2zm4 0h2v2h-2zm4 0h2v2h-2zm3-4h-12c-1.654 0-3 1.346-3 3v4c0 1.654 1.346 3 3 3h3v3.767l6.277-3.767h2.723c1.654 0 3-1.346 3-3v-4c0-1.654-1.346-3-3-3zm1 7c0 .552-.448 1-1 1h-3.277l-3.723 2.233v-2.233h-5c-.552 0-1-.448-1-1v-4c0-.552.448-1 1-1h12c.552 0 1 .448 1 1z" fill="url(#SVGID_1_)"/></svg>