<svg id="Layer_5" enable-background="new 0 0 64 64" height="512" viewBox="0 0 64 64" width="512" xmlns="http://www.w3.org/2000/svg" xmlns:xlink="http://www.w3.org/1999/xlink"><linearGradient id="SVGID_1_" gradientUnits="userSpaceOnUse" x1="32" x2="32" y1="63" y2="1"><stop offset="0" stop-color="#9f2fff"/><stop offset="1" stop-color="#0bb1d3"/></linearGradient><path d="m43 46c0-1.654-1.346-3-3-3s-3 1.346-3 3c0 1.302.839 2.402 2 2.816v2.369c-1.161.414-2 1.514-2 2.816 0 1.654 1.346 3 3 3s3-1.346 3-3c0-1.302-.839-2.402-2-2.816v-2.369c1.161-.414 2-1.514 2-2.816zm-3-1c.551 0 1 .449 1 1s-.449 1-1 1-1-.449-1-1 .449-1 1-1zm0 10c-.551 0-1-.449-1-1s.449-1 1-1 1 .449 1 1-.449 1-1 1zm14.816-44c-.414-1.161-1.514-2-2.816-2-1.654 0-3 1.346-3 3 0 1.302.839 2.402 2 2.816v1.184h-5.586l-2.715-2.715c.188-.391.301-.823.301-1.285 0-1.654-1.346-3-3-3s-3 1.346-3 3 1.346 3 3 3c.462 0 .894-.113 1.285-.301l3.301 3.301h6.414v1.586l-3.414 3.414h-.77c-.414-1.161-1.514-2-2.816-2-1.654 0-3 1.346-3 3 0 .462.113.894.301 1.285l-1.073 1.073c-.512-1.157-1.266-2.207-2.229-3.069-1.906-1.705-4.474-2.524-7.03-2.232-3.195.357-5.92 2.455-7.192 5.304l-1.076-1.076c.186-.391.299-.823.299-1.285 0-1.654-1.346-3-3-3-1.302 0-2.402.839-2.816 2h-.77l-3.414-3.414v-4.77c1.161-.414 2-1.514 2-2.816 0-.722-.266-1.375-.692-1.894l5.106-5.106h7.172l4.414 4.414v4.172l-1.414 1.414h-1.77c-.414-1.161-1.514-2-2.816-2-1.654 0-3 1.346-3 3s1.346 3 3 3c1.302 0 2.402-.839 2.816-2h2.598l2.586-2.586v-5l4.414-4.414h7.77c.414 1.161 1.514 2 2.816 2 1.654 0 3-1.346 3-3s-1.346-3-3-3c-1.302 0-2.402.839-2.816 2h-8.598l-4.586 4.586-4.586-4.586h-8.828l-6.054 6.054c-.173-.031-.35-.054-.532-.054-1.302 0-2.402.839-2.816 2h-1.598l-6.586 6.586v11.828l2.301 2.301c-.188.391-.301.823-.301 1.285s.113.894.301 1.285l-2.301 2.301v8.828l5.586 5.586h2.598c.302.847.969 1.514 1.816 1.816v3.598l6.586 6.586h8.828l5.586-5.586 5.586 5.586h8.828l6.586-6.586v-3.598c.847-.302 1.514-.969 1.816-1.816h2.598l5.586-5.586v-8.828l-2.301-2.301c.188-.391.301-.823.301-1.285s-.113-.894-.301-1.285l2.301-2.301v-11.828l-6.586-6.586zm-15.816 1c0-.551.449-1 1-1s1 .449 1 1-.449 1-1 1-1-.449-1-1zm-14 5c-.551 0-1-.449-1-1s.449-1 1-1 1 .449 1 1-.449 1-1 1zm23-14c.551 0 1 .449 1 1s-.449 1-1 1-1-.449-1-1 .449-1 1-1zm4 8c.551 0 1 .449 1 1s-.449 1-1 1-1-.449-1-1 .449-1 1-1zm-8 12c.551 0 1 .449 1 1s-.449 1-1 1-1-.449-1-1 .449-1 1-1zm-18.945 6.113c.387-3.162 2.967-5.713 6.135-6.067.275-.031.548-.046.819-.046 1.727 0 3.356.618 4.656 1.781 1.484 1.327 2.335 3.229 2.335 5.219 0 1.9-.765 3.685-2.114 5h-3.886v-2.184c1.161-.414 2-1.514 2-2.816 0-1.654-1.346-3-3-3s-3 1.346-3 3c0 1.302.839 2.402 2 2.816v2.184h-3.878c-1.566-1.525-2.339-3.675-2.067-5.887zm6.945 19.887c-.551 0-1-.449-1-1s.449-1 1-1 1 .449 1 1-.449 1-1 1zm-3-8c-.551 0-1-.449-1-1v-3h8v3c0 .551-.449 1-1 1zm2-11c0-.551.449-1 1-1s1 .449 1 1-.449 1-1 1-1-.449-1-1zm-11-7c.551 0 1 .449 1 1s-.449 1-1 1-1-.449-1-1 .449-1 1-1zm-8-12c.551 0 1 .449 1 1s-.449 1-1 1-1-.449-1-1 .449-1 1-1zm-6 23c-.551 0-1-.449-1-1s.449-1 1-1 1 .449 1 1-.449 1-1 1zm5 16c0-.551.449-1 1-1s1 .449 1 1-.449 1-1 1-1-.449-1-1zm14.586 11h-7.172l-5.414-5.414v-2.77c1.161-.414 2-1.514 2-2.816 0-1.654-1.346-3-3-3-1.302 0-2.402.839-2.816 2h-1.77l-4.414-4.414v-7.172l1.715-1.715c.391.188.823.301 1.285.301s.894-.113 1.285-.301l3.301 3.301h2.598c.414 1.161 1.514 2 2.816 2 1.654 0 3-1.346 3-3s-1.346-3-3-3c-1.302 0-2.402.839-2.816 2h-1.77l-2.715-2.715c.188-.391.301-.823.301-1.285 0-1.654-1.346-3-3-3-.462 0-.894.113-1.285.301l-1.715-1.715v-10.172l5.414-5.414h.77c.302.847.969 1.514 1.816 1.816v5.598l4.586 4.586h1.598c.414 1.161 1.514 2 2.816 2 .462 0 .894-.113 1.285-.301l1.839 1.839c-.018.11-.042.219-.055.331-.364 2.971.727 5.863 2.931 7.833v3.298c0 1.654 1.346 3 3 3h2v2.184c-1.161.414-2 1.514-2 2.816s.839 2.402 2 2.816v4.77zm-10.586-23c0-.551.449-1 1-1s1 .449 1 1-.449 1-1 1-1-.449-1-1zm37 13c-.551 0-1-.449-1-1s.449-1 1-1 1 .449 1 1-.449 1-1 1zm5-18c0-.551.449-1 1-1s1 .449 1 1-.449 1-1 1-1-.449-1-1zm4-4.414-1.715 1.715c-.391-.188-.823-.301-1.285-.301-1.654 0-3 1.346-3 3 0 .462.113.894.301 1.285l-2.715 2.715h-1.77c-.414-1.161-1.514-2-2.816-2-1.654 0-3 1.346-3 3s1.346 3 3 3c1.302 0 2.402-.839 2.816-2h2.598l3.301-3.301c.391.188.823.301 1.285.301s.894-.113 1.285-.301l1.715 1.715v7.172l-4.414 4.414h-1.77c-.414-1.161-1.514-2-2.816-2-1.654 0-3 1.346-3 3 0 1.302.839 2.402 2 2.816v2.77l-5.414 5.414h-7.172l-5.414-5.414v-4.77c1.161-.414 2-1.514 2-2.816s-.839-2.402-2-2.816v-2.184h2c1.654 0 3-1.346 3-3v-3.297c1.913-1.71 3-4.126 3-6.703 0-.491-.052-.976-.131-1.455l1.846-1.846c.391.188.823.301 1.285.301 1.302 0 2.402-.839 2.816-2h1.598l4.586-4.586v-5.598c.847-.302 1.514-.969 1.816-1.816h.77l5.414 5.414zm-12 9.414c0 .551-.449 1-1 1s-1-.449-1-1 .449-1 1-1 1 .449 1 1zm-25 5c-1.654 0-3 1.346-3 3 0 1.302.839 2.402 2 2.816v.77l-1.715 1.715c-.391-.188-.823-.301-1.285-.301-1.654 0-3 1.346-3 3s1.346 3 3 3 3-1.346 3-3c0-.462-.113-.894-.301-1.285l2.301-2.301v-1.598c1.161-.414 2-1.514 2-2.816 0-1.654-1.346-3-3-3zm-4 12c-.551 0-1-.449-1-1s.449-1 1-1 1 .449 1 1-.449 1-1 1zm4-8c-.551 0-1-.449-1-1s.449-1 1-1 1 .449 1 1-.449 1-1 1z" fill="url(#SVGID_1_)"/></svg>