<svg id="Layer_5" enable-background="new 0 0 64 64" height="512" viewBox="0 0 64 64" width="512" xmlns="http://www.w3.org/2000/svg" xmlns:xlink="http://www.w3.org/1999/xlink"><linearGradient id="SVGID_1_" gradientUnits="userSpaceOnUse" x1="32" x2="32" y1="63" y2="1"><stop offset="0" stop-color="#9f2fff"/><stop offset="1" stop-color="#0bb1d3"/></linearGradient><path d="m43 25c-4.963 0-9 4.037-9 9s4.037 9 9 9 9-4.037 9-9-4.037-9-9-9zm0 16c-3.859 0-7-3.141-7-7s3.141-7 7-7 7 3.141 7 7-3.141 7-7 7zm17-40h-32c-1.654 0-3 1.346-3 3v17h-16c-1.103 0-2 .897-2 2h-1c-1.654 0-3 1.346-3 3v5.335c-1.368.957-2 3.709-2 4.665 0 1.654 1.346 3 3 3s3-1.346 3-3c0-.956-.632-3.708-2-4.665v-5.335c0-.552.448-1 1-1h1c0 1.103.897 2 2 2v3.677l.629.252c.047.019.346.136.811.302-.288.89-.44 1.816-.44 2.769 0 3.231 1.717 6.061 4.281 7.649-7.64 2.081-13.281 9.061-13.281 17.351v4h36v-4c0-8.29-5.641-15.27-13.281-17.351 2.564-1.588 4.281-4.418 4.281-7.649 0-.954-.151-1.88-.44-2.769.465-.166.764-.283.811-.302l.629-.252v-1.677h2.003c-.644 1.54-1.003 3.229-1.003 5 0 7.168 5.832 13 13 13 2.193 0 4.258-.551 6.072-1.514l7.393 7.393c.722.723 1.684 1.121 2.707 1.121 2.11 0 3.828-1.718 3.828-3.828 0-1.022-.398-1.984-1.121-2.707l-7.393-7.393c.963-1.814 1.514-3.879 1.514-6.072 0-1.771-.359-3.46-1.003-5h5.003c1.654 0 3-1.346 3-3v-22c0-1.654-1.346-3-3-3zm-56 36c-.552 0-1-.448-1-1 0-.826.571-2.436 1-2.915.429.479 1 2.089 1 2.915 0 .552-.448 1-1 1zm4.998-14h.002 20v2h-20zm18.002 4v2.306c-1.434.514-5.047 1.694-8 1.694s-6.566-1.18-8-1.694v-2.306zm-8 21.667 3.171 4.228 2.829-5.659v13.764h-12v-13.764l2.829 5.659zm10 12.333h-2v-15.835c.701.407 1.371.86 2 1.365zm-4.821-17.123c.075.026.148.055.223.082l-2.573 5.147-1.467-1.956zm-15.179 2.653c.629-.505 1.299-.958 2-1.365v15.835h-2zm7.171 2.575-2.573-5.147c.074-.027.148-.056.223-.082l3.817 3.272zm-13.171 9.895c0-4.042 1.519-7.728 4-10.547v12.547h-4zm32 0v2h-4v-12.547c2.481 2.819 4 6.505 4 10.547zm-13.178-15.735-2.822 2.418-2.822-2.419c.918-.164 1.858-.264 2.822-.264s1.904.1 2.822.265zm4.178-9.265c0 3.859-3.141 7-7 7s-7-3.141-7-7c0-.74.117-1.459.341-2.15 1.86.554 4.388 1.15 6.659 1.15s4.799-.596 6.659-1.15c.224.69.341 1.409.341 2.15zm3-7c1.103 0 2-.897 2-2h2.641c-.589.612-1.117 1.282-1.578 2zm2-4v-8h2v8zm1 11c0-6.065 4.935-11 11-11s11 4.935 11 11-4.935 11-11 11-11-4.935-11-11zm9-12.83c-.685.107-1.355.257-2 .466v-14.636h2zm8 1.309c-.638-.334-1.306-.618-2-.843v-4.636h2zm11.465 26.4c.34.34.535.811.535 1.293 0 1.008-.82 1.828-1.828 1.828-.481 0-.953-.195-1.293-.535l-7.085-7.085c.979-.737 1.849-1.607 2.586-2.586zm.535-22.879c0 .552-.448 1-1 1h-6.063c-.793-1.234-1.786-2.323-2.937-3.225v-8.775h-6v6.17c-.654-.101-1.318-.17-2-.17v-16h-6v17.479c-.708.37-1.376.806-2 1.295v-10.774h-6v8h-2v-17c0-.552.448-1 1-1h32c.552 0 1 .448 1 1zm-8-1h6v-16h-6zm2-14h2v12h-2zm-35 42h-2v-2h2zm0 4h-2v-2h2z" fill="url(#SVGID_1_)"/></svg>