<svg id="Layer_5" enable-background="new 0 0 64 64" height="512" viewBox="0 0 64 64" width="512" xmlns="http://www.w3.org/2000/svg" xmlns:xlink="http://www.w3.org/1999/xlink"><linearGradient id="SVGID_1_" gradientUnits="userSpaceOnUse" x1="32" x2="32" y1="63" y2="1"><stop offset="0" stop-color="#9f2fff"/><stop offset="1" stop-color="#0bb1d3"/></linearGradient><path d="m48 59c1.654 0 3-1.346 3-3v-8c0-1.654 1.346-3 3-3h5v-2h-5c-2.757 0-5 2.243-5 5v5.184c-.314-.112-.648-.184-1-.184-1.654 0-3 1.346-3 3s1.346 3 3 3zm0-4c.551 0 1 .449 1 1s-.449 1-1 1-1-.449-1-1 .449-1 1-1zm11-30.387-4 1.333-4-1.333v6.387h-12c-2.206 0-4 1.794-4 4v8h-2v-14.128c5.761-1.007 10-5.981 10-11.921v-11.451c0-1.93-1.57-3.5-3.5-3.5s-3.5 1.57-3.5 3.5v10.5c0 2.757-2.243 5-5 5h-5.726c.65-.572 1.206-1.247 1.644-2h1.082c2.206 0 4-1.794 4-4 0-1.474-.81-2.75-2-3.444v-.556c0-5.514-4.486-10-10-10s-10 4.486-10 10v.556c-1.19.694-2 1.97-2 3.444s.81 2.75 2 3.444v4.035c-4.154 2.172-7 6.517-7 11.521v7.5c0 .539.133 1.044.351 1.5h-2.351v20h38 2 18c2.206 0 4-1.794 4-4v-20-4-4h-4zm-4 3.441 2-.667v9.613h-4v-9.613zm-16 4.946h12v4h-12c-1.103 0-2-.897-2-2s.897-2 2-2zm-4 18h-4v-2h4zm0-4h-4c-1.103 0-2 .897-2 2h-14c-.551 0-1-.449-1-1v-3h8.5 12.5zm3-31v-10.5c0-.827.673-1.5 1.5-1.5s1.5.673 1.5 1.5v11.45c0 5.213-3.912 9.536-9.1 10.055l-.9.09v15.905h-5.351c.218-.456.351-.961.351-1.5 0-1.93-1.57-3.5-3.5-3.5h-8.5v-1c0-.551.449-1 1-1h5c1.654 0 3-1.346 3-3s-1.346-3-3-3h-7c-.551 0-1-.449-1-1v-5.236c1.242-.487 2.588-.764 4-.764 0 2.206 1.794 4 4 4s4-1.794 4-4h7c3.86 0 7-3.14 7-7zm-16 7c0 1.103-.897 2-2 2s-2-.897-2-2zm-2-2c-3.309 0-6-2.691-6-6s2.691-6 6-6 6 2.691 6 6-2.691 6-6 6zm8-4h-.263c.166-.641.263-1.308.263-2s-.097-1.359-.263-2h.263c1.103 0 2 .897 2 2s-.897 2-2 2zm-8-14c4.411 0 8 3.589 8 8h-1.082c-1.386-2.387-3.965-4-6.918-4s-5.532 1.613-6.918 4h-1.082c0-4.411 3.589-8 8-8zm-8 10h.263c-.166.641-.263 1.308-.263 2s.097 1.359.263 2h-.263c-1.103 0-2-.897-2-2s.897-2 2-2zm0 6h1.082c.453.78 1.031 1.476 1.711 2.061-.966.089-1.9.285-2.794.575v-2.636zm-7 22.5v-7.5c0-3.852 1.994-7.242 5-9.208v4.208c0 1.654 1.346 3 3 3h7c.551 0 1 .449 1 1s-.449 1-1 1h-5c-1.654 0-3 1.346-3 3v1h-5v2h15.5c.827 0 1.5.673 1.5 1.5s-.673 1.5-1.5 1.5h-16c-.827 0-1.5-.673-1.5-1.5zm1.5 3.5h5.5v3c0 1.654 1.346 3 3 3h14c0 1.103.897 2 2 2h4v2h-32v-10zm-3.5 12h32v2c0 .732.212 1.409.556 2h-32.556zm36 4c-1.103 0-2-.897-2-2v-20.556c.591.344 1.268.556 2 .556h2v22zm22-2c0 1.103-.897 2-2 2h-16v-22h18zm0-26v2 2h-2v-4zm-4 24h2v2h-2zm0-4h2v2h-2zm0-4h2v2h-2z" fill="url(#SVGID_1_)"/></svg>