<svg id="Layer_5" enable-background="new 0 0 64 64" height="512" viewBox="0 0 64 64" width="512" xmlns="http://www.w3.org/2000/svg" xmlns:xlink="http://www.w3.org/1999/xlink"><linearGradient id="SVGID_1_" gradientUnits="userSpaceOnUse" x1="32" x2="32" y1="63" y2="1"><stop offset="0" stop-color="#9f2fff"/><stop offset="1" stop-color="#0bb1d3"/></linearGradient><path d="m43 19.184c-.314-.112-.648-.184-1-.184-1.654 0-3 1.346-3 3s1.346 3 3 3 3-1.346 3-3v-8.913l10 .833v5.264c-.314-.112-.648-.184-1-.184-1.654 0-3 1.346-3 3s1.346 3 3 3 3-1.346 3-3v-13.92l-14-1.167zm-1 3.816c-.551 0-1-.449-1-1s.449-1 1-1 1 .449 1 1-.449 1-1 1zm12 0c-.551 0-1-.449-1-1s.449-1 1-1 1 .449 1 1-.449 1-1 1zm1-13.08v1.993l-10-.833v-1.993zm-33 37.08c6.065 0 11-4.935 11-11s-4.935-11-11-11-11 4.935-11 11 4.935 11 11 11zm0-20c4.962 0 9 4.038 9 9s-4.038 9-9 9-9-4.038-9-9 4.038-9 9-9zm-5 3.382v11.236l11.236-5.618zm2 3.236 4.764 2.382-4.764 2.382zm17 11.382h-2v-2h2v-2h2v2h11v2h-11v2h-2zm7-6h-9v-2h9v-2h2v2h4v2h-4v2h-2zm5-38c-8.271 0-15 6.729-15 15 0 .338.029.668.051 1h-25.051c-2.757 0-5 2.243-5 5v31h-2v5c0 2.757 2.243 5 5 5h48c2.757 0 5-2.243 5-5v-5h-2v-25.029c3.635-2.74 6-7.079 6-11.971 0-8.271-6.729-15-15-15zm0 30c1.027 0 2.03-.105 3-.302v18.302h-42v-26h25.744c2.519 4.752 7.513 8 13.256 8zm9 27c0 1.654-1.346 3-3 3h-48c-1.654 0-3-1.346-3-3v-3h19.101c.465 2.279 2.484 4 4.899 4h6c2.414 0 4.434-1.721 4.899-4h19.101zm-32.816-3h11.631c-.414 1.161-1.514 2-2.816 2h-6c-1.301 0-2.401-.839-2.815-2zm30.816-2h-50v-31c0-1.654 1.346-3 3-3h25.302c.14.687.342 1.35.573 2h-24.875c-1.103 0-2 .897-2 2v26c0 1.103.897 2 2 2h42c1.103 0 2-.897 2-2v-18.875c.69-.245 1.361-.529 2-.868zm-7-24c-7.168 0-13-5.832-13-13s5.832-13 13-13 13 5.832 13 13-5.832 13-13 13z" fill="url(#SVGID_1_)"/></svg>