<svg id="Layer_5" enable-background="new 0 0 64 64" height="512" viewBox="0 0 64 64" width="512" xmlns="http://www.w3.org/2000/svg" xmlns:xlink="http://www.w3.org/1999/xlink"><linearGradient id="SVGID_1_" gradientUnits="userSpaceOnUse" x1="32" x2="32" y1="63" y2="1"><stop offset="0" stop-color="#9f2fff"/><stop offset="1" stop-color="#0bb1d3"/></linearGradient><path d="m31 24c0 .552-.448 1-1 1s-1-.448-1-1 .448-1 1-1 1 .448 1 1zm11 1c.552 0 1-.448 1-1s-.448-1-1-1-1 .448-1 1 .448 1 1 1zm-2 7h-2c0 1.103-.897 2-2 2s-2-.897-2-2h-2c0 2.206 1.794 4 4 4s4-1.794 4-4zm6.962-14.917 1.994-.165c-.061-.729-.184-1.458-.365-2.166l-1.938.497c.155.6.258 1.216.309 1.834zm-.959-3.666 1.818-.834c-2.115-4.607-6.755-7.583-11.821-7.583v2c4.287 0 8.214 2.519 10.003 6.417zm-25.003 31.583c0 1.654-1.346 3-3 3s-3-1.346-3-3 1.346-3 3-3 3 1.346 3 3zm-2 0c0-.551-.448-1-1-1s-1 .449-1 1 .448 1 1 1 1-.449 1-1zm-6 0c0 1.654-1.346 3-3 3s-3-1.346-3-3 1.346-3 3-3 3 1.346 3 3zm-2 0c0-.551-.448-1-1-1s-1 .449-1 1 .448 1 1 1 1-.449 1-1zm15 3c-1.654 0-3-1.346-3-3s1.346-3 3-3 3 1.346 3 3-1.346 3-3 3zm0-2c.552 0 1-.449 1-1s-.448-1-1-1-1 .449-1 1 .448 1 1 1zm37 16v1h-54v-1c0-2.846.756-5.574 2.179-8h-1.179c-4.963 0-9-4.038-9-9s4.037-9 9-9h9v-18c0-9.374 7.626-17 17-17s17 7.626 17 17v24c0 1.664-.47 3.288-1.329 4.694l1.452.594c6 2.455 9.877 8.229 9.877 14.712zm-42-26h6.152c-2.651-3.285-4.152-7.413-4.152-11.649 0-4.184 2.81-7.908 6.832-9.057l1.242-.355 2.021.899c4.723 2.098 9.738 3.162 14.905 3.162h1v5.351c0 6.206-3.079 11.845-8 15.245v.718c0 1.224.731 2.313 1.864 2.776l6.906 2.826c.783-1.153 1.23-2.511 1.23-3.916v-24c0-8.271-6.729-15-15-15s-15 6.729-15 15zm24.319 10.257-1.731-.708-6.169 8.226c.897.505 2.68 1.225 5.581 1.225.896 0 1.525-.276 1.979-.868 1.378-1.796.791-5.926.34-7.875zm-10.319-10.257v3.534c.346.152.682.292 1.001.408 6.593-2.346 10.999-8.568 10.999-15.591v-3.364c-5.096-.129-10.042-1.245-14.717-3.322l-1.357-.604-.545.155c-3.168.906-5.381 3.84-5.381 7.135 0 4.341 1.763 8.558 4.831 11.649zm4.036 4.796c-.864.45-1.773.837-2.719 1.153l-.317.105-.316-.105c-.222-.074-.454-.166-.684-.255v3.306c0 .338-.022.671-.059 1h5.809l.947-1.262c-1.505-.782-2.499-2.255-2.661-3.942zm-5.212 8.636 2.176 2.901 3.25-4.333h-4.775c-.177.499-.393.978-.651 1.432zm-6.924 4.522c.579.897 1.394 1.046 2.1 1.046 2.898 0 4.68-.719 5.58-1.226l-1.995-2.66c-1.452 1.564-3.446 2.617-5.685 2.84zm-16.9-1.954h16c3.859 0 7-3.14 7-7v-7h-23c-3.859 0-7 3.14-7 7s3.141 7 7 7zm1.035 9h7.965v-5h2v5h14v-5.195c-1.24.589-3.19 1.195-6 1.195-2.059 0-3.558-1.058-4.297-3h-11.151c-1.472 2.085-2.338 4.477-2.517 7zm49.93 0c-.373-5.255-3.665-9.842-8.6-11.86l-4.824-1.974c.39 2.285.684 6.016-.973 8.181-.828 1.081-2.062 1.653-3.568 1.653-2.81 0-4.76-.606-6-1.195v5.195h14v-5h2v5z" fill="url(#SVGID_1_)"/></svg>