<svg id="Layer_5" enable-background="new 0 0 64 64" height="512" viewBox="0 0 64 64" width="512" xmlns="http://www.w3.org/2000/svg" xmlns:xlink="http://www.w3.org/1999/xlink"><linearGradient id="SVGID_1_" gradientUnits="userSpaceOnUse" x1="32.5" x2="32.5" y1="63" y2="1"><stop offset="0" stop-color="#9f2fff"/><stop offset="1" stop-color="#0bb1d3"/></linearGradient><path d="m58 1h-24c-2.757 0-5 2.243-5 5v7h-27v34h23.101c.398 1.955 1.945 3.491 3.899 3.89v7.11c0 2.757 2.243 5 5 5h24c2.757 0 5-2.243 5-5v-52c0-2.757-2.243-5-5-5zm3 5v3h-2v-5.816c1.161.414 2 1.514 2 2.816zm-26.101 41h24.101v-23.382-1.618-11h2v42h-30v-2.11c1.955-.399 3.501-1.935 3.899-3.89zm16.101-44h6v17.382l-3-1.5-3 1.5zm-17 0h15v6h-18v-3c0-1.654 1.346-3 3-3zm-3 8h18v2h-18zm-4 35v-1h-23v-30h45v8.618l5-2.5 3 1.5v22.382h-24v1c0 1.654-1.346 3-3 3s-3-1.346-3-3zm31 15h-24c-1.654 0-3-1.346-3-3v-3h30v3c0 1.654-1.346 3-3 3zm-17-4h10v2h-10zm6-50h-2v-2h2zm-4 0h-2v-2h2zm12 6h-2v-2h2zm0 4h-2v-2h2zm0-8h-2v-2h2zm-8 8h-14v10h14zm-2 8h-10v-6h10zm-10 6h-2v-2h2zm2-2h18v2h-18zm18 6h-22v-2h22zm-4 4h-18v-2h18zm2-2h2v2h-2zm2 6h-22v-2h22zm-24 0h-2v-26h2zm-25 0h21v-10h-21zm2-8h17v6h-17zm-2-18h21v2h-21zm4 4h17v2h-17zm-2 2h-2v-2h2zm17 2h2v2h-2zm-2 2h-17v-2h17zm-17 2h21v2h-21z" fill="url(#SVGID_1_)"/></svg>