<svg id="Layer_5" enable-background="new 0 0 64 64" height="512" viewBox="0 0 64 64" width="512" xmlns="http://www.w3.org/2000/svg" xmlns:xlink="http://www.w3.org/1999/xlink"><linearGradient id="SVGID_1_" gradientUnits="userSpaceOnUse" x1="31.998" x2="31.998" y1="63" y2="1"><stop offset="0" stop-color="#9f2fff"/><stop offset="1" stop-color="#0bb1d3"/></linearGradient><path d="m58 31h-12c0-6.277-4.152-11.602-9.854-13.373 1.727-1.276 2.854-3.32 2.854-5.627 0-.321-.028-.639-.071-.955.174-.041.289-.069.314-.075l.757-.189v-3.781c1.103 0 2-.897 2-2v-2c0-1.103-.897-2-2-2h-16c-1.103 0-2 .897-2 2h-1c-1.654 0-3 1.346-3 3v5.285c-1.228.669-2 2.442-2 3.715 0 1.654 1.346 3 3 3s3-1.346 3-3c0-1.273-.772-3.046-2-3.715v-5.285c0-.551.448-1 1-1h1c0 1.103.897 2 2 2v3.781l.758.189c.025.006.139.034.311.075-.043.315-.069.634-.069.955 0 2.307 1.127 4.351 2.854 5.627-5.702 1.771-9.854 7.096-9.854 13.373h-12c-2.757 0-5 2.243-5 5v22c0 2.757 2.243 5 5 5h52c2.757 0 5-2.243 5-5v-22c0-2.757-2.243-5-5-5zm-39-15c-.552 0-1-.449-1-1 0-.82.68-1.957.997-2 .323.043 1.003 1.18 1.003 2 0 .551-.448 1-1 1zm34 17v28h-42v-28zm-28-11.727c.625-.451 1.293-.842 2-1.168v10.895h-2zm14 9.727h-2v-10.895c.707.326 1.375.717 2 1.168zm-10-7v-3.038l1.558 1.869zm0 2.5 3-2.25 3 2.25v4.5h-6zm4.442-3.668 1.558-1.87v3.038zm.452-3.668-1.894 2.274-1.894-2.273c.618-.099 1.248-.165 1.894-.165s1.276.066 1.894.164zm10.106 11.836h-3v-7.911c1.861 2.115 3 4.879 3 7.911zm-20.001-28h16.001v2h-16zm14.001 4v2.204c-1.276.279-3.918.796-6 .796s-4.724-.517-6-.796v-2.204zm-11 5c0-.183.02-.364.039-.545 1.439.268 3.324.545 4.961.545 1.636 0 3.52-.277 4.959-.544.02.18.041.361.041.544 0 2.757-2.243 5-5 5s-5-2.243-5-5zm-4 11.089v7.911h-3c0-3.032 1.139-5.796 3-7.911zm-20 34.911v-22c0-1.654 1.346-3 3-3h3v28h-3c-1.654 0-3-1.346-3-3zm58 0c0 1.654-1.346 3-3 3h-3v-28h3c1.654 0 3 1.346 3 3zm-54-16v10h-2v-10zm8 17h34c1.103 0 2-.897 2-2v-20c0-1.103-.897-2-2-2h-34c-1.103 0-2 .897-2 2v20c0 1.103.897 2 2 2zm0-22h34l.001 20h-34.001zm42 5h2v2h-2zm0 4h2v2h-2zm0 4h2v2h-2zm-22-11h-18v12h12v4h18v-12h-12zm-16 2h14v8h-14zm26 4v8h-14v-2h4v-6zm-24-2h2v2h-2zm4 0h2v2h-2zm4 0h2v2h-2zm14 8h-2v-2h2zm-4 0h-2v-2h2zm8-42h12v2h-12zm0 4h12v2h-12zm13-8h-14c-1.654 0-3 1.346-3 3v8c0 1.654 1.346 3 3 3h2v4.618l9.236-4.618h2.764c1.654 0 3-1.346 3-3v-8c0-1.654-1.346-3-3-3zm1 11c0 .551-.448 1-1 1h-3.236l-6.764 3.382v-3.382h-4c-.552 0-1-.449-1-1v-8c0-.551.448-1 1-1h14c.552 0 1 .449 1 1zm-59.072 6.072c.616.617 1.46.929 2.463.929.621 0 1.303-.12 2.028-.362.521-.173 1.051-.423 1.581-.708.53.284 1.06.535 1.581.708.726.242 1.407.362 2.028.362 1.003 0 1.847-.312 2.463-.929 1.32-1.319 1.198-3.634-.112-6.072 1.31-2.438 1.432-4.753.112-6.072-.997-.998-2.593-1.201-4.491-.568-.521.174-1.051.424-1.581.709-.53-.285-1.06-.535-1.581-.709-1.897-.633-3.493-.43-4.491.568-1.32 1.319-1.199 3.634.112 6.072-1.311 2.438-1.432 4.753-.112 6.072zm10.73-1.414c-.422.422-1.334.455-2.445.084-.08-.027-.165-.073-.246-.104.487-.383.966-.793 1.423-1.249.465-.465.885-.942 1.266-1.423.462 1.22.472 2.223.002 2.692zm-4.658-1.053c-.68-.459-1.353-1.007-1.976-1.63-.648-.648-1.191-1.318-1.634-1.975.443-.657.986-1.327 1.634-1.976.622-.622 1.296-1.17 1.976-1.63.68.459 1.353 1.007 1.976 1.63.649.649 1.191 1.319 1.634 1.976-.443.657-.986 1.327-1.634 1.976-.623.622-1.296 1.17-1.976 1.629zm2.213-8.347c.515-.171.986-.256 1.387-.256.464 0 .832.114 1.059.34.469.469.46 1.472-.003 2.691-.38-.481-.8-.957-1.266-1.423-.456-.456-.935-.866-1.422-1.249.08-.03.165-.077.245-.103zm-6.871.084c.227-.227.595-.34 1.059-.34.4 0 .872.085 1.387.256.08.027.165.073.246.104-.487.383-.966.793-1.423 1.249-.465.465-.885.942-1.266 1.423-.463-1.22-.473-2.223-.003-2.692zm1.268 8.048c.456.456.935.866 1.423 1.249-.081.03-.166.077-.246.104-1.11.371-2.022.338-2.445-.084-.469-.469-.46-1.472.003-2.691.38.48.8.956 1.265 1.422zm4.39-3.39c0 .552-.448 1-1 1s-1-.448-1-1 .448-1 1-1 1 .448 1 1z" fill="url(#SVGID_1_)"/></svg>