<svg id="Layer_5" enable-background="new 0 0 64 64" height="512" viewBox="0 0 64 64" width="512" xmlns="http://www.w3.org/2000/svg" xmlns:xlink="http://www.w3.org/1999/xlink"><linearGradient id="SVGID_1_" gradientUnits="userSpaceOnUse" x1="31.968" x2="31.968" y1="63" y2="1"><stop offset="0" stop-color="#9f2fff"/><stop offset="1" stop-color="#0bb1d3"/></linearGradient><path d="m18 31h2v2h-2zm0 6h2v-2h-2zm45-20c0 8.485-6.644 15.429-15 15.949v25.051c0 2.757-2.243 5-5 5s-5-2.243-5-5v-3c0-1.654-1.346-3-3-3h-2v2c0 4.963-4.038 9-9 9h-6.295c-7.42 0-14.108-4.686-16.645-11.658l-.124-.342.124-.342c1.548-4.256 4.647-7.652 8.511-9.658h-7.571v-3c0-7.748 5.216-14.289 12.317-16.329-2.584-1.583-4.317-4.425-4.317-7.671 0-.953.151-1.879.44-2.769-.466-.166-.764-.283-.812-.302l-.628-.252v-3.677c-1.103 0-2-.897-2-2h-1c-.551 0-1 .449-1 1v5.335c1.368.957 2 3.709 2 4.665 0 1.654-1.346 3-3 3s-3-1.346-3-3c0-.956.632-3.708 2-4.665v-5.335c0-1.654 1.346-3 3-3h1c0-1.103.897-2 2-2h20c1.103 0 2 .897 2 2v2c0 1.103-.897 2-2 2v3.677l-.628.251c-.047.019-.346.136-.812.302.288.89.44 1.817.44 2.77 0 3.246-1.733 6.088-4.317 7.671 7.101 2.04 12.317 8.581 12.317 16.329v3h-6.356c2.044 1.651 3.356 4.174 3.356 7v2h2c2.757 0 5 2.243 5 5v3c0 1.654 1.346 3 3 3s3-1.346 3-3v-25.051c-8.356-.52-15-7.464-15-15.949 0-8.822 7.178-16 16-16s16 7.178 16 16zm-58-1c0-.826-.571-2.436-1-2.916-.429.48-1 2.09-1 2.916 0 .551.449 1 1 1s1-.449 1-1zm19 25h-3v9h2.184c.414-1.161 1.514-2 2.816-2h4c.352 0 .686.072 1 .184v-.184c0-3.859-3.14-7-7-7zm6 9h-4c-.551 0-1 .448-1 1s.449 1 1 1h4c.551 0 1-.448 1-1s-.449-1-1-1zm-12.295-11h6.295 1v-11.763l-2.829 5.658-3.171-4.228-3.171 4.228-2.829-5.658v11.763zm-6.705 0v-13.666c-.71.45-1.377.958-2 1.518v12.148zm5.171-9.895 1.467-1.956-3.765-3.227c-.083.03-.166.059-.248.091zm12.829-2.254c-.623-.559-1.29-1.068-2-1.518v13.667h2zm-8.638.298 1.467 1.956 2.547-5.093c-.082-.032-.165-.061-.248-.091zm10.638 1.889v9.962h3v-1c0-3.362-1.125-6.458-3-8.962zm-22-24.038h20v-2h-20-.001zm2 2v2.306c1.434.514 5.047 1.694 8 1.694s6.566-1.18 8-1.694v-2.306zm8 14c3.86 0 7-3.14 7-7 0-.74-.118-1.459-.341-2.149-1.86.553-4.388 1.149-6.659 1.149s-4.799-.596-6.659-1.15c-.223.691-.341 1.41-.341 2.15 0 3.86 3.14 7 7 7zm0 2c-.961 0-1.899.1-2.811.273l2.811 2.41 2.811-2.409c-.912-.174-1.85-.274-2.811-.274zm-15 16h3v-9.962c-1.875 2.504-3 5.6-3 8.962zm10.186 2.403c-2.747.636-5.259 2.005-7.282 3.918.878.433 1.951.679 3.096.679 2.71 0 5-1.374 5-3 0-.688-.425-1.237-.814-1.597zm.814 17.597c0-1.626-2.29-3-5-3-1.145 0-2.218.246-3.096.678 2.023 1.914 4.535 3.282 7.282 3.918.389-.359.814-.908.814-1.596zm2.705 2h1.295v-20h-1.295c-.42 0-.837.019-1.251.052.355.608.546 1.267.546 1.948 0 2.804-3.075 5-7 5-1.669 0-3.253-.421-4.501-1.166-1.005 1.237-1.833 2.636-2.43 4.166.597 1.53 1.425 2.929 2.43 4.166 1.248-.745 2.832-1.166 4.501-1.166 3.925 0 7 2.196 7 5 0 .681-.191 1.34-.547 1.948.414.033.832.052 1.252.052zm13.295-7v-.184c-.314.112-.648.184-1 .184h-4c-1.302 0-2.402-.839-2.816-2h-2.184v9h3c3.86 0 7-3.141 7-7zm19.698-28h-7.396c1.324 2.393 2.874 3.971 3.698 4.703.823-.732 2.374-2.309 3.698-4.703zm.951-2c.689-1.702 1.19-3.704 1.308-6h-11.914c.118 2.296.619 4.298 1.308 6zm-16.755 0h5.29c-.616-1.737-1.039-3.742-1.142-6h-5.992c.155 2.175.805 4.211 1.844 6zm8.408-16h7.396c-1.324-2.393-2.874-3.971-3.698-4.703-.824.732-2.374 2.31-3.698 4.703zm-.951 2c-.689 1.702-1.19 3.704-1.308 6h11.914c-.118-2.296-.619-4.298-1.308-6zm-2.167 0h-5.29c-1.039 1.789-1.689 3.825-1.844 6h5.992c.103-2.258.526-4.263 1.142-6zm13.632 14h5.29c1.039-1.789 1.689-3.825 1.844-6h-5.992c-.103 2.258-.526 4.263-1.142 6zm7.133-8c-.155-2.175-.805-4.211-1.844-6h-5.29c.616 1.737 1.039 3.742 1.142 6zm-11.121-12.712c1.007 1.118 2.171 2.687 3.148 4.712h4.732c-1.99-2.364-4.743-4.066-7.88-4.712zm-13.536 4.712h4.732c.977-2.025 2.141-3.594 3.148-4.712-3.137.646-5.89 2.348-7.88 4.712zm7.88 22.712c-1.006-1.118-2.171-2.688-3.148-4.712h-4.732c1.99 2.364 4.743 4.066 7.88 4.712zm13.536-4.712h-4.732c-.977 2.025-2.141 3.594-3.148 4.712 3.137-.646 5.89-2.348 7.88-4.712zm-12.708-12v-2h-2v2zm4-2h-2v2h2zm0 8v2h2v-2zm-4 2h2v-2h-2z" fill="url(#SVGID_1_)"/></svg>