<svg id="Layer_5" enable-background="new 0 0 64 64" height="512" viewBox="0 0 64 64" width="512" xmlns="http://www.w3.org/2000/svg" xmlns:xlink="http://www.w3.org/1999/xlink"><linearGradient id="SVGID_1_" gradientUnits="userSpaceOnUse" x1="32" x2="32" y1="63" y2="1"><stop offset="0" stop-color="#9f2fff"/><stop offset="1" stop-color="#0bb1d3"/></linearGradient><path d="m32 19c-5.514 0-10 4.486-10 10v.556c-1.19.694-2 1.97-2 3.444 0 2.206 1.794 4 4 4h1.082c.593 1.022 1.402 1.902 2.37 2.573-8.283 2.047-14.452 9.52-14.452 18.427v3h-8v2h54v-2h-8v-3c0-8.907-6.169-16.38-14.452-18.427.967-.671 1.776-1.552 2.37-2.573h1.082c2.206 0 4-1.794 4-4 0-1.474-.81-2.75-2-3.444v-.556c0-5.514-4.486-10-10-10zm0 2c4.411 0 8 3.589 8 8h-1.082c-1.386-2.387-3.964-4-6.918-4s-5.532 1.613-6.918 4h-1.082c0-4.411 3.589-8 8-8zm-8 14c-1.103 0-2-.897-2-2s.897-2 2-2h.263c-.166.641-.263 1.308-.263 2s.097 1.359.263 2zm12.606 15.746-3.277-3.746 4.371-4.996c.743.266 1.466.573 2.158.936zm-.857 2.057-3.416 8.197h-.667l-3.415-8.197 3.749-4.284zm-8.355-2.057-3.252-7.806c.692-.362 1.414-.67 2.158-.936l4.371 4.996zm-12.394 7.254c0-5.817 2.939-10.956 7.408-14.022l7.092 17.022h-8.5v-10h-2v10h-4zm34 0v3h-4v-10h-2v10h-8.5l7.092-17.022c4.469 3.066 7.408 8.205 7.408 14.022zm-13.418-16.613-3.582 4.094-3.582-4.094c1.156-.249 2.352-.387 3.582-.387s2.426.138 3.582.387zm-3.582-2.387c-3.309 0-6-2.691-6-6s2.691-6 6-6 6 2.691 6 6-2.691 6-6 6zm8-4h-.263c.166-.641.263-1.308.263-2s-.097-1.359-.263-2h.263c1.103 0 2 .897 2 2s-.897 2-2 2zm21 26h2v2h-2zm-58 2h-2v-2h2zm30-10h-2v-2h2zm-2 4v-2h2v2zm25-51h-5.351l-5 4h-2.649c-1.103 0-2 .897-2 2v4c0 1.103.897 2 2 2h2.649l5 4h5.351v-4.247c1.714-.392 3-1.922 3-3.753s-1.286-3.361-3-3.753zm-9 5.481 3-2.4v9.839l-3-2.4zm-2 4.519h-2v-4h2zm9 4h-2v-12h2zm3-6c0 .713-.409 1.326-1 1.637v-3.275c.591.312 1 .925 1 1.638zm-7-13c-7.168 0-13 5.832-13 13s5.832 13 13 13 13-5.832 13-13-5.832-13-13-13zm0 24c-6.065 0-11-4.935-11-11s4.935-11 11-11 11 4.935 11 11-4.935 11-11 11zm-36-24c-7.168 0-13 5.832-13 13s5.832 13 13 13 13-5.832 13-13-5.832-13-13-13zm0 24c-6.065 0-11-4.935-11-11s4.935-11 11-11 11 4.935 11 11-4.935 11-11 11zm0-14c-1.654 0-3 1.346-3 3s1.346 3 3 3 3-1.346 3-3-1.346-3-3-3zm0 4c-.552 0-1-.449-1-1s.448-1 1-1 1 .449 1 1-.448 1-1 1zm4-1c0 1.654 1.346 3 3 3s3-1.346 3-3-1.346-3-3-3-3 1.346-3 3zm4 0c0 .551-.448 1-1 1s-1-.449-1-1 .448-1 1-1 1 .449 1 1zm-15-3c-1.654 0-3 1.346-3 3s1.346 3 3 3 3-1.346 3-3-1.346-3-3-3zm0 4c-.552 0-1-.449-1-1s.448-1 1-1 1 .449 1 1-.448 1-1 1z" fill="url(#SVGID_1_)"/></svg>