<svg id="Layer_5" enable-background="new 0 0 64 64" height="512" viewBox="0 0 64 64" width="512" xmlns="http://www.w3.org/2000/svg" xmlns:xlink="http://www.w3.org/1999/xlink"><linearGradient id="SVGID_1_" gradientUnits="userSpaceOnUse" x1="32" x2="32" y1="63" y2=".999"><stop offset="0" stop-color="#9f2fff"/><stop offset="1" stop-color="#0bb1d3"/></linearGradient><path d="m50 35h-9c-1.641 0-3.088.806-4 2.031-.912-1.225-2.359-2.031-4-2.031h-9v5.851c-1.066-1.279-2.426-2.289-3.964-2.956 2.367-1.39 3.964-3.957 3.964-6.895 0-4.411-3.589-8-8-8s-8 3.589-8 8c0 2.854 1.508 5.357 3.763 6.774-3.957 1.586-6.763 5.454-6.763 9.971v7.255h-4v8h62v-8h-13zm-9 2h7v18h-6.556c.344-.591.556-1.268.556-2 0-2.206-1.794-4-4-4v-9c0-1.654 1.346-3 3-3zm-15 0h7c1.654 0 3 1.346 3 3v9h-9.152l-.504-3.021c-.081-.485-.203-.953-.344-1.412zm-16-6c0-3.309 2.691-6 6-6s6 2.691 6 6-2.691 6-6 6-6-2.691-6-6zm-3 16.745c0-4.822 3.923-8.745 8.745-8.745 4.292 0 7.92 3.073 8.626 7.307l.781 4.693h12.848c1.103 0 2 .897 2 2s-.897 2-2 2h-14.818c-1.405 0-2.607-.956-2.923-2.325l-2.284-9.899-1.949.449 2.284 9.899c.162.703.478 1.33.887 1.876h-12.197zm54 13.255h-58v-4h20.182 14.818 23zm-27-20h-6v-2h6zm0 4h-6v-2h6zm12-4h-6v-2h6zm0 4h-6v-2h6zm-4 2h4v2h-4zm2 4h2v2h-2zm14-43h-3.456c-.49-1.567-1.365-2.997-2.581-4.177-1.957-1.9-4.531-2.9-7.271-2.819-4.309.13-7.958 3.063-9.217 6.996h-3.475c-2.757 0-5 2.243-5 5v11c0 2.757 2.243 5 5 5h3v4.477l11.192-4.477h11.808c2.757 0 5-2.243 5-5v-11c0-2.757-2.243-5-5-5zm-13.248-4.996c.083-.003.166-.004.249-.004 2.094 0 4.062.796 5.569 2.258 1.567 1.52 2.43 3.559 2.43 5.742 0 2.463-1.114 4.751-3.056 6.278-.605.476-1.081 1.065-1.412 1.722h-2.532v-4.142c1.721-.447 3-1.999 3-3.858 0-2.206-1.794-4-4-4s-4 1.794-4 4c0 1.859 1.279 3.411 3 3.858v4.142h-2.522c-.322-.652-.782-1.228-1.358-1.672-1.973-1.521-3.11-3.816-3.119-6.3-.016-4.296 3.462-7.895 7.751-8.024zm.248 9.996c-1.103 0-2-.897-2-2s.897-2 2-2 2 .897 2 2-.897 2-2 2zm3.013 8c-.003.076-.013.151-.013.228 0 .977-.795 1.772-1.772 1.772h-2.455c-.978 0-1.773-.795-1.773-1.772 0-.076-.009-.152-.013-.228zm12.987 3c0 1.654-1.346 3-3 3h-12.192l-8.808 3.523v-3.523h-5c-1.654 0-3-1.346-3-3v-11c0-1.654 1.346-3 3-3h3.053c-.035.341-.054.687-.053 1.036.012 3.104 1.433 5.976 3.898 7.876.69.531 1.102 1.398 1.102 2.316 0 2.08 1.692 3.772 3.772 3.772h2.455c2.081 0 3.773-1.692 3.773-3.772 0-.92.431-1.787 1.181-2.377 2.427-1.91 3.819-4.771 3.819-7.851 0-.336-.017-.67-.049-1h3.049c1.654 0 3 1.346 3 3zm-30-1h2v2h-2zm0-4h2v2h-2zm0-4h2v2h-2zm26-3h2v2h-2zm0 4h2v2h-2zm0 4h2v2h-2z" fill="url(#SVGID_1_)"/></svg>