<svg id="Layer_5" enable-background="new 0 0 64 64" height="512" viewBox="0 0 64 64" width="512" xmlns="http://www.w3.org/2000/svg" xmlns:xlink="http://www.w3.org/1999/xlink"><linearGradient id="SVGID_1_" gradientUnits="userSpaceOnUse" x1="32" x2="32" y1="63" y2="1.027"><stop offset="0" stop-color="#9f2fff"/><stop offset="1" stop-color="#0bb1d3"/></linearGradient><path d="m19 15h2v4.414l-2.293 2.293-1.414-1.414 1.707-1.707zm-2 16h6v10h-6zm2 8h2v-6h-2zm6-8h6v10h-6zm2 8h2v-6h-2zm-18-8h6v10h-6zm2 8h2v-6h-2zm51.24-7.234c.49.551.76 1.26.76 1.998v.229c0 1.303-.838 2.405-2 2.821v26.186h-26-1-29v-44h-.992c-1.659 0-3.008-1.35-3.008-3.008 0-.931.441-1.823 1.181-2.389l15.417-11.79c1.373-1.049 3.431-1.048 4.803-.001l15.418 11.791c.74.566 1.181 1.459 1.181 2.389 0 1.658-1.349 3.008-3.008 3.008h-.992v4h8v-16h2v2h8v8h-8v6h9.449zm-17.24-20.766v4h6v-4zm-40.992 6h6.194c.929-4.559 4.969-8 9.798-8s8.869 3.441 9.798 8h6.194c.556 0 1.008-.452 1.008-1.008 0-.312-.148-.611-.396-.801l-15.417-11.79c-.678-.518-1.696-.519-2.375.001l-15.416 11.789c-.248.19-.396.49-.396.801 0 .556.452 1.008 1.008 1.008zm15.992-6c-4.411 0-8 3.589-8 8s3.589 8 8 8 8-3.589 8-8-3.589-8-8-8zm1 38v12h6v-12zm8-2v-2h-18v2zm-16 2v12h6v-12zm20 12v-42h-3c0 5.514-4.486 10-10 10s-10-4.486-10-10h-3v42h4v-12h-2v-6h22v6h-2v12zm26 0v-24h-24v24zm2-27.236c0-.247-.09-.484-.254-.669l-7.195-8.095h-18.551v10h24.992c.556 0 1.008-.452 1.008-1.008zm-4 12.236v6c0 1.654-1.346 3-3 3h-14c-1.654 0-3-1.346-3-3v-6c0-1.654 1.346-3 3-3h14c1.654 0 3 1.346 3 3zm-2 0c0-.552-.449-1-1-1h-14c-.551 0-1 .448-1 1v6c0 .552.449 1 1 1h14c.551 0 1-.448 1-1zm-18-17h2v-2h-2zm4 0h2v-2h-2zm4 0h2v-2h-2z" fill="url(#SVGID_1_)"/></svg>