<svg id="Layer_5" enable-background="new 0 0 64 64" height="512" viewBox="0 0 64 64" width="512" xmlns="http://www.w3.org/2000/svg" xmlns:xlink="http://www.w3.org/1999/xlink"><linearGradient id="SVGID_1_" gradientUnits="userSpaceOnUse" x1="32" x2="32" y1="63" y2="1"><stop offset="0" stop-color="#9f2fff"/><stop offset="1" stop-color="#0bb1d3"/></linearGradient><path d="m18.09 43.669c1.759-1.273 2.91-3.337 2.91-5.669 0-3.859-3.14-7-7-7s-7 3.141-7 7c0 2.332 1.151 4.396 2.91 5.669-5.168 1.719-8.91 6.593-8.91 12.331v7h26v-7c0-5.738-3.742-10.612-8.91-12.331zm-9.09-5.669c0-2.757 2.243-5 5-5s5 2.243 5 5-2.243 5-5 5-5-2.243-5-5zm1.5 18h-1.5v-4h6v9h-1.338c.216-.455.338-.964.338-1.5 0-1.93-1.57-3.5-3.5-3.5zm14.5 5h-4v-9h-2v9h-2v-11h-10v6h-2v2h5.5c.827 0 1.5.673 1.5 1.5s-.673 1.5-1.5 1.5h-7.5v-5c0-6.065 4.935-11 11-11s11 4.935 11 11zm29.09-17.331c1.759-1.273 2.91-3.337 2.91-5.669 0-3.859-3.14-7-7-7s-7 3.141-7 7c0 2.332 1.151 4.396 2.91 5.669-5.168 1.719-8.91 6.593-8.91 12.331v7h26v-7c0-5.738-3.742-10.612-8.91-12.331zm-9.09-5.669c0-2.757 2.243-5 5-5s5 2.243 5 5-2.243 5-5 5-5-2.243-5-5zm1.5 18h-1.5v-4h6v9h-1.338c.216-.455.338-.964.338-1.5 0-1.93-1.57-3.5-3.5-3.5zm14.5 5h-4v-9h-2v9h-2v-11h-10v6h-2v2h5.5c.827 0 1.5.673 1.5 1.5s-.673 1.5-1.5 1.5h-7.5v-5c0-6.065 4.935-11 11-11s11 4.935 11 11zm-29-34c2.757 0 5-2.243 5-5v-.772c0-.921.43-1.787 1.18-2.377 2.428-1.91 3.82-4.771 3.82-7.851 0-2.729-1.079-5.277-3.037-7.178-1.958-1.899-4.526-2.895-7.271-2.818-5.363.162-9.711 4.662-9.692 10.032.011 3.136 1.456 6.024 3.964 7.926.649.491 1.036 1.31 1.036 2.191v.847c0 2.757 2.243 5 5 5zm3-5c0 1.654-1.346 3-3 3s-3-1.346-3-3v-.847c0-.052-.007-.102-.009-.153h6.022c-.003.076-.013.151-.013.228zm-3-9c-1.103 0-2-.897-2-2s.897-2 2-2 2 .897 2 2-.897 2-2 2zm-8-1.972c-.015-4.296 3.462-7.896 7.752-8.024.083-.003.166-.004.249-.004 2.093 0 4.062.796 5.569 2.258 1.567 1.52 2.43 3.559 2.43 5.742 0 2.463-1.114 4.751-3.056 6.278-.605.476-1.081 1.065-1.412 1.722h-2.532v-4.142c1.72-.447 3-1.999 3-3.858 0-2.206-1.794-4-4-4s-4 1.794-4 4c0 1.859 1.28 3.411 3 3.858v4.142h-2.497c-.314-.641-.766-1.204-1.332-1.632-2.006-1.521-3.162-3.832-3.171-6.34zm27 13.972c0 1.654 1.346 3 3 3s3-1.346 3-3c0-1.587-1.242-2.876-2.803-2.98-1.153-4.303-3.498-8.146-6.852-11.153l-1.335 1.49c3.068 2.749 5.21 6.264 6.261 10.199-.766.544-1.271 1.434-1.271 2.444zm4 0c0 .552-.449 1-1 1s-1-.448-1-1 .449-1 1-1 1 .448 1 1zm-10.497-16.308c.553.359 1.094.744 1.61 1.146l-1.229 1.578c-.471-.366-.965-.718-1.47-1.046zm-34.7 13.328c-1.561.104-2.803 1.393-2.803 2.98 0 1.654 1.346 3 3 3s3-1.346 3-3c0-1.01-.505-1.9-1.272-2.444 1.051-3.935 3.193-7.449 6.261-10.199l-1.335-1.49c-3.354 3.007-5.698 6.85-6.851 11.153zm.197 3.98c-.551 0-1-.448-1-1s.449-1 1-1 1 .448 1 1-.449 1-1 1zm9.115-14.584-1.229-1.578c.516-.401 1.057-.786 1.61-1.146l1.089 1.678c-.504.328-.999.68-1.47 1.046zm19.885 25.584c1.654 0 3-1.346 3-3s-1.346-3-3-3c-1.302 0-2.402.839-2.816 2h-8.369c-.414-1.161-1.514-2-2.816-2-1.654 0-3 1.346-3 3s1.346 3 3 3c1.302 0 2.402-.839 2.816-2h8.369c.414 1.161 1.514 2 2.816 2zm0-4c.551 0 1 .448 1 1s-.449 1-1 1-1-.448-1-1 .449-1 1-1zm-14 2c-.551 0-1-.448-1-1s.449-1 1-1 1 .448 1 1-.449 1-1 1z" fill="url(#SVGID_1_)"/></svg>