<svg id="Layer_5" enable-background="new 0 0 64 64" height="512" viewBox="0 0 64 64" width="512" xmlns="http://www.w3.org/2000/svg" xmlns:xlink="http://www.w3.org/1999/xlink"><linearGradient id="SVGID_1_" gradientUnits="userSpaceOnUse" x1="32" x2="32" y1="63" y2="1"><stop offset="0" stop-color="#9f2fff"/><stop offset="1" stop-color="#0bb1d3"/></linearGradient><path d="m37 6c0-2.757-2.243-5-5-5h-26c-2.757 0-5 2.243-5 5v52c0 2.757 2.243 5 5 5h26c2.757 0 5-2.243 5-5v-7h4v11.618l7-3.5 7 3.5v-11.618h8v-40h-26zm-31-3h26c1.654 0 3 1.346 3 3v1h-32v-1c0-1.654 1.346-3 3-3zm26 58h-26c-1.654 0-3-1.346-3-3v-3h32v3c0 1.654-1.346 3-3 3zm3-8h-32v-44h32v2h-30v40h30zm13-6c-4.962 0-9-4.037-9-9s4.038-9 9-9 9 4.037 9 9-4.038 9-9 9zm0 9.882-5 2.5v-11.596c1.221.626 2.57 1.034 4 1.164v2.05h2v-2.051c1.43-.13 2.779-.537 4-1.164v11.596zm13-7.882h-6v-2.521c2.441-2.019 4-5.07 4-8.479 0-6.065-4.935-11-11-11s-11 4.935-11 11c0 3.408 1.559 6.459 4 8.479v2.521h-34v-36h54zm-48 8h12v2h-12zm20-14c0-5.201-3.332-9.626-7.968-11.288 1.793-1.269 2.968-3.354 2.968-5.712 0-.321-.026-.64-.069-.956.173-.04.287-.068.312-.075l.757-.188v-3.781c1.103 0 2-.897 2-2h1c.551 0 1 .448 1 1v6.285c-1.228.669-2 2.442-2 3.715 0 1.654 1.346 3 3 3s3-1.346 3-3c0-1.273-.772-3.046-2-3.715v-6.285c0-1.654-1.346-3-3-3h-1c0-1.103-.897-2-2-2h-16c-1.103 0-2 .897-2 2v2c0 1.103.897 2 2 2v3.781l.757.188c.025.006.14.034.314.075-.043.316-.071.635-.071.956 0 2.358 1.175 4.443 2.968 5.712-4.636 1.662-7.968 6.087-7.968 11.288v4h24zm1-12c-.551 0-1-.448-1-1 0-.82.68-1.956.997-2 .323.044 1.003 1.18 1.003 2 0 .552-.449 1-1 1zm-21-14h16v2h-16zm14 4v2.204c-1.276.279-3.918.796-6 .796s-4.724-.517-6-.796v-2.204zm-11 5c0-.183.021-.364.041-.545 1.439.268 3.323.545 4.959.545 1.637 0 3.521-.278 4.961-.545.019.181.039.362.039.545 0 2.757-2.243 5-5 5s-5-2.243-5-5zm15 19h-20v-2c0-5.514 4.486-10 10-10s10 4.486 10 10zm17-14c-3.86 0-7 3.141-7 7s3.14 7 7 7 7-3.141 7-7-3.14-7-7-7zm0 12c-2.757 0-5-2.243-5-5s2.243-5 5-5 5 2.243 5 5-2.243 5-5 5zm11-26h-22v-2h22zm-20 4h-2v-2h2zm2-2h18v2h-18zm14 6h-18v-2h18zm2-2h2v2h-2zm-10 30h2v2h-2z" fill="url(#SVGID_1_)"/></svg>