<svg id="Layer_5" enable-background="new 0 0 64 64" height="512" viewBox="0 0 64 64" width="512" xmlns="http://www.w3.org/2000/svg" xmlns:xlink="http://www.w3.org/1999/xlink"><linearGradient id="SVGID_1_" gradientUnits="userSpaceOnUse" x1="32" x2="32" y1="63" y2=".999"><stop offset="0" stop-color="#9f2fff"/><stop offset="1" stop-color="#0bb1d3"/></linearGradient><path d="m32 53c1.654 0 3-1.346 3-3s-1.346-3-3-3-3 1.346-3 3 1.346 3 3 3zm0-4c.552 0 1 .448 1 1s-.448 1-1 1-1-.448-1-1 .448-1 1-1zm20.589-47.992c-5.367.215-9.669 4.767-9.588 10.146.054 3.507 1.952 6.688 4.999 8.444v1.402c0 2.414 1.721 4.434 4 4.899v3.687l-4.715 4.715c-.391-.188-.823-.301-1.285-.301-1.654 0-3 1.346-3 3s1.346 3 3 3 3-1.346 3-3c0-.462-.113-.894-.301-1.285l5.301-5.301v-4.515c2.279-.465 4-2.484 4-4.899v-1.402c3.1-1.785 5-5.025 5-8.598 0-2.747-1.091-5.308-3.072-7.212-1.982-1.903-4.585-2.894-7.339-2.78zm-6.589 36.992c-.552 0-1-.448-1-1s.448-1 1-1 1 .448 1 1-.448 1-1 1zm7-14c-1.654 0-3-1.346-3-3v-1h6v1c0 1.654-1.346 3-3 3zm-.495-10h.99l-.4 4h-.19zm4.229 4h-1.629l.4-4h1.495c1.654 0 3-1.346 3-3s-1.346-3-3-3h-.19c-1.548 0-2.831 1.162-2.984 2.701l-.131 1.299h-1.391l-.13-1.298c-.153-1.54-1.436-2.702-2.984-2.702h-.19c-1.654 0-3 1.346-3 3s1.346 3 3 3h1.495l.4 4h-1.629c-2.588-1.371-4.221-3.981-4.265-6.876-.064-4.303 3.375-7.945 7.668-8.117.111-.005.222-.007.333-.007 2.079 0 4.035.785 5.54 2.23 1.585 1.523 2.458 3.572 2.458 5.77 0 2.948-1.633 5.606-4.266 7zm-1.029-6 .11-1.1c.051-.513.479-.9.994-.9h.191c.552 0 1 .449 1 1s-.448 1-1 1zm-5.41 0h-1.295c-.552 0-1-.449-1-1s.448-1 1-1h.19c.516 0 .943.387.994.9zm-30.992-9h-7.487c-.414-1.161-1.514-2-2.816-2-1.654 0-3 1.346-3 3s1.346 3 3 3c1.302 0 2.402-.839 2.816-2h6.882l3 2h7.302v-2h-6.697zm-10.303 2c-.552 0-1-.449-1-1s.448-1 1-1 1 .449 1 1-.448 1-1 1zm24 2h-2v-2h2zm4 0h-2v-2h2zm4 0h-2v-2h2zm-10 6h2v2h-2zm4 0h6v2h-6zm-23.184 4h7.487l3-2h6.697v-2h-7.303l-3 2h-6.882c-.414-1.161-1.514-2-2.816-2-1.654 0-3 1.346-3 3s1.346 3 3 3c1.303 0 2.403-.839 2.817-2zm-3.816-1c0-.551.448-1 1-1s1 .449 1 1-.448 1-1 1-1-.449-1-1zm-7-6c0 1.654 1.346 3 3 3 1.302 0 2.402-.839 2.816-2h22.184v-2h-22.184c-.414-1.161-1.514-2-2.816-2-1.654 0-3 1.346-3 3zm4 0c0 .551-.448 1-1 1s-1-.449-1-1 .448-1 1-1 1 .449 1 1zm34-1h2v2h-2zm-4 0h2v2h-2zm-4 0h2v2h-2zm-11 12h-1c-1.654 0-3 1.346-3 3v5.335c-1.368.956-2 3.709-2 4.665 0 1.654 1.346 3 3 3s3-1.346 3-3c0-.956-.632-3.708-2-4.665v-5.335c0-.551.448-1 1-1h1c0 1.103.897 2 2 2v3.677l.629.251c.047.019.346.136.811.302-.288.891-.44 1.817-.44 2.77 0 3.231 1.717 6.061 4.281 7.649-7.64 2.081-13.281 9.061-13.281 17.351v4h-9v2h17 20 17v-2h-9v-4c0-8.29-5.641-15.27-13.281-17.351 2.564-1.588 4.281-4.418 4.281-7.649 0-.954-.151-1.88-.44-2.769.465-.166.764-.283.811-.302l.629-.252v-3.677c1.103 0 2-.897 2-2v-2c0-1.103-.897-2-2-2h-20c-1.103 0-2 .897-2 2zm-3 14c-.552 0-1-.448-1-1 0-.826.571-2.436 1-2.916.429.479 1 2.089 1 2.916 0 .552-.448 1-1 1zm26 13v9h-22v-9c0-1.654 1.346-3 3-3h16c1.654 0 3 1.346 3 3zm-27 9c0-3.486 1.134-6.706 3.034-9.337-.008.113-.034.221-.034.337v9h-2v1c0 1.13.391 2.162 1.026 3h-2.026zm6 4c-1.304 0-2.416-.836-2.829-2h25.658c-.413 1.164-1.525 2-2.829 2zm26 0h-2.026c.635-.838 1.026-1.87 1.026-3v-1h-2v-9c0-.116-.026-.224-.034-.337 1.9 2.631 3.034 5.851 3.034 9.337zm-8.271-18h-15.458c2.293-1.271 4.926-2 7.729-2s5.436.729 7.729 2zm-.729-11c0 3.859-3.141 7-7 7s-7-3.141-7-7c0-.74.117-1.459.341-2.15 1.86.554 4.388 1.15 6.659 1.15s4.799-.596 6.66-1.15c.223.69.34 1.409.34 2.15zm1-4.694c-1.434.514-5.047 1.694-8 1.694s-6.566-1.18-8-1.694v-2.306h16zm2-4.306h-20l-.001-2h.001 20zm19 38h2v2h-2zm-60 0h2v2h-2z" fill="url(#SVGID_1_)"/></svg>