<svg id="Layer_5" enable-background="new 0 0 64 64" height="512" viewBox="0 0 64 64" width="512" xmlns="http://www.w3.org/2000/svg" xmlns:xlink="http://www.w3.org/1999/xlink"><linearGradient id="SVGID_1_" gradientUnits="userSpaceOnUse" x1="32" x2="32" y1="63" y2="1"><stop offset="0" stop-color="#9f2fff"/><stop offset="1" stop-color="#0bb1d3"/></linearGradient><path d="m61 18c0-2.757-2.243-5-5-5h-26.08c.047-.328.08-.66.08-1 0-.321-.028-.64-.072-.955.174-.041.289-.069.314-.075l.758-.189v-3.781c1.103 0 2-.897 2-2v-2c0-1.103-.897-2-2-2h-16c-1.103 0-2 .897-2 2h-1c-1.654 0-3 1.346-3 3v6.285c-.321.175-.61.416-.862.715h-.138c-2.757 0-5 2.243-5 5v35h-2v3c0 3.859 3.14 7 7 7h48c3.86 0 7-3.141 7-7v-3h-2zm-33-6c0 2.757-2.243 5-5 5s-5-2.243-5-5c0-.183.02-.364.039-.545 1.44.267 3.324.545 4.961.545 1.636 0 3.52-.277 4.959-.545.02.181.041.362.041.545zm-6 28v9h-4v-23h-2v16.858c-1.72-.447-3-1.999-3-3.858v-10c0-5.514 4.486-10 10-10s10 4.486 10 10v10c0 1.859-1.28 3.411-3 3.858v-16.858h-2v23h-4v-9zm-9.144-25h3.829c.357.749.839 1.426 1.425 2h-5.295c.113-.314.185-.648.185-1 0-.31-.058-.652-.144-1zm-2.859-1c.323.044 1.003 1.18 1.003 2 0 .552-.449 1-1 1s-1-.448-1-1c0-.82.68-1.956.997-2zm-.997 5h7.381c-3.239 2.151-5.381 5.828-5.381 10v10c0 2.967 2.167 5.431 5 5.91v4.09h-7zm21 25.91c2.833-.478 5-2.942 5-5.91v-10c0-4.172-2.142-7.849-5.381-10h25.381v30h-25zm-1-35.706c-1.276.279-3.918.796-6 .796s-4.724-.517-6-.796v-2.204h12zm-14-6.204h16v2h-16l-.001-2zm-3 2h1c0 1.103.897 2 2 2v3.781l.757.188c.025.006.139.034.312.075-.043.316-.069.635-.069.956 0 .34.033.672.08 1h-4.218c-.252-.299-.541-.54-.862-.715v-6.285c0-.552.449-1 1-1zm-7 13c0-1.342.891-2.467 2.108-2.849-.064.295-.108.584-.108.849 0 .62.189 1.197.513 1.676-.315.353-.513.814-.513 1.324v30c0 1.103.897 2 2 2h46c1.103 0 2-.897 2-2v-30c0-1.103-.897-2-2-2h-27.111c.587-.574 1.068-1.251 1.425-2h26.686c1.654 0 3 1.346 3 3v35h-54zm34.816 37c-.414 1.161-1.514 2-2.816 2h-10c-1.302 0-2.402-.839-2.816-2zm21.184 1c0 2.757-2.243 5-5 5h-48c-2.757 0-5-2.243-5-5v-1h19.101c.465 2.279 2.484 4 4.899 4h10c2.414 0 4.434-1.721 4.899-4h19.101zm-10-11h2v2h-2zm-4 0h2v2h-2zm-4 0h2v2h-2zm-6-24v22h16v-15.414l-6.586-6.586zm10 3.414 2.586 2.586h-2.586zm-8 16.586v-18h6v6h6v12zm4-14h-2v-2h2zm-2 4h8v2h-8zm0 4h8v2h-8z" fill="url(#SVGID_1_)"/></svg>